<ttFont>
    <TTGlyph name="A" xMin="27" yMin="-16" xMax="512" yMax="769">
      <contour>
        <pt x="298" y="769" on="1"/>
        <pt x="367" y="769" on="0"/>
        <pt x="373" y="738" on="1"/>
        <pt x="441" y="431" on="1"/>
        <pt x="510" y="22" on="1"/>
        <pt x="512" y="12" on="0"/>
        <pt x="512" y="-5" on="0"/>
        <pt x="502" y="-16" on="0"/>
        <pt x="473" y="-16" on="1"/>
        <pt x="384" y="-16" on="0"/>
        <pt x="378" y="22" on="1"/>
        <pt x="343" y="228" on="1"/>
        <pt x="203" y="228" on="1"/>
        <pt x="172" y="21" on="1"/>
        <pt x="169" y="0" on="0"/>
        <pt x="160" y="-14" on="0"/>
        <pt x="144" y="-16" on="0"/>
        <pt x="126" y="-16" on="1"/>
        <pt x="98" y="-16" on="1"/>
        <pt x="63" y="-16" on="0"/>
        <pt x="54" y="-12" on="1"/>
        <pt x="32" y="-4" on="0"/>
        <pt x="29" y="6" on="1"/>
        <pt x="28" y="11" on="0"/>
        <pt x="28" y="19" on="0"/>
        <pt x="70" y="275" on="0"/>
        <pt x="131" y="629" on="0"/>
        <pt x="150" y="739" on="0"/>
        <pt x="151" y="746" on="1"/>
        <pt x="155" y="769" on="0"/>
      </contour>
      <contour>
        <pt x="268" y="638" on="1"/>
        <pt x="222" y="349" on="1"/>
        <pt x="321" y="349" on="1"/>
      </contour>
    </TTGlyph>
    <TTGlyph name="AE" xMin="27" yMin="-16" xMax="735" yMax="752">
      <contour>
        <pt x="323" y="752" on="1"/>
        <pt x="677" y="752" on="1"/>
        <pt x="720" y="751" on="0"/>
        <pt x="720" y="720" on="1"/>
        <pt x="719" y="693" on="0"/>
        <pt x="715" y="662" on="0"/>
        <pt x="694" y="632" on="0"/>
        <pt x="674" y="632" on="1"/>
        <pt x="451" y="632" on="1"/>
        <pt x="462" y="455" on="1"/>
        <pt x="655" y="455" on="1"/>
        <pt x="695" y="455" on="0"/>
        <pt x="695" y="419" on="1"/>
        <pt x="695" y="370" on="0"/>
        <pt x="683" y="334" on="0"/>
        <pt x="658" y="334" on="1"/>
        <pt x="462" y="334" on="1"/>
        <pt x="462" y="121" on="1"/>
        <pt x="693" y="121" on="1"/>
        <pt x="717" y="120" on="0"/>
        <pt x="735" y="103" on="0"/>
        <pt x="735" y="86" on="1"/>
        <pt x="735" y="37" on="0"/>
        <pt x="717" y="0" on="0"/>
        <pt x="690" y="0" on="1"/>
        <pt x="338" y="0" on="1"/>
        <pt x="322" y="16" on="1"/>
        <pt x="322" y="228" on="1"/>
        <pt x="203" y="228" on="1"/>
        <pt x="172" y="21" on="1"/>
        <pt x="169" y="0" on="0"/>
        <pt x="160" y="-14" on="0"/>
        <pt x="144" y="-16" on="0"/>
        <pt x="126" y="-16" on="1"/>
        <pt x="98" y="-16" on="1"/>
        <pt x="63" y="-16" on="0"/>
        <pt x="54" y="-12" on="1"/>
        <pt x="32" y="-4" on="0"/>
        <pt x="29" y="6" on="1"/>
        <pt x="28" y="11" on="0"/>
        <pt x="28" y="19" on="0"/>
        <pt x="28" y="22" on="1"/>
        <pt x="144" y="692" on="1"/>
        <pt x="150" y="740" on="0"/>
        <pt x="226" y="748" on="1"/>
        <pt x="262" y="752" on="0"/>
      </contour>
      <contour>
        <pt x="321" y="349" on="1"/>
        <pt x="321" y="638" on="1"/>
        <pt x="268" y="638" on="1"/>
        <pt x="222" y="349" on="1"/>
      </contour>
    </TTGlyph>
    <TTGlyph name="AE_smcp" xMin="35" yMin="-11" xMax="523" yMax="522">
      <contour>
        <pt x="233" y="522" on="1"/>
        <pt x="476" y="522" on="1"/>
        <pt x="513" y="521" on="0"/>
        <pt x="513" y="492" on="1"/>
        <pt x="513" y="472" on="0"/>
        <pt x="510" y="449" on="0"/>
        <pt x="491" y="427" on="0"/>
        <pt x="474" y="427" on="1"/>
        <pt x="334" y="427" on="1"/>
        <pt x="340" y="324" on="1"/>
        <pt x="461" y="324" on="1"/>
        <pt x="496" y="324" on="0"/>
        <pt x="496" y="292" on="1"/>
        <pt x="496" y="265" on="0"/>
        <pt x="494" y="244" on="0"/>
        <pt x="479" y="228" on="0"/>
        <pt x="463" y="228" on="1"/>
        <pt x="340" y="228" on="1"/>
        <pt x="340" y="96" on="1"/>
        <pt x="487" y="96" on="1"/>
        <pt x="507" y="95" on="0"/>
        <pt x="523" y="80" on="0"/>
        <pt x="523" y="28" on="0"/>
        <pt x="508" y="0" on="0"/>
        <pt x="485" y="0" on="1"/>
        <pt x="284" y="0" on="1"/>
        <pt x="261" y="0" on="0"/>
        <pt x="252" y="1" on="1"/>
        <pt x="233" y="3" on="0"/>
        <pt x="233" y="25" on="1"/>
        <pt x="233" y="151" on="1"/>
        <pt x="165" y="151" on="1"/>
        <pt x="146" y="18" on="1"/>
        <pt x="144" y="0" on="0"/>
        <pt x="133" y="-11" on="0"/>
        <pt x="87" y="-11" on="0"/>
        <pt x="66" y="-10" on="0"/>
        <pt x="54" y="-7" on="1"/>
        <pt x="33" y="-2" on="0"/>
        <pt x="35" y="23" on="1"/>
        <pt x="118" y="501" on="1"/>
        <pt x="122" y="522" on="0"/>
      </contour>
      <contour>
        <pt x="228" y="247" on="1"/>
        <pt x="228" y="411" on="1"/>
        <pt x="203" y="411" on="1"/>
        <pt x="181" y="247" on="1"/>
      </contour>
    </TTGlyph>
    <TTGlyph name="A_smcp" xMin="13" yMin="-11" xMax="350" yMax="528">
      <contour>
        <pt x="201" y="528" on="1"/>
        <pt x="250" y="528" on="0"/>
        <pt x="258" y="502" on="1"/>
        <pt x="349" y="24" on="1"/>
        <pt x="350" y="17" on="0"/>
        <pt x="350" y="0" on="0"/>
        <pt x="342" y="-11" on="0"/>
        <pt x="318" y="-11" on="1"/>
        <pt x="252" y="-11" on="0"/>
        <pt x="245" y="21" on="1"/>
        <pt x="224" y="151" on="1"/>
        <pt x="143" y="151" on="1"/>
        <pt x="124" y="18" on="1"/>
        <pt x="122" y="0" on="0"/>
        <pt x="111" y="-11" on="0"/>
        <pt x="65" y="-11" on="0"/>
        <pt x="44" y="-10" on="0"/>
        <pt x="32" y="-7" on="1"/>
        <pt x="11" y="-2" on="0"/>
        <pt x="13" y="23" on="1"/>
        <pt x="95" y="507" on="1"/>
        <pt x="99" y="528" on="0"/>
      </contour>
      <contour>
        <pt x="181" y="385" on="1"/>
        <pt x="159" y="247" on="1"/>
        <pt x="206" y="247" on="1"/>
      </contour>
    </TTGlyph>
    <TTGlyph name="A_smcpacute" xMin="13" yMin="-11" xMax="350" yMax="784">
      <contour>
        <pt x="188" y="552" on="1"/>
        <pt x="142" y="573" on="1"/>
        <pt x="141" y="628" on="1"/>
        <pt x="198" y="752" on="1"/>
        <pt x="240" y="784" on="1"/>
        <pt x="348" y="724" on="1"/>
      </contour>
      <contour>
        <pt x="201" y="528" on="1"/>
        <pt x="250" y="528" on="0"/>
        <pt x="258" y="502" on="1"/>
        <pt x="349" y="24" on="1"/>
        <pt x="350" y="17" on="0"/>
        <pt x="350" y="0" on="0"/>
        <pt x="342" y="-11" on="0"/>
        <pt x="318" y="-11" on="1"/>
        <pt x="252" y="-11" on="0"/>
        <pt x="245" y="21" on="1"/>
        <pt x="224" y="151" on="1"/>
        <pt x="143" y="151" on="1"/>
        <pt x="124" y="18" on="1"/>
        <pt x="122" y="0" on="0"/>
        <pt x="111" y="-11" on="0"/>
        <pt x="65" y="-11" on="0"/>
        <pt x="44" y="-10" on="0"/>
        <pt x="32" y="-7" on="1"/>
        <pt x="11" y="-2" on="0"/>
        <pt x="13" y="23" on="1"/>
        <pt x="95" y="507" on="1"/>
        <pt x="99" y="528" on="0"/>
      </contour>
      <contour>
        <pt x="181" y="385" on="1"/>
        <pt x="159" y="247" on="1"/>
        <pt x="206" y="247" on="1"/>
      </contour>
    </TTGlyph>
    <TTGlyph name="A_smcpcircunflex" xMin="29" yMin="-11" xMax="366" yMax="784">
      <contour>
        <pt x="71" y="588" on="1"/>
        <pt x="32" y="620" on="1"/>
        <pt x="45" y="674" on="1"/>
        <pt x="147" y="764" on="1"/>
        <pt x="196" y="784" on="1"/>
        <pt x="245" y="764" on="1"/>
        <pt x="347" y="674" on="1"/>
        <pt x="360" y="620" on="1"/>
        <pt x="321" y="588" on="1"/>
        <pt x="196" y="669" on="1"/>
      </contour>
      <contour>
        <pt x="217" y="528" on="1"/>
        <pt x="266" y="528" on="0"/>
        <pt x="274" y="502" on="1"/>
        <pt x="365" y="24" on="1"/>
        <pt x="366" y="17" on="0"/>
        <pt x="366" y="0" on="0"/>
        <pt x="358" y="-11" on="0"/>
        <pt x="334" y="-11" on="1"/>
        <pt x="268" y="-11" on="0"/>
        <pt x="261" y="21" on="1"/>
        <pt x="240" y="151" on="1"/>
        <pt x="159" y="151" on="1"/>
        <pt x="140" y="18" on="1"/>
        <pt x="138" y="0" on="0"/>
        <pt x="127" y="-11" on="0"/>
        <pt x="81" y="-11" on="0"/>
        <pt x="60" y="-10" on="0"/>
        <pt x="48" y="-7" on="1"/>
        <pt x="27" y="-2" on="0"/>
        <pt x="29" y="23" on="1"/>
        <pt x="111" y="507" on="1"/>
        <pt x="115" y="528" on="0"/>
      </contour>
      <contour>
        <pt x="197" y="385" on="1"/>
        <pt x="175" y="247" on="1"/>
        <pt x="222" y="247" on="1"/>
      </contour>
    </TTGlyph>
    <TTGlyph name="A_smcpdieresis" xMin="38" yMin="-11" xMax="416" yMax="784">
      <contour>
        <pt x="38" y="640" on="0"/>
        <pt x="38" y="784" on="0"/>
        <pt x="182" y="784" on="0"/>
        <pt x="182" y="640" on="0"/>
      </contour>
      <contour>
        <pt x="272" y="640" on="0"/>
        <pt x="272" y="784" on="0"/>
        <pt x="416" y="784" on="0"/>
        <pt x="416" y="640" on="0"/>
      </contour>
      <contour>
        <pt x="265" y="528" on="1"/>
        <pt x="314" y="528" on="0"/>
        <pt x="322" y="502" on="1"/>
        <pt x="413" y="24" on="1"/>
        <pt x="414" y="17" on="0"/>
        <pt x="414" y="0" on="0"/>
        <pt x="406" y="-11" on="0"/>
        <pt x="382" y="-11" on="1"/>
        <pt x="316" y="-11" on="0"/>
        <pt x="309" y="21" on="1"/>
        <pt x="288" y="151" on="1"/>
        <pt x="207" y="151" on="1"/>
        <pt x="188" y="18" on="1"/>
        <pt x="186" y="0" on="0"/>
        <pt x="175" y="-11" on="0"/>
        <pt x="129" y="-11" on="0"/>
        <pt x="108" y="-10" on="0"/>
        <pt x="96" y="-7" on="1"/>
        <pt x="75" y="-2" on="0"/>
        <pt x="77" y="23" on="1"/>
        <pt x="159" y="507" on="1"/>
        <pt x="163" y="528" on="0"/>
      </contour>
      <contour>
        <pt x="245" y="385" on="1"/>
        <pt x="223" y="247" on="1"/>
        <pt x="270" y="247" on="1"/>
      </contour>
    </TTGlyph>
    <TTGlyph name="A_smcpgrave" xMin="13" yMin="-11" xMax="350" yMax="784">
      <contour>
        <pt x="229" y="573" on="1"/>
        <pt x="183" y="552" on="1"/>
        <pt x="23" y="724" on="1"/>
        <pt x="131" y="784" on="1"/>
        <pt x="173" y="752" on="1"/>
        <pt x="230" y="628" on="1"/>
      </contour>
      <contour>
        <pt x="201" y="528" on="1"/>
        <pt x="250" y="528" on="0"/>
        <pt x="258" y="502" on="1"/>
        <pt x="349" y="24" on="1"/>
        <pt x="350" y="17" on="0"/>
        <pt x="350" y="0" on="0"/>
        <pt x="342" y="-11" on="0"/>
        <pt x="318" y="-11" on="1"/>
        <pt x="252" y="-11" on="0"/>
        <pt x="245" y="21" on="1"/>
        <pt x="224" y="151" on="1"/>
        <pt x="143" y="151" on="1"/>
        <pt x="124" y="18" on="1"/>
        <pt x="122" y="0" on="0"/>
        <pt x="111" y="-11" on="0"/>
        <pt x="65" y="-11" on="0"/>
        <pt x="44" y="-10" on="0"/>
        <pt x="32" y="-7" on="1"/>
        <pt x="11" y="-2" on="0"/>
        <pt x="13" y="23" on="1"/>
        <pt x="95" y="507" on="1"/>
        <pt x="99" y="528" on="0"/>
      </contour>
      <contour>
        <pt x="181" y="385" on="1"/>
        <pt x="159" y="247" on="1"/>
        <pt x="206" y="247" on="1"/>
      </contour>
    </TTGlyph>
    <TTGlyph name="A_smcpring" xMin="27" yMin="-11" xMax="364" yMax="768">
      <contour>
        <pt x="103" y="576" on="0"/>
        <pt x="103" y="768" on="0"/>
        <pt x="295" y="768" on="0"/>
        <pt x="295" y="576" on="0"/>
      </contour>
      <contour>
        <pt x="164" y="707" on="0"/>
        <pt x="164" y="637" on="0"/>
        <pt x="234" y="637" on="0"/>
        <pt x="234" y="707" on="0"/>
      </contour>
      <contour>
        <pt x="215" y="528" on="1"/>
        <pt x="264" y="528" on="0"/>
        <pt x="272" y="502" on="1"/>
        <pt x="363" y="24" on="1"/>
        <pt x="364" y="17" on="0"/>
        <pt x="364" y="0" on="0"/>
        <pt x="356" y="-11" on="0"/>
        <pt x="332" y="-11" on="1"/>
        <pt x="266" y="-11" on="0"/>
        <pt x="259" y="21" on="1"/>
        <pt x="238" y="151" on="1"/>
        <pt x="157" y="151" on="1"/>
        <pt x="138" y="18" on="1"/>
        <pt x="136" y="0" on="0"/>
        <pt x="125" y="-11" on="0"/>
        <pt x="79" y="-11" on="0"/>
        <pt x="58" y="-10" on="0"/>
        <pt x="46" y="-7" on="1"/>
        <pt x="25" y="-2" on="0"/>
        <pt x="27" y="23" on="1"/>
        <pt x="109" y="507" on="1"/>
        <pt x="113" y="528" on="0"/>
      </contour>
      <contour>
        <pt x="195" y="385" on="1"/>
        <pt x="173" y="247" on="1"/>
        <pt x="220" y="247" on="1"/>
      </contour>
    </TTGlyph>
    <TTGlyph name="A_smcptilde" xMin="40" yMin="-11" xMax="382" yMax="745">
      <contour>
        <pt x="365" y="644" on="1"/>
        <pt x="358" y="644" on="0"/>
        <pt x="283" y="644" on="0"/>
        <pt x="167" y="624" on="0"/>
        <pt x="67" y="624" on="0"/>
        <pt x="40" y="643" on="0"/>
        <pt x="40" y="676" on="1"/>
        <pt x="65" y="727" on="1"/>
        <pt x="140" y="727" on="0"/>
        <pt x="239" y="745" on="0"/>
        <pt x="345" y="745" on="0"/>
        <pt x="381" y="724" on="0"/>
        <pt x="381" y="689" on="1"/>
      </contour>
      <contour>
        <pt x="233" y="528" on="1"/>
        <pt x="282" y="528" on="0"/>
        <pt x="290" y="502" on="1"/>
        <pt x="381" y="24" on="1"/>
        <pt x="382" y="17" on="0"/>
        <pt x="382" y="0" on="0"/>
        <pt x="374" y="-11" on="0"/>
        <pt x="350" y="-11" on="1"/>
        <pt x="284" y="-11" on="0"/>
        <pt x="277" y="21" on="1"/>
        <pt x="256" y="151" on="1"/>
        <pt x="175" y="151" on="1"/>
        <pt x="156" y="18" on="1"/>
        <pt x="154" y="0" on="0"/>
        <pt x="143" y="-11" on="0"/>
        <pt x="97" y="-11" on="0"/>
        <pt x="76" y="-10" on="0"/>
        <pt x="64" y="-7" on="1"/>
        <pt x="43" y="-2" on="0"/>
        <pt x="45" y="23" on="1"/>
        <pt x="127" y="507" on="1"/>
        <pt x="131" y="528" on="0"/>
      </contour>
      <contour>
        <pt x="213" y="385" on="1"/>
        <pt x="191" y="247" on="1"/>
        <pt x="238" y="247" on="1"/>
      </contour>
    </TTGlyph>
    <TTGlyph name="Aacute" xMin="27" yMin="-16" xMax="512" yMax="1024">
      <contour>
        <pt x="268" y="792" on="1"/>
        <pt x="222" y="813" on="1"/>
        <pt x="221" y="868" on="1"/>
        <pt x="278" y="992" on="1"/>
        <pt x="320" y="1024" on="1"/>
        <pt x="428" y="964" on="1"/>
      </contour>
      <contour>
        <pt x="298" y="769" on="1"/>
        <pt x="367" y="769" on="0"/>
        <pt x="373" y="738" on="1"/>
        <pt x="441" y="431" on="1"/>
        <pt x="510" y="22" on="1"/>
        <pt x="512" y="12" on="0"/>
        <pt x="512" y="-5" on="0"/>
        <pt x="502" y="-16" on="0"/>
        <pt x="473" y="-16" on="1"/>
        <pt x="384" y="-16" on="0"/>
        <pt x="378" y="22" on="1"/>
        <pt x="343" y="228" on="1"/>
        <pt x="203" y="228" on="1"/>
        <pt x="172" y="21" on="1"/>
        <pt x="169" y="0" on="0"/>
        <pt x="160" y="-14" on="0"/>
        <pt x="144" y="-16" on="0"/>
        <pt x="126" y="-16" on="1"/>
        <pt x="98" y="-16" on="1"/>
        <pt x="63" y="-16" on="0"/>
        <pt x="54" y="-12" on="1"/>
        <pt x="32" y="-4" on="0"/>
        <pt x="29" y="6" on="1"/>
        <pt x="28" y="11" on="0"/>
        <pt x="28" y="19" on="0"/>
        <pt x="70" y="275" on="0"/>
        <pt x="131" y="629" on="0"/>
        <pt x="150" y="739" on="0"/>
        <pt x="151" y="746" on="1"/>
        <pt x="155" y="769" on="0"/>
      </contour>
      <contour>
        <pt x="268" y="638" on="1"/>
        <pt x="222" y="349" on="1"/>
        <pt x="321" y="349" on="1"/>
      </contour>
    </TTGlyph>
    <TTGlyph name="Acircumflex" xMin="27" yMin="-16" xMax="512" yMax="1024">
      <contour>
        <pt x="142" y="828" on="1"/>
        <pt x="103" y="860" on="1"/>
        <pt x="116" y="914" on="1"/>
        <pt x="218" y="1004" on="1"/>
        <pt x="267" y="1024" on="1"/>
        <pt x="316" y="1004" on="1"/>
        <pt x="418" y="914" on="1"/>
        <pt x="431" y="860" on="1"/>
        <pt x="392" y="828" on="1"/>
        <pt x="267" y="909" on="1"/>
      </contour>
      <contour>
        <pt x="298" y="769" on="1"/>
        <pt x="367" y="769" on="0"/>
        <pt x="373" y="738" on="1"/>
        <pt x="441" y="431" on="1"/>
        <pt x="510" y="22" on="1"/>
        <pt x="512" y="12" on="0"/>
        <pt x="512" y="-5" on="0"/>
        <pt x="502" y="-16" on="0"/>
        <pt x="473" y="-16" on="1"/>
        <pt x="384" y="-16" on="0"/>
        <pt x="378" y="22" on="1"/>
        <pt x="343" y="228" on="1"/>
        <pt x="203" y="228" on="1"/>
        <pt x="172" y="21" on="1"/>
        <pt x="169" y="0" on="0"/>
        <pt x="160" y="-14" on="0"/>
        <pt x="144" y="-16" on="0"/>
        <pt x="126" y="-16" on="1"/>
        <pt x="98" y="-16" on="1"/>
        <pt x="63" y="-16" on="0"/>
        <pt x="54" y="-12" on="1"/>
        <pt x="32" y="-4" on="0"/>
        <pt x="29" y="6" on="1"/>
        <pt x="28" y="11" on="0"/>
        <pt x="28" y="19" on="0"/>
        <pt x="70" y="275" on="0"/>
        <pt x="131" y="629" on="0"/>
        <pt x="150" y="739" on="0"/>
        <pt x="151" y="746" on="1"/>
        <pt x="155" y="769" on="0"/>
      </contour>
      <contour>
        <pt x="268" y="638" on="1"/>
        <pt x="222" y="349" on="1"/>
        <pt x="321" y="349" on="1"/>
      </contour>
    </TTGlyph>
    <TTGlyph name="Adieresis" xMin="27" yMin="-16" xMax="512" yMax="1024">
      <contour>
        <pt x="79" y="880" on="0"/>
        <pt x="79" y="1024" on="0"/>
        <pt x="223" y="1024" on="0"/>
        <pt x="223" y="880" on="0"/>
      </contour>
      <contour>
        <pt x="313" y="880" on="0"/>
        <pt x="313" y="1024" on="0"/>
        <pt x="457" y="1024" on="0"/>
        <pt x="457" y="880" on="0"/>
      </contour>
      <contour>
        <pt x="298" y="769" on="1"/>
        <pt x="367" y="769" on="0"/>
        <pt x="373" y="738" on="1"/>
        <pt x="441" y="431" on="1"/>
        <pt x="510" y="22" on="1"/>
        <pt x="512" y="12" on="0"/>
        <pt x="512" y="-5" on="0"/>
        <pt x="502" y="-16" on="0"/>
        <pt x="473" y="-16" on="1"/>
        <pt x="384" y="-16" on="0"/>
        <pt x="378" y="22" on="1"/>
        <pt x="343" y="228" on="1"/>
        <pt x="203" y="228" on="1"/>
        <pt x="172" y="21" on="1"/>
        <pt x="169" y="0" on="0"/>
        <pt x="160" y="-14" on="0"/>
        <pt x="144" y="-16" on="0"/>
        <pt x="126" y="-16" on="1"/>
        <pt x="98" y="-16" on="1"/>
        <pt x="63" y="-16" on="0"/>
        <pt x="54" y="-12" on="1"/>
        <pt x="32" y="-4" on="0"/>
        <pt x="29" y="6" on="1"/>
        <pt x="28" y="11" on="0"/>
        <pt x="28" y="19" on="0"/>
        <pt x="70" y="275" on="0"/>
        <pt x="131" y="629" on="0"/>
        <pt x="150" y="739" on="0"/>
        <pt x="151" y="746" on="1"/>
        <pt x="155" y="769" on="0"/>
      </contour>
      <contour>
        <pt x="268" y="638" on="1"/>
        <pt x="222" y="349" on="1"/>
        <pt x="321" y="349" on="1"/>
      </contour>
    </TTGlyph>
    <TTGlyph name="Agrave" xMin="27" yMin="-16" xMax="512" yMax="1024">
      <contour>
        <pt x="298" y="813" on="1"/>
        <pt x="252" y="792" on="1"/>
        <pt x="92" y="964" on="1"/>
        <pt x="200" y="1024" on="1"/>
        <pt x="242" y="992" on="1"/>
        <pt x="299" y="868" on="1"/>
      </contour>
      <contour>
        <pt x="298" y="769" on="1"/>
        <pt x="367" y="769" on="0"/>
        <pt x="373" y="738" on="1"/>
        <pt x="441" y="431" on="1"/>
        <pt x="510" y="22" on="1"/>
        <pt x="512" y="12" on="0"/>
        <pt x="512" y="-5" on="0"/>
        <pt x="502" y="-16" on="0"/>
        <pt x="473" y="-16" on="1"/>
        <pt x="384" y="-16" on="0"/>
        <pt x="378" y="22" on="1"/>
        <pt x="343" y="228" on="1"/>
        <pt x="203" y="228" on="1"/>
        <pt x="172" y="21" on="1"/>
        <pt x="169" y="0" on="0"/>
        <pt x="160" y="-14" on="0"/>
        <pt x="144" y="-16" on="0"/>
        <pt x="126" y="-16" on="1"/>
        <pt x="98" y="-16" on="1"/>
        <pt x="63" y="-16" on="0"/>
        <pt x="54" y="-12" on="1"/>
        <pt x="32" y="-4" on="0"/>
        <pt x="29" y="6" on="1"/>
        <pt x="28" y="11" on="0"/>
        <pt x="28" y="19" on="0"/>
        <pt x="70" y="275" on="0"/>
        <pt x="131" y="629" on="0"/>
        <pt x="150" y="739" on="0"/>
        <pt x="151" y="746" on="1"/>
        <pt x="155" y="769" on="0"/>
      </contour>
      <contour>
        <pt x="268" y="638" on="1"/>
        <pt x="222" y="349" on="1"/>
        <pt x="321" y="349" on="1"/>
      </contour>
    </TTGlyph>
    <TTGlyph name="Aring" xMin="27" yMin="-16" xMax="512" yMax="985">
      <contour>
        <pt x="167" y="793" on="0"/>
        <pt x="167" y="985" on="0"/>
        <pt x="359" y="985" on="0"/>
        <pt x="359" y="793" on="0"/>
      </contour>
      <contour>
        <pt x="228" y="924" on="0"/>
        <pt x="228" y="854" on="0"/>
        <pt x="298" y="854" on="0"/>
        <pt x="298" y="924" on="0"/>
      </contour>
      <contour>
        <pt x="298" y="769" on="1"/>
        <pt x="367" y="769" on="0"/>
        <pt x="373" y="738" on="1"/>
        <pt x="441" y="431" on="1"/>
        <pt x="510" y="22" on="1"/>
        <pt x="512" y="12" on="0"/>
        <pt x="512" y="-5" on="0"/>
        <pt x="502" y="-16" on="0"/>
        <pt x="473" y="-16" on="1"/>
        <pt x="384" y="-16" on="0"/>
        <pt x="378" y="22" on="1"/>
        <pt x="343" y="228" on="1"/>
        <pt x="203" y="228" on="1"/>
        <pt x="172" y="21" on="1"/>
        <pt x="169" y="0" on="0"/>
        <pt x="160" y="-14" on="0"/>
        <pt x="144" y="-16" on="0"/>
        <pt x="126" y="-16" on="1"/>
        <pt x="98" y="-16" on="1"/>
        <pt x="63" y="-16" on="0"/>
        <pt x="54" y="-12" on="1"/>
        <pt x="32" y="-4" on="0"/>
        <pt x="29" y="6" on="1"/>
        <pt x="28" y="11" on="0"/>
        <pt x="28" y="19" on="0"/>
        <pt x="70" y="275" on="0"/>
        <pt x="131" y="629" on="0"/>
        <pt x="150" y="739" on="0"/>
        <pt x="151" y="746" on="1"/>
        <pt x="155" y="769" on="0"/>
      </contour>
      <contour>
        <pt x="268" y="638" on="1"/>
        <pt x="222" y="349" on="1"/>
        <pt x="321" y="349" on="1"/>
      </contour>
    </TTGlyph>
    <TTGlyph name="Atilde" xMin="27" yMin="-16" xMax="512" yMax="985">
      <contour>
        <pt x="435" y="884" on="1"/>
        <pt x="428" y="884" on="0"/>
        <pt x="351" y="884" on="0"/>
        <pt x="205" y="864" on="0"/>
        <pt x="105" y="864" on="0"/>
        <pt x="78" y="883" on="0"/>
        <pt x="78" y="916" on="1"/>
        <pt x="103" y="967" on="1"/>
        <pt x="178" y="967" on="0"/>
        <pt x="309" y="985" on="0"/>
        <pt x="415" y="985" on="0"/>
        <pt x="451" y="964" on="0"/>
        <pt x="451" y="929" on="1"/>
      </contour>
      <contour>
        <pt x="298" y="769" on="1"/>
        <pt x="367" y="769" on="0"/>
        <pt x="373" y="738" on="1"/>
        <pt x="441" y="431" on="1"/>
        <pt x="510" y="22" on="1"/>
        <pt x="512" y="12" on="0"/>
        <pt x="512" y="-5" on="0"/>
        <pt x="502" y="-16" on="0"/>
        <pt x="473" y="-16" on="1"/>
        <pt x="384" y="-16" on="0"/>
        <pt x="378" y="22" on="1"/>
        <pt x="343" y="228" on="1"/>
        <pt x="203" y="228" on="1"/>
        <pt x="172" y="21" on="1"/>
        <pt x="169" y="0" on="0"/>
        <pt x="160" y="-14" on="0"/>
        <pt x="144" y="-16" on="0"/>
        <pt x="126" y="-16" on="1"/>
        <pt x="98" y="-16" on="1"/>
        <pt x="63" y="-16" on="0"/>
        <pt x="54" y="-12" on="1"/>
        <pt x="32" y="-4" on="0"/>
        <pt x="29" y="6" on="1"/>
        <pt x="28" y="11" on="0"/>
        <pt x="28" y="19" on="0"/>
        <pt x="70" y="275" on="0"/>
        <pt x="131" y="629" on="0"/>
        <pt x="150" y="739" on="0"/>
        <pt x="151" y="746" on="1"/>
        <pt x="155" y="769" on="0"/>
      </contour>
      <contour>
        <pt x="268" y="638" on="1"/>
        <pt x="222" y="349" on="1"/>
        <pt x="321" y="349" on="1"/>
      </contour>
    </TTGlyph>
    <TTGlyph name="B" xMin="45" yMin="-16" xMax="525" yMax="768">
      <contour>
        <pt x="234" y="768" on="1"/>
        <pt x="387" y="768" on="0"/>
        <pt x="505" y="667" on="0"/>
        <pt x="505" y="450" on="0"/>
        <pt x="462" y="395" on="1"/>
        <pt x="525" y="343" on="0"/>
        <pt x="525" y="220" on="1"/>
        <pt x="525" y="-16" on="0"/>
        <pt x="254" y="-16" on="1"/>
        <pt x="222" y="-16" on="0"/>
        <pt x="45" y="0" on="1"/>
        <pt x="45" y="752" on="1"/>
        <pt x="149" y="768" on="0"/>
      </contour>
      <contour>
        <pt x="374" y="153" on="0"/>
        <pt x="374" y="289" on="0"/>
        <pt x="344" y="317" on="0"/>
        <pt x="219" y="317" on="0"/>
        <pt x="186" y="313" on="0"/>
        <pt x="186" y="303" on="1"/>
        <pt x="186" y="124" on="1"/>
        <pt x="186" y="113" on="0"/>
        <pt x="213" y="109" on="0"/>
        <pt x="335" y="109" on="0"/>
      </contour>
      <contour>
        <pt x="204" y="441" on="1"/>
        <pt x="291" y="441" on="0"/>
        <pt x="354" y="483" on="0"/>
        <pt x="354" y="555" on="1"/>
        <pt x="354" y="596" on="0"/>
        <pt x="319" y="649" on="0"/>
        <pt x="299" y="649" on="1"/>
        <pt x="214" y="649" on="0"/>
        <pt x="196" y="638" on="1"/>
        <pt x="190" y="634" on="0"/>
        <pt x="186" y="626" on="1"/>
        <pt x="186" y="457" on="1"/>
        <pt x="186" y="445" on="0"/>
        <pt x="190" y="443" on="1"/>
        <pt x="197" y="441" on="0"/>
      </contour>
    </TTGlyph>
    <TTGlyph name="B_smcp" xMin="32" yMin="-6" xMax="367" yMax="531">
      <contour>
        <pt x="165" y="531" on="1"/>
        <pt x="272" y="531" on="0"/>
        <pt x="353" y="461" on="0"/>
        <pt x="353" y="319" on="0"/>
        <pt x="329" y="277" on="1"/>
        <pt x="367" y="240" on="0"/>
        <pt x="367" y="158" on="1"/>
        <pt x="367" y="-6" on="0"/>
        <pt x="178" y="-6" on="1"/>
        <pt x="158" y="-6" on="0"/>
        <pt x="32" y="5" on="1"/>
        <pt x="32" y="522" on="1"/>
        <pt x="101" y="531" on="0"/>
      </contour>
      <contour>
        <pt x="250" y="119" on="0"/>
        <pt x="250" y="199" on="0"/>
        <pt x="232" y="216" on="0"/>
        <pt x="142" y="216" on="0"/>
        <pt x="142" y="215" on="1"/>
        <pt x="142" y="95" on="1"/>
        <pt x="142" y="93" on="0"/>
        <pt x="227" y="93" on="0"/>
      </contour>
      <contour>
        <pt x="146" y="315" on="1"/>
        <pt x="199" y="315" on="0"/>
        <pt x="238" y="340" on="0"/>
        <pt x="238" y="406" on="0"/>
        <pt x="219" y="436" on="0"/>
        <pt x="209" y="436" on="1"/>
        <pt x="148" y="435" on="0"/>
        <pt x="142" y="429" on="1"/>
        <pt x="142" y="318" on="1"/>
        <pt x="142" y="315" on="0"/>
      </contour>
    </TTGlyph>
    <TTGlyph name="C" xMin="35" yMin="-16" xMax="470" yMax="768">
      <contour>
        <pt x="436" y="118" on="1"/>
        <pt x="461" y="118" on="0"/>
        <pt x="461" y="54" on="0"/>
        <pt x="460" y="38" on="1"/>
        <pt x="456" y="2" on="0"/>
        <pt x="428" y="-3" on="1"/>
        <pt x="339" y="-16" on="0"/>
        <pt x="296" y="-16" on="1"/>
        <pt x="147" y="-16" on="0"/>
        <pt x="35" y="152" on="0"/>
        <pt x="35" y="371" on="1"/>
        <pt x="35" y="531" on="0"/>
        <pt x="84" y="700" on="0"/>
        <pt x="193" y="768" on="0"/>
        <pt x="410" y="768" on="0"/>
        <pt x="460" y="734" on="1"/>
        <pt x="470" y="727" on="0"/>
        <pt x="470" y="707" on="0"/>
        <pt x="451" y="652" on="0"/>
        <pt x="434" y="629" on="0"/>
        <pt x="416" y="629" on="0"/>
        <pt x="411" y="630" on="1"/>
        <pt x="336" y="645" on="0"/>
        <pt x="227" y="645" on="0"/>
        <pt x="194" y="525" on="0"/>
        <pt x="194" y="256" on="0"/>
        <pt x="208" y="150" on="0"/>
        <pt x="246" y="108" on="0"/>
        <pt x="329" y="108" on="0"/>
        <pt x="434" y="118" on="0"/>
      </contour>
    </TTGlyph>
    <TTGlyph name="C_smcp" xMin="25" yMin="-6" xMax="331" yMax="531">
      <contour>
        <pt x="200" y="92" on="1"/>
        <pt x="298" y="99" on="1"/>
        <pt x="325" y="99" on="0"/>
        <pt x="325" y="71" on="1"/>
        <pt x="325" y="28" on="0"/>
        <pt x="310" y="6" on="0"/>
        <pt x="296" y="3" on="1"/>
        <pt x="237" y="-6" on="0"/>
        <pt x="206" y="-6" on="1"/>
        <pt x="102" y="-6" on="0"/>
        <pt x="25" y="108" on="0"/>
        <pt x="25" y="420" on="0"/>
        <pt x="101" y="531" on="0"/>
        <pt x="206" y="531" on="1"/>
        <pt x="285" y="531" on="0"/>
        <pt x="325" y="504" on="1"/>
        <pt x="331" y="498" on="0"/>
        <pt x="331" y="483" on="0"/>
        <pt x="316" y="440" on="0"/>
        <pt x="301" y="421" on="0"/>
        <pt x="236" y="433" on="0"/>
        <pt x="194" y="433" on="1"/>
        <pt x="164" y="433" on="0"/>
        <pt x="145" y="358" on="0"/>
        <pt x="145" y="153" on="0"/>
        <pt x="164" y="92" on="0"/>
      </contour>
    </TTGlyph>
    <TTGlyph name="Ccedilla" xMin="35" yMin="-287" xMax="470" yMax="768">
      <contour>
        <pt x="436" y="118" on="1"/>
        <pt x="461" y="118" on="0"/>
        <pt x="461" y="54" on="0"/>
        <pt x="460" y="38" on="1"/>
        <pt x="456" y="2" on="0"/>
        <pt x="428" y="-3" on="1"/>
        <pt x="339" y="-16" on="0"/>
        <pt x="295" y="-16" on="1"/>
        <pt x="290" y="-47" on="1"/>
        <pt x="391" y="-66" on="0"/>
        <pt x="391" y="-153" on="1"/>
        <pt x="391" y="-168" on="0"/>
        <pt x="388" y="-186" on="1"/>
        <pt x="369" y="-286" on="0"/>
        <pt x="283" y="-286" on="1"/>
        <pt x="267" y="-286" on="0"/>
        <pt x="249" y="-283" on="1"/>
        <pt x="262" y="-209" on="1"/>
        <pt x="268" y="-210" on="0"/>
        <pt x="273" y="-210" on="1"/>
        <pt x="306" y="-210" on="0"/>
        <pt x="313" y="-173" on="1"/>
        <pt x="314" y="-166" on="0"/>
        <pt x="314" y="-160" on="1"/>
        <pt x="314" y="-128" on="0"/>
        <pt x="277" y="-122" on="1"/>
        <pt x="220" y="-112" on="1"/>
        <pt x="237" y="-12" on="1"/>
        <pt x="123" y="2" on="0"/>
        <pt x="35" y="174" on="0"/>
        <pt x="35" y="531" on="0"/>
        <pt x="84" y="700" on="0"/>
        <pt x="193" y="768" on="0"/>
        <pt x="410" y="768" on="0"/>
        <pt x="460" y="734" on="1"/>
        <pt x="470" y="727" on="0"/>
        <pt x="470" y="707" on="0"/>
        <pt x="451" y="652" on="0"/>
        <pt x="434" y="629" on="0"/>
        <pt x="416" y="629" on="0"/>
        <pt x="411" y="630" on="1"/>
        <pt x="336" y="645" on="0"/>
        <pt x="227" y="645" on="0"/>
        <pt x="194" y="525" on="0"/>
        <pt x="194" y="256" on="0"/>
        <pt x="208" y="150" on="0"/>
        <pt x="246" y="108" on="0"/>
        <pt x="329" y="108" on="0"/>
        <pt x="434" y="118" on="0"/>
      </contour>
    </TTGlyph>
    <TTGlyph name="D" xMin="45" yMin="-16" xMax="535" yMax="768">
      <contour>
        <pt x="264" y="768" on="1"/>
        <pt x="373" y="768" on="0"/>
        <pt x="485" y="706" on="0"/>
        <pt x="535" y="543" on="0"/>
        <pt x="535" y="383" on="1"/>
        <pt x="535" y="161" on="0"/>
        <pt x="419" y="-16" on="0"/>
        <pt x="264" y="-16" on="1"/>
        <pt x="226" y="-16" on="0"/>
        <pt x="45" y="0" on="1"/>
        <pt x="45" y="751" on="1"/>
        <pt x="197" y="768" on="0"/>
      </contour>
      <contour>
        <pt x="317" y="649" on="1"/>
        <pt x="230" y="649" on="0"/>
        <pt x="186" y="642" on="0"/>
        <pt x="186" y="626" on="1"/>
        <pt x="186" y="124" on="1"/>
        <pt x="186" y="113" on="0"/>
        <pt x="213" y="109" on="0"/>
        <pt x="296" y="109" on="0"/>
        <pt x="330" y="118" on="0"/>
        <pt x="359" y="141" on="0"/>
        <pt x="364" y="174" on="1"/>
        <pt x="374" y="238" on="0"/>
        <pt x="374" y="372" on="1"/>
        <pt x="374" y="649" on="0"/>
      </contour>
    </TTGlyph>
    <TTGlyph name="D_smcp" xMin="32" yMin="-6" xMax="373" yMax="531">
      <contour>
        <pt x="185" y="531" on="1"/>
        <pt x="297" y="531" on="0"/>
        <pt x="373" y="427" on="0"/>
        <pt x="373" y="114" on="0"/>
        <pt x="293" y="-6" on="0"/>
        <pt x="185" y="-6" on="1"/>
        <pt x="159" y="-6" on="0"/>
        <pt x="32" y="5" on="1"/>
        <pt x="32" y="521" on="1"/>
        <pt x="134" y="531" on="0"/>
      </contour>
      <contour>
        <pt x="221" y="436" on="1"/>
        <pt x="167" y="436" on="0"/>
        <pt x="142" y="434" on="0"/>
        <pt x="142" y="430" on="1"/>
        <pt x="142" y="95" on="1"/>
        <pt x="142" y="93" on="0"/>
        <pt x="203" y="93" on="0"/>
        <pt x="224" y="99" on="0"/>
        <pt x="241" y="114" on="0"/>
        <pt x="244" y="134" on="1"/>
        <pt x="250" y="176" on="0"/>
        <pt x="250" y="260" on="1"/>
        <pt x="250" y="436" on="0"/>
      </contour>
    </TTGlyph>
    <TTGlyph name="E" xMin="45" yMin="0" xMax="458" yMax="752">
      <contour>
        <pt x="378" y="455" on="1"/>
        <pt x="418" y="455" on="0"/>
        <pt x="418" y="419" on="1"/>
        <pt x="418" y="370" on="0"/>
        <pt x="406" y="334" on="0"/>
        <pt x="381" y="334" on="1"/>
        <pt x="185" y="334" on="1"/>
        <pt x="185" y="121" on="1"/>
        <pt x="416" y="121" on="1"/>
        <pt x="440" y="120" on="0"/>
        <pt x="458" y="103" on="0"/>
        <pt x="458" y="86" on="1"/>
        <pt x="458" y="37" on="0"/>
        <pt x="440" y="0" on="0"/>
        <pt x="413" y="0" on="1"/>
        <pt x="61" y="0" on="1"/>
        <pt x="45" y="16" on="1"/>
        <pt x="45" y="752" on="1"/>
        <pt x="400" y="752" on="1"/>
        <pt x="443" y="751" on="0"/>
        <pt x="443" y="720" on="1"/>
        <pt x="442" y="693" on="0"/>
        <pt x="438" y="662" on="0"/>
        <pt x="417" y="632" on="0"/>
        <pt x="397" y="632" on="1"/>
        <pt x="174" y="632" on="1"/>
        <pt x="185" y="455" on="1"/>
      </contour>
    </TTGlyph>
    <TTGlyph name="E_smcp" xMin="33" yMin="5" xMax="323" yMax="522">
      <contour>
        <pt x="261" y="324" on="1"/>
        <pt x="296" y="324" on="0"/>
        <pt x="296" y="292" on="1"/>
        <pt x="296" y="265" on="0"/>
        <pt x="294" y="244" on="0"/>
        <pt x="279" y="228" on="0"/>
        <pt x="263" y="228" on="1"/>
        <pt x="140" y="228" on="1"/>
        <pt x="140" y="101" on="1"/>
        <pt x="287" y="101" on="1"/>
        <pt x="307" y="100" on="0"/>
        <pt x="323" y="85" on="0"/>
        <pt x="323" y="33" on="0"/>
        <pt x="308" y="5" on="0"/>
        <pt x="285" y="5" on="1"/>
        <pt x="45" y="5" on="1"/>
        <pt x="33" y="21" on="1"/>
        <pt x="33" y="522" on="1"/>
        <pt x="276" y="522" on="1"/>
        <pt x="313" y="521" on="0"/>
        <pt x="313" y="492" on="1"/>
        <pt x="313" y="472" on="0"/>
        <pt x="310" y="449" on="0"/>
        <pt x="291" y="427" on="0"/>
        <pt x="274" y="427" on="1"/>
        <pt x="134" y="427" on="1"/>
        <pt x="140" y="324" on="1"/>
      </contour>
    </TTGlyph>
    <TTGlyph name="E_smcpacute" xMin="25" yMin="5" xMax="342" yMax="784">
      <contour>
        <pt x="182" y="552" on="1"/>
        <pt x="136" y="573" on="1"/>
        <pt x="135" y="628" on="1"/>
        <pt x="192" y="752" on="1"/>
        <pt x="234" y="784" on="1"/>
        <pt x="342" y="724" on="1"/>
      </contour>
      <contour>
        <pt x="253" y="324" on="1"/>
        <pt x="288" y="324" on="0"/>
        <pt x="288" y="292" on="1"/>
        <pt x="288" y="265" on="0"/>
        <pt x="286" y="244" on="0"/>
        <pt x="271" y="228" on="0"/>
        <pt x="255" y="228" on="1"/>
        <pt x="132" y="228" on="1"/>
        <pt x="132" y="101" on="1"/>
        <pt x="279" y="101" on="1"/>
        <pt x="299" y="100" on="0"/>
        <pt x="315" y="85" on="0"/>
        <pt x="315" y="33" on="0"/>
        <pt x="300" y="5" on="0"/>
        <pt x="277" y="5" on="1"/>
        <pt x="37" y="5" on="1"/>
        <pt x="25" y="21" on="1"/>
        <pt x="25" y="522" on="1"/>
        <pt x="268" y="522" on="1"/>
        <pt x="305" y="521" on="0"/>
        <pt x="305" y="492" on="1"/>
        <pt x="305" y="472" on="0"/>
        <pt x="302" y="449" on="0"/>
        <pt x="283" y="427" on="0"/>
        <pt x="266" y="427" on="1"/>
        <pt x="126" y="427" on="1"/>
        <pt x="132" y="324" on="1"/>
      </contour>
    </TTGlyph>
    <TTGlyph name="E_smcpcircunflex" xMin="28" yMin="5" xMax="356" yMax="768">
      <contour>
        <pt x="67" y="572" on="1"/>
        <pt x="28" y="604" on="1"/>
        <pt x="41" y="658" on="1"/>
        <pt x="143" y="748" on="1"/>
        <pt x="192" y="768" on="1"/>
        <pt x="241" y="748" on="1"/>
        <pt x="343" y="658" on="1"/>
        <pt x="356" y="604" on="1"/>
        <pt x="317" y="572" on="1"/>
        <pt x="192" y="653" on="1"/>
      </contour>
      <contour>
        <pt x="293" y="324" on="1"/>
        <pt x="328" y="324" on="0"/>
        <pt x="328" y="292" on="1"/>
        <pt x="328" y="265" on="0"/>
        <pt x="326" y="244" on="0"/>
        <pt x="311" y="228" on="0"/>
        <pt x="295" y="228" on="1"/>
        <pt x="172" y="228" on="1"/>
        <pt x="172" y="101" on="1"/>
        <pt x="319" y="101" on="1"/>
        <pt x="339" y="100" on="0"/>
        <pt x="355" y="85" on="0"/>
        <pt x="355" y="33" on="0"/>
        <pt x="340" y="5" on="0"/>
        <pt x="317" y="5" on="1"/>
        <pt x="77" y="5" on="1"/>
        <pt x="65" y="21" on="1"/>
        <pt x="65" y="522" on="1"/>
        <pt x="308" y="522" on="1"/>
        <pt x="345" y="521" on="0"/>
        <pt x="345" y="492" on="1"/>
        <pt x="345" y="472" on="0"/>
        <pt x="342" y="449" on="0"/>
        <pt x="323" y="427" on="0"/>
        <pt x="306" y="427" on="1"/>
        <pt x="166" y="427" on="1"/>
        <pt x="172" y="324" on="1"/>
      </contour>
    </TTGlyph>
    <TTGlyph name="E_smcpdieresis" xMin="34" yMin="5" xMax="412" yMax="784">
      <contour>
        <pt x="34" y="640" on="0"/>
        <pt x="34" y="784" on="0"/>
        <pt x="178" y="784" on="0"/>
        <pt x="178" y="640" on="0"/>
      </contour>
      <contour>
        <pt x="268" y="640" on="0"/>
        <pt x="268" y="784" on="0"/>
        <pt x="412" y="784" on="0"/>
        <pt x="412" y="640" on="0"/>
      </contour>
      <contour>
        <pt x="309" y="324" on="1"/>
        <pt x="344" y="324" on="0"/>
        <pt x="344" y="292" on="1"/>
        <pt x="344" y="265" on="0"/>
        <pt x="342" y="244" on="0"/>
        <pt x="327" y="228" on="0"/>
        <pt x="311" y="228" on="1"/>
        <pt x="188" y="228" on="1"/>
        <pt x="188" y="101" on="1"/>
        <pt x="335" y="101" on="1"/>
        <pt x="355" y="100" on="0"/>
        <pt x="371" y="85" on="0"/>
        <pt x="371" y="33" on="0"/>
        <pt x="356" y="5" on="0"/>
        <pt x="333" y="5" on="1"/>
        <pt x="93" y="5" on="1"/>
        <pt x="81" y="21" on="1"/>
        <pt x="81" y="522" on="1"/>
        <pt x="324" y="522" on="1"/>
        <pt x="361" y="521" on="0"/>
        <pt x="361" y="492" on="1"/>
        <pt x="361" y="472" on="0"/>
        <pt x="358" y="449" on="0"/>
        <pt x="339" y="427" on="0"/>
        <pt x="322" y="427" on="1"/>
        <pt x="182" y="427" on="1"/>
        <pt x="188" y="324" on="1"/>
      </contour>
    </TTGlyph>
    <TTGlyph name="E_smcpgrave" xMin="35" yMin="5" xMax="339" yMax="784">
      <contour>
        <pt x="241" y="573" on="1"/>
        <pt x="195" y="552" on="1"/>
        <pt x="35" y="724" on="1"/>
        <pt x="143" y="784" on="1"/>
        <pt x="185" y="752" on="1"/>
        <pt x="242" y="628" on="1"/>
      </contour>
      <contour>
        <pt x="277" y="324" on="1"/>
        <pt x="312" y="324" on="0"/>
        <pt x="312" y="292" on="1"/>
        <pt x="312" y="265" on="0"/>
        <pt x="310" y="244" on="0"/>
        <pt x="295" y="228" on="0"/>
        <pt x="279" y="228" on="1"/>
        <pt x="156" y="228" on="1"/>
        <pt x="156" y="101" on="1"/>
        <pt x="303" y="101" on="1"/>
        <pt x="323" y="100" on="0"/>
        <pt x="339" y="85" on="0"/>
        <pt x="339" y="33" on="0"/>
        <pt x="324" y="5" on="0"/>
        <pt x="301" y="5" on="1"/>
        <pt x="61" y="5" on="1"/>
        <pt x="49" y="21" on="1"/>
        <pt x="49" y="522" on="1"/>
        <pt x="292" y="522" on="1"/>
        <pt x="329" y="521" on="0"/>
        <pt x="329" y="492" on="1"/>
        <pt x="329" y="472" on="0"/>
        <pt x="326" y="449" on="0"/>
        <pt x="307" y="427" on="0"/>
        <pt x="290" y="427" on="1"/>
        <pt x="150" y="427" on="1"/>
        <pt x="156" y="324" on="1"/>
      </contour>
    </TTGlyph>
    <TTGlyph name="Eacute" xMin="29" yMin="0" xMax="442" yMax="1024">
      <contour>
        <pt x="230" y="792" on="1"/>
        <pt x="184" y="813" on="1"/>
        <pt x="183" y="868" on="1"/>
        <pt x="240" y="992" on="1"/>
        <pt x="282" y="1024" on="1"/>
        <pt x="390" y="964" on="1"/>
      </contour>
      <contour>
        <pt x="362" y="455" on="1"/>
        <pt x="402" y="455" on="0"/>
        <pt x="402" y="419" on="1"/>
        <pt x="402" y="370" on="0"/>
        <pt x="390" y="334" on="0"/>
        <pt x="365" y="334" on="1"/>
        <pt x="169" y="334" on="1"/>
        <pt x="169" y="121" on="1"/>
        <pt x="400" y="121" on="1"/>
        <pt x="424" y="120" on="0"/>
        <pt x="442" y="103" on="0"/>
        <pt x="442" y="86" on="1"/>
        <pt x="442" y="37" on="0"/>
        <pt x="424" y="0" on="0"/>
        <pt x="397" y="0" on="1"/>
        <pt x="45" y="0" on="1"/>
        <pt x="29" y="16" on="1"/>
        <pt x="29" y="752" on="1"/>
        <pt x="384" y="752" on="1"/>
        <pt x="427" y="751" on="0"/>
        <pt x="427" y="720" on="1"/>
        <pt x="426" y="693" on="0"/>
        <pt x="422" y="662" on="0"/>
        <pt x="401" y="632" on="0"/>
        <pt x="381" y="632" on="1"/>
        <pt x="158" y="632" on="1"/>
        <pt x="169" y="455" on="1"/>
      </contour>
    </TTGlyph>
    <TTGlyph name="Ecircumflex" xMin="38" yMin="0" xMax="451" yMax="1024">
      <contour>
        <pt x="110" y="828" on="1"/>
        <pt x="71" y="860" on="1"/>
        <pt x="84" y="914" on="1"/>
        <pt x="186" y="1004" on="1"/>
        <pt x="235" y="1024" on="1"/>
        <pt x="284" y="1004" on="1"/>
        <pt x="386" y="914" on="1"/>
        <pt x="399" y="860" on="1"/>
        <pt x="360" y="828" on="1"/>
        <pt x="235" y="909" on="1"/>
      </contour>
      <contour>
        <pt x="371" y="455" on="1"/>
        <pt x="411" y="455" on="0"/>
        <pt x="411" y="419" on="1"/>
        <pt x="411" y="370" on="0"/>
        <pt x="399" y="334" on="0"/>
        <pt x="374" y="334" on="1"/>
        <pt x="178" y="334" on="1"/>
        <pt x="178" y="121" on="1"/>
        <pt x="409" y="121" on="1"/>
        <pt x="433" y="120" on="0"/>
        <pt x="451" y="103" on="0"/>
        <pt x="451" y="86" on="1"/>
        <pt x="451" y="37" on="0"/>
        <pt x="433" y="0" on="0"/>
        <pt x="406" y="0" on="1"/>
        <pt x="54" y="0" on="1"/>
        <pt x="38" y="16" on="1"/>
        <pt x="38" y="752" on="1"/>
        <pt x="393" y="752" on="1"/>
        <pt x="436" y="751" on="0"/>
        <pt x="436" y="720" on="1"/>
        <pt x="435" y="693" on="0"/>
        <pt x="431" y="662" on="0"/>
        <pt x="410" y="632" on="0"/>
        <pt x="390" y="632" on="1"/>
        <pt x="167" y="632" on="1"/>
        <pt x="178" y="455" on="1"/>
      </contour>
    </TTGlyph>
    <TTGlyph name="Edieresis" xMin="41" yMin="0" xMax="454" yMax="1024">
      <contour>
        <pt x="48" y="880" on="0"/>
        <pt x="48" y="1024" on="0"/>
        <pt x="192" y="1024" on="0"/>
        <pt x="192" y="880" on="0"/>
      </contour>
      <contour>
        <pt x="282" y="880" on="0"/>
        <pt x="282" y="1024" on="0"/>
        <pt x="426" y="1024" on="0"/>
        <pt x="426" y="880" on="0"/>
      </contour>
      <contour>
        <pt x="374" y="455" on="1"/>
        <pt x="414" y="455" on="0"/>
        <pt x="414" y="419" on="1"/>
        <pt x="414" y="370" on="0"/>
        <pt x="402" y="334" on="0"/>
        <pt x="377" y="334" on="1"/>
        <pt x="181" y="334" on="1"/>
        <pt x="181" y="121" on="1"/>
        <pt x="412" y="121" on="1"/>
        <pt x="436" y="120" on="0"/>
        <pt x="454" y="103" on="0"/>
        <pt x="454" y="86" on="1"/>
        <pt x="454" y="37" on="0"/>
        <pt x="436" y="0" on="0"/>
        <pt x="409" y="0" on="1"/>
        <pt x="57" y="0" on="1"/>
        <pt x="41" y="16" on="1"/>
        <pt x="41" y="752" on="1"/>
        <pt x="396" y="752" on="1"/>
        <pt x="439" y="751" on="0"/>
        <pt x="439" y="720" on="1"/>
        <pt x="438" y="693" on="0"/>
        <pt x="434" y="662" on="0"/>
        <pt x="413" y="632" on="0"/>
        <pt x="393" y="632" on="1"/>
        <pt x="170" y="632" on="1"/>
        <pt x="181" y="455" on="1"/>
      </contour>
    </TTGlyph>
    <TTGlyph name="Egrave" xMin="45" yMin="0" xMax="458" yMax="1024">
      <contour>
        <pt x="271" y="813" on="1"/>
        <pt x="225" y="792" on="1"/>
        <pt x="65" y="964" on="1"/>
        <pt x="173" y="1024" on="1"/>
        <pt x="215" y="992" on="1"/>
        <pt x="272" y="868" on="1"/>
      </contour>
      <contour>
        <pt x="378" y="455" on="1"/>
        <pt x="418" y="455" on="0"/>
        <pt x="418" y="419" on="1"/>
        <pt x="418" y="370" on="0"/>
        <pt x="406" y="334" on="0"/>
        <pt x="381" y="334" on="1"/>
        <pt x="185" y="334" on="1"/>
        <pt x="185" y="121" on="1"/>
        <pt x="416" y="121" on="1"/>
        <pt x="440" y="120" on="0"/>
        <pt x="458" y="103" on="0"/>
        <pt x="458" y="86" on="1"/>
        <pt x="458" y="37" on="0"/>
        <pt x="440" y="0" on="0"/>
        <pt x="413" y="0" on="1"/>
        <pt x="61" y="0" on="1"/>
        <pt x="45" y="16" on="1"/>
        <pt x="45" y="752" on="1"/>
        <pt x="400" y="752" on="1"/>
        <pt x="443" y="751" on="0"/>
        <pt x="443" y="720" on="1"/>
        <pt x="442" y="693" on="0"/>
        <pt x="438" y="662" on="0"/>
        <pt x="417" y="632" on="0"/>
        <pt x="397" y="632" on="1"/>
        <pt x="174" y="632" on="1"/>
        <pt x="185" y="455" on="1"/>
      </contour>
    </TTGlyph>
    <TTGlyph name="Eth" xMin="45" yMin="-16" xMax="535" yMax="768">
      <contour>
        <pt x="264" y="768" on="1"/>
        <pt x="373" y="768" on="0"/>
        <pt x="485" y="706" on="0"/>
        <pt x="535" y="543" on="0"/>
        <pt x="535" y="383" on="1"/>
        <pt x="535" y="161" on="0"/>
        <pt x="419" y="-16" on="0"/>
        <pt x="264" y="-16" on="1"/>
        <pt x="226" y="-16" on="0"/>
        <pt x="45" y="0" on="1"/>
        <pt x="45" y="751" on="1"/>
        <pt x="197" y="768" on="0"/>
      </contour>
      <contour>
        <pt x="310" y="419" on="1"/>
        <pt x="310" y="370" on="0"/>
        <pt x="298" y="334" on="0"/>
        <pt x="273" y="334" on="1"/>
        <pt x="186" y="334" on="1"/>
        <pt x="186" y="124" on="1"/>
        <pt x="186" y="113" on="0"/>
        <pt x="213" y="109" on="0"/>
        <pt x="296" y="109" on="0"/>
        <pt x="330" y="118" on="0"/>
        <pt x="359" y="141" on="0"/>
        <pt x="364" y="174" on="1"/>
        <pt x="374" y="238" on="0"/>
        <pt x="374" y="372" on="1"/>
        <pt x="374" y="649" on="0"/>
        <pt x="317" y="649" on="1"/>
        <pt x="230" y="649" on="0"/>
        <pt x="186" y="642" on="0"/>
        <pt x="186" y="626" on="1"/>
        <pt x="186" y="455" on="1"/>
        <pt x="274" y="455" on="1"/>
        <pt x="310" y="453" on="0"/>
      </contour>
    </TTGlyph>
    <TTGlyph name="Euro" xMin="23" yMin="-16" xMax="522" yMax="768">
      <contour>
        <pt x="451" y="410" on="1"/>
        <pt x="39" y="410" on="1"/>
        <pt x="23" y="426" on="1"/>
        <pt x="23" y="534" on="1"/>
        <pt x="95" y="534" on="1"/>
        <pt x="111" y="667" on="0"/>
        <pt x="226" y="768" on="0"/>
        <pt x="462" y="768" on="0"/>
        <pt x="512" y="734" on="1"/>
        <pt x="522" y="727" on="0"/>
        <pt x="522" y="707" on="0"/>
        <pt x="503" y="652" on="0"/>
        <pt x="486" y="629" on="0"/>
        <pt x="468" y="629" on="0"/>
        <pt x="463" y="630" on="1"/>
        <pt x="388" y="645" on="0"/>
        <pt x="330" y="645" on="1"/>
        <pt x="296" y="645" on="0"/>
        <pt x="260" y="592" on="0"/>
        <pt x="253" y="534" on="1"/>
        <pt x="435" y="534" on="1"/>
        <pt x="451" y="518" on="1"/>
      </contour>
      <contour>
        <pt x="451" y="196" on="1"/>
        <pt x="254" y="196" on="1"/>
        <pt x="261" y="144" on="0"/>
        <pt x="299" y="108" on="0"/>
        <pt x="381" y="108" on="0"/>
        <pt x="486" y="118" on="0"/>
        <pt x="488" y="118" on="1"/>
        <pt x="513" y="118" on="0"/>
        <pt x="513" y="54" on="0"/>
        <pt x="512" y="38" on="1"/>
        <pt x="508" y="2" on="0"/>
        <pt x="480" y="-3" on="1"/>
        <pt x="391" y="-16" on="0"/>
        <pt x="348" y="-16" on="1"/>
        <pt x="232" y="-16" on="0"/>
        <pt x="117" y="80" on="0"/>
        <pt x="98" y="196" on="1"/>
        <pt x="39" y="196" on="1"/>
        <pt x="23" y="212" on="1"/>
        <pt x="23" y="320" on="1"/>
        <pt x="435" y="320" on="1"/>
        <pt x="451" y="304" on="1"/>
      </contour>
    </TTGlyph>
    <TTGlyph name="F" xMin="45" yMin="-16" xMax="444" yMax="752">
      <contour>
        <pt x="45" y="0" on="1"/>
        <pt x="45" y="752" on="1"/>
        <pt x="390" y="752" on="1"/>
        <pt x="443" y="751" on="0"/>
        <pt x="443" y="723" on="1"/>
        <pt x="443" y="672" on="0"/>
        <pt x="421" y="632" on="0"/>
        <pt x="385" y="632" on="1"/>
        <pt x="173" y="632" on="1"/>
        <pt x="183" y="455" on="1"/>
        <pt x="392" y="455" on="1"/>
        <pt x="433" y="455" on="0"/>
        <pt x="433" y="423" on="1"/>
        <pt x="433" y="371" on="0"/>
        <pt x="415" y="334" on="0"/>
        <pt x="386" y="334" on="1"/>
        <pt x="185" y="334" on="1"/>
        <pt x="185" y="0" on="1"/>
        <pt x="185" y="-6" on="0"/>
        <pt x="184" y="-8" on="1"/>
        <pt x="179" y="-16" on="0"/>
        <pt x="112" y="-16" on="0"/>
        <pt x="45" y="-6" on="0"/>
      </contour>
    </TTGlyph>
    <TTGlyph name="F_i" xMin="45" yMin="-16" xMax="474" yMax="752">
      <contour>
        <pt x="327" y="0" on="1"/>
        <pt x="327" y="334" on="1"/>
        <pt x="185" y="334" on="1"/>
        <pt x="185" y="0" on="1"/>
        <pt x="185" y="-6" on="0"/>
        <pt x="184" y="-8" on="1"/>
        <pt x="179" y="-16" on="0"/>
        <pt x="112" y="-16" on="0"/>
        <pt x="45" y="-6" on="0"/>
        <pt x="45" y="0" on="1"/>
        <pt x="45" y="752" on="1"/>
        <pt x="420" y="752" on="1"/>
        <pt x="473" y="751" on="0"/>
        <pt x="473" y="723" on="1"/>
        <pt x="473" y="672" on="0"/>
        <pt x="451" y="632" on="0"/>
        <pt x="415" y="632" on="1"/>
        <pt x="173" y="632" on="1"/>
        <pt x="183" y="455" on="1"/>
        <pt x="422" y="455" on="1"/>
        <pt x="463" y="455" on="0"/>
        <pt x="463" y="423" on="1"/>
        <pt x="463" y="0" on="1"/>
        <pt x="463" y="-6" on="0"/>
        <pt x="462" y="-8" on="1"/>
        <pt x="457" y="-16" on="0"/>
        <pt x="391" y="-16" on="0"/>
        <pt x="327" y="-6" on="0"/>
      </contour>
    </TTGlyph>
    <TTGlyph name="F_iacute" xMin="45" yMin="-16" xMax="563" yMax="752">
      <contour>
        <pt x="45" y="0" on="1"/>
        <pt x="45" y="752" on="1"/>
        <pt x="428" y="752" on="1"/>
        <pt x="447" y="751" on="0"/>
        <pt x="494" y="731" on="0"/>
        <pt x="563" y="692" on="1"/>
        <pt x="420" y="533" on="1"/>
        <pt x="374" y="554" on="1"/>
        <pt x="373" y="609" on="1"/>
        <pt x="383" y="632" on="1"/>
        <pt x="173" y="632" on="1"/>
        <pt x="183" y="455" on="1"/>
        <pt x="364" y="455" on="1"/>
        <pt x="400" y="455" on="0"/>
        <pt x="460" y="439" on="0"/>
        <pt x="460" y="424" on="1"/>
        <pt x="460" y="0" on="1"/>
        <pt x="460" y="-6" on="0"/>
        <pt x="458" y="-8" on="1"/>
        <pt x="454" y="-16" on="0"/>
        <pt x="388" y="-16" on="0"/>
        <pt x="324" y="-6" on="0"/>
        <pt x="324" y="0" on="1"/>
        <pt x="324" y="334" on="1"/>
        <pt x="185" y="334" on="1"/>
        <pt x="185" y="0" on="1"/>
        <pt x="185" y="-6" on="0"/>
        <pt x="184" y="-8" on="1"/>
        <pt x="179" y="-16" on="0"/>
        <pt x="112" y="-16" on="0"/>
        <pt x="45" y="-6" on="0"/>
      </contour>
    </TTGlyph>
    <TTGlyph name="F_igrave" xMin="45" yMin="-16" xMax="460" yMax="752">
      <contour>
        <pt x="460" y="423" on="1"/>
        <pt x="460" y="0" on="1"/>
        <pt x="460" y="-6" on="0"/>
        <pt x="458" y="-8" on="1"/>
        <pt x="454" y="-16" on="0"/>
        <pt x="388" y="-16" on="0"/>
        <pt x="324" y="-6" on="0"/>
        <pt x="324" y="0" on="1"/>
        <pt x="324" y="334" on="1"/>
        <pt x="185" y="334" on="1"/>
        <pt x="185" y="0" on="1"/>
        <pt x="185" y="-6" on="0"/>
        <pt x="184" y="-8" on="1"/>
        <pt x="179" y="-16" on="0"/>
        <pt x="112" y="-16" on="0"/>
        <pt x="45" y="-6" on="0"/>
        <pt x="45" y="0" on="1"/>
        <pt x="45" y="752" on="1"/>
        <pt x="292" y="752" on="1"/>
        <pt x="320" y="751" on="0"/>
        <pt x="359" y="705" on="0"/>
        <pt x="405" y="609" on="1"/>
        <pt x="404" y="554" on="1"/>
        <pt x="358" y="533" on="1"/>
        <pt x="265" y="632" on="1"/>
        <pt x="173" y="632" on="1"/>
        <pt x="183" y="455" on="1"/>
        <pt x="376" y="455" on="1"/>
        <pt x="460" y="453" on="0"/>
      </contour>
    </TTGlyph>
    <TTGlyph name="F_smcp" xMin="33" yMin="-6" xMax="314" yMax="522">
      <contour>
        <pt x="33" y="13" on="1"/>
        <pt x="33" y="522" on="1"/>
        <pt x="269" y="522" on="1"/>
        <pt x="296" y="521" on="0"/>
        <pt x="313" y="509" on="0"/>
        <pt x="313" y="496" on="1"/>
        <pt x="313" y="455" on="0"/>
        <pt x="296" y="427" on="0"/>
        <pt x="266" y="427" on="1"/>
        <pt x="134" y="427" on="1"/>
        <pt x="138" y="324" on="1"/>
        <pt x="271" y="324" on="1"/>
        <pt x="306" y="324" on="0"/>
        <pt x="306" y="294" on="1"/>
        <pt x="306" y="255" on="0"/>
        <pt x="291" y="228" on="0"/>
        <pt x="266" y="228" on="1"/>
        <pt x="140" y="228" on="1"/>
        <pt x="140" y="13" on="1"/>
        <pt x="140" y="6" on="0"/>
        <pt x="139" y="3" on="1"/>
        <pt x="136" y="-6" on="0"/>
        <pt x="82" y="-6" on="0"/>
        <pt x="33" y="6" on="0"/>
      </contour>
    </TTGlyph>
    <TTGlyph name="G" xMin="36" yMin="-16" xMax="512" yMax="768">
      <contour>
        <pt x="298" y="-16" on="1"/>
        <pt x="149" y="-16" on="0"/>
        <pt x="36" y="152" on="0"/>
        <pt x="36" y="371" on="1"/>
        <pt x="36" y="530" on="0"/>
        <pt x="86" y="700" on="0"/>
        <pt x="195" y="768" on="0"/>
        <pt x="395" y="768" on="0"/>
        <pt x="449" y="741" on="1"/>
        <pt x="471" y="730" on="0"/>
        <pt x="471" y="711" on="1"/>
        <pt x="471" y="705" on="0"/>
        <pt x="452" y="649" on="0"/>
        <pt x="435" y="629" on="0"/>
        <pt x="415" y="629" on="0"/>
        <pt x="324" y="645" on="0"/>
        <pt x="260" y="645" on="0"/>
        <pt x="232" y="633" on="0"/>
        <pt x="214" y="600" on="0"/>
        <pt x="203" y="563" on="0"/>
        <pt x="200" y="528" on="1"/>
        <pt x="196" y="481" on="0"/>
        <pt x="196" y="204" on="0"/>
        <pt x="229" y="108" on="0"/>
        <pt x="289" y="108" on="1"/>
        <pt x="371" y="113" on="1"/>
        <pt x="371" y="331" on="1"/>
        <pt x="372" y="351" on="0"/>
        <pt x="397" y="364" on="0"/>
        <pt x="461" y="365" on="0"/>
        <pt x="493" y="348" on="0"/>
        <pt x="495" y="322" on="1"/>
        <pt x="512" y="126" on="1"/>
        <pt x="512" y="0" on="1"/>
        <pt x="385" y="-16" on="0"/>
      </contour>
    </TTGlyph>
    <TTGlyph name="G_smcp" xMin="26" yMin="-6" xMax="357" yMax="531">
      <contour>
        <pt x="26" y="420" on="0"/>
        <pt x="102" y="531" on="0"/>
        <pt x="332" y="531" on="0"/>
        <pt x="332" y="487" on="1"/>
        <pt x="332" y="482" on="0"/>
        <pt x="317" y="440" on="0"/>
        <pt x="303" y="424" on="0"/>
        <pt x="285" y="424" on="0"/>
        <pt x="228" y="433" on="0"/>
        <pt x="163" y="433" on="0"/>
        <pt x="147" y="361" on="0"/>
        <pt x="147" y="153" on="0"/>
        <pt x="166" y="92" on="0"/>
        <pt x="202" y="92" on="1"/>
        <pt x="247" y="96" on="1"/>
        <pt x="247" y="234" on="1"/>
        <pt x="248" y="262" on="0"/>
        <pt x="295" y="263" on="1"/>
        <pt x="320" y="263" on="0"/>
        <pt x="344" y="249" on="0"/>
        <pt x="346" y="228" on="1"/>
        <pt x="357" y="96" on="1"/>
        <pt x="357" y="5" on="1"/>
        <pt x="270" y="-6" on="0"/>
        <pt x="208" y="-6" on="1"/>
        <pt x="104" y="-6" on="0"/>
        <pt x="26" y="108" on="0"/>
      </contour>
    </TTGlyph>
    <TTGlyph name="H" xMin="45" yMin="-16" xMax="489" yMax="768">
      <contour>
        <pt x="348" y="734" on="1"/>
        <pt x="348" y="755" on="0"/>
        <pt x="367" y="768" on="0"/>
        <pt x="397" y="768" on="1"/>
        <pt x="469" y="768" on="0"/>
        <pt x="470" y="731" on="1"/>
        <pt x="489" y="431" on="1"/>
        <pt x="489" y="21" on="1"/>
        <pt x="489" y="4" on="0"/>
        <pt x="488" y="-2" on="1"/>
        <pt x="484" y="-16" on="0"/>
        <pt x="449" y="-16" on="1"/>
        <pt x="348" y="-16" on="0"/>
        <pt x="348" y="20" on="1"/>
        <pt x="348" y="310" on="1"/>
        <pt x="184" y="310" on="1"/>
        <pt x="185" y="21" on="1"/>
        <pt x="185" y="4" on="0"/>
        <pt x="184" y="-2" on="1"/>
        <pt x="180" y="-16" on="0"/>
        <pt x="145" y="-16" on="1"/>
        <pt x="45" y="-16" on="0"/>
        <pt x="45" y="22" on="1"/>
        <pt x="45" y="733" on="1"/>
        <pt x="45" y="755" on="0"/>
        <pt x="64" y="768" on="0"/>
        <pt x="94" y="768" on="1"/>
        <pt x="166" y="768" on="0"/>
        <pt x="167" y="733" on="1"/>
        <pt x="184" y="430" on="1"/>
        <pt x="348" y="430" on="1"/>
      </contour>
    </TTGlyph>
    <TTGlyph name="H_smcp" xMin="33" yMin="-6" xMax="343" yMax="531">
      <contour>
        <pt x="234" y="502" on="1"/>
        <pt x="234" y="521" on="0"/>
        <pt x="249" y="531" on="0"/>
        <pt x="274" y="531" on="1"/>
        <pt x="330" y="531" on="0"/>
        <pt x="332" y="500" on="1"/>
        <pt x="343" y="300" on="1"/>
        <pt x="343" y="27" on="1"/>
        <pt x="343" y="6" on="0"/>
        <pt x="333" y="-6" on="0"/>
        <pt x="309" y="-6" on="1"/>
        <pt x="234" y="-6" on="0"/>
        <pt x="234" y="26" on="1"/>
        <pt x="234" y="212" on="1"/>
        <pt x="141" y="212" on="1"/>
        <pt x="142" y="27" on="1"/>
        <pt x="142" y="6" on="0"/>
        <pt x="132" y="-6" on="0"/>
        <pt x="107" y="-6" on="1"/>
        <pt x="33" y="-6" on="0"/>
        <pt x="33" y="28" on="1"/>
        <pt x="33" y="501" on="1"/>
        <pt x="33" y="520" on="0"/>
        <pt x="48" y="531" on="0"/>
        <pt x="72" y="531" on="1"/>
        <pt x="129" y="531" on="0"/>
        <pt x="130" y="501" on="1"/>
        <pt x="141" y="307" on="1"/>
        <pt x="234" y="307" on="1"/>
      </contour>
    </TTGlyph>
    <TTGlyph name="I" xMin="30" yMin="0" xMax="301" yMax="752">
      <contour>
        <pt x="59" y="121" on="1"/>
        <pt x="95" y="121" on="1"/>
        <pt x="95" y="632" on="1"/>
        <pt x="65" y="632" on="1"/>
        <pt x="45" y="633" on="0"/>
        <pt x="38" y="645" on="1"/>
        <pt x="31" y="659" on="0"/>
        <pt x="31" y="696" on="1"/>
        <pt x="31" y="752" on="0"/>
        <pt x="64" y="752" on="1"/>
        <pt x="241" y="752" on="1"/>
        <pt x="285" y="752" on="0"/>
        <pt x="285" y="721" on="1"/>
        <pt x="285" y="632" on="0"/>
        <pt x="250" y="632" on="1"/>
        <pt x="225" y="632" on="1"/>
        <pt x="235" y="432" on="1"/>
        <pt x="236" y="121" on="1"/>
        <pt x="266" y="121" on="1"/>
        <pt x="301" y="120" on="0"/>
        <pt x="301" y="89" on="1"/>
        <pt x="299" y="0" on="0"/>
        <pt x="252" y="0" on="1"/>
        <pt x="63" y="0" on="1"/>
        <pt x="45" y="1" on="0"/>
        <pt x="38" y="13" on="1"/>
        <pt x="31" y="27" on="0"/>
        <pt x="31" y="65" on="1"/>
        <pt x="31" y="121" on="0"/>
      </contour>
    </TTGlyph>
    <TTGlyph name="I_smcp" xMin="20" yMin="5" xMax="217" yMax="522">
      <contour>
        <pt x="51" y="5" on="1"/>
        <pt x="21" y="5" on="0"/>
        <pt x="21" y="101" on="0"/>
        <pt x="48" y="101" on="1"/>
        <pt x="65" y="101" on="1"/>
        <pt x="65" y="427" on="1"/>
        <pt x="52" y="427" on="1"/>
        <pt x="34" y="427" on="0"/>
        <pt x="28" y="436" on="1"/>
        <pt x="21" y="447" on="0"/>
        <pt x="21" y="477" on="1"/>
        <pt x="21" y="522" on="0"/>
        <pt x="52" y="522" on="1"/>
        <pt x="170" y="522" on="1"/>
        <pt x="206" y="522" on="0"/>
        <pt x="206" y="493" on="1"/>
        <pt x="206" y="427" on="0"/>
        <pt x="176" y="427" on="1"/>
        <pt x="167" y="427" on="1"/>
        <pt x="174" y="101" on="1"/>
        <pt x="187" y="101" on="1"/>
        <pt x="217" y="98" on="0"/>
        <pt x="217" y="71" on="1"/>
        <pt x="215" y="5" on="0"/>
        <pt x="177" y="5" on="1"/>
      </contour>
    </TTGlyph>
    <TTGlyph name="I_smcpacute" xMin="20" yMin="5" xMax="285" yMax="784">
      <contour>
        <pt x="125" y="552" on="1"/>
        <pt x="79" y="573" on="1"/>
        <pt x="78" y="628" on="1"/>
        <pt x="135" y="752" on="1"/>
        <pt x="177" y="784" on="1"/>
        <pt x="285" y="724" on="1"/>
      </contour>
      <contour>
        <pt x="51" y="5" on="1"/>
        <pt x="21" y="5" on="0"/>
        <pt x="21" y="101" on="0"/>
        <pt x="48" y="101" on="1"/>
        <pt x="65" y="101" on="1"/>
        <pt x="65" y="427" on="1"/>
        <pt x="52" y="427" on="1"/>
        <pt x="34" y="427" on="0"/>
        <pt x="28" y="436" on="1"/>
        <pt x="21" y="447" on="0"/>
        <pt x="21" y="477" on="1"/>
        <pt x="21" y="522" on="0"/>
        <pt x="52" y="522" on="1"/>
        <pt x="170" y="522" on="1"/>
        <pt x="206" y="522" on="0"/>
        <pt x="206" y="493" on="1"/>
        <pt x="206" y="427" on="0"/>
        <pt x="176" y="427" on="1"/>
        <pt x="167" y="427" on="1"/>
        <pt x="174" y="101" on="1"/>
        <pt x="187" y="101" on="1"/>
        <pt x="217" y="98" on="0"/>
        <pt x="217" y="71" on="1"/>
        <pt x="215" y="5" on="0"/>
        <pt x="177" y="5" on="1"/>
      </contour>
    </TTGlyph>
    <TTGlyph name="I_smcpcircunflex" xMin="18" yMin="5" xMax="346" yMax="784">
      <contour>
        <pt x="57" y="588" on="1"/>
        <pt x="18" y="620" on="1"/>
        <pt x="31" y="674" on="1"/>
        <pt x="133" y="764" on="1"/>
        <pt x="182" y="784" on="1"/>
        <pt x="231" y="764" on="1"/>
        <pt x="333" y="674" on="1"/>
        <pt x="346" y="620" on="1"/>
        <pt x="307" y="588" on="1"/>
        <pt x="182" y="669" on="1"/>
      </contour>
      <contour>
        <pt x="123" y="5" on="1"/>
        <pt x="93" y="5" on="0"/>
        <pt x="93" y="101" on="0"/>
        <pt x="120" y="101" on="1"/>
        <pt x="137" y="101" on="1"/>
        <pt x="137" y="427" on="1"/>
        <pt x="124" y="427" on="1"/>
        <pt x="106" y="427" on="0"/>
        <pt x="100" y="436" on="1"/>
        <pt x="93" y="447" on="0"/>
        <pt x="93" y="477" on="1"/>
        <pt x="93" y="522" on="0"/>
        <pt x="124" y="522" on="1"/>
        <pt x="242" y="522" on="1"/>
        <pt x="278" y="522" on="0"/>
        <pt x="278" y="493" on="1"/>
        <pt x="278" y="427" on="0"/>
        <pt x="248" y="427" on="1"/>
        <pt x="239" y="427" on="1"/>
        <pt x="246" y="101" on="1"/>
        <pt x="259" y="101" on="1"/>
        <pt x="289" y="98" on="0"/>
        <pt x="289" y="71" on="1"/>
        <pt x="287" y="5" on="0"/>
        <pt x="249" y="5" on="1"/>
      </contour>
    </TTGlyph>
    <TTGlyph name="I_smcpdieresis" xMin="-18" yMin="5" xMax="360" yMax="784">
      <contour>
        <pt x="-18" y="640" on="0"/>
        <pt x="-18" y="784" on="0"/>
        <pt x="126" y="784" on="0"/>
        <pt x="126" y="640" on="0"/>
      </contour>
      <contour>
        <pt x="216" y="640" on="0"/>
        <pt x="216" y="784" on="0"/>
        <pt x="360" y="784" on="0"/>
        <pt x="360" y="640" on="0"/>
      </contour>
      <contour>
        <pt x="102" y="5" on="1"/>
        <pt x="72" y="5" on="0"/>
        <pt x="72" y="101" on="0"/>
        <pt x="99" y="101" on="1"/>
        <pt x="116" y="101" on="1"/>
        <pt x="116" y="427" on="1"/>
        <pt x="103" y="427" on="1"/>
        <pt x="85" y="427" on="0"/>
        <pt x="79" y="436" on="1"/>
        <pt x="72" y="447" on="0"/>
        <pt x="72" y="477" on="1"/>
        <pt x="72" y="522" on="0"/>
        <pt x="103" y="522" on="1"/>
        <pt x="221" y="522" on="1"/>
        <pt x="257" y="522" on="0"/>
        <pt x="257" y="493" on="1"/>
        <pt x="257" y="427" on="0"/>
        <pt x="227" y="427" on="1"/>
        <pt x="218" y="427" on="1"/>
        <pt x="225" y="101" on="1"/>
        <pt x="238" y="101" on="1"/>
        <pt x="268" y="98" on="0"/>
        <pt x="268" y="71" on="1"/>
        <pt x="266" y="5" on="0"/>
        <pt x="228" y="5" on="1"/>
      </contour>
    </TTGlyph>
    <TTGlyph name="I_smcpgrave" xMin="-15" yMin="5" xMax="265" yMax="784">
      <contour>
        <pt x="191" y="573" on="1"/>
        <pt x="145" y="552" on="1"/>
        <pt x="-15" y="724" on="1"/>
        <pt x="93" y="784" on="1"/>
        <pt x="135" y="752" on="1"/>
        <pt x="192" y="628" on="1"/>
      </contour>
      <contour>
        <pt x="99" y="5" on="1"/>
        <pt x="69" y="5" on="0"/>
        <pt x="69" y="101" on="0"/>
        <pt x="96" y="101" on="1"/>
        <pt x="113" y="101" on="1"/>
        <pt x="113" y="427" on="1"/>
        <pt x="100" y="427" on="1"/>
        <pt x="82" y="427" on="0"/>
        <pt x="76" y="436" on="1"/>
        <pt x="69" y="447" on="0"/>
        <pt x="69" y="477" on="1"/>
        <pt x="69" y="522" on="0"/>
        <pt x="100" y="522" on="1"/>
        <pt x="218" y="522" on="1"/>
        <pt x="254" y="522" on="0"/>
        <pt x="254" y="493" on="1"/>
        <pt x="254" y="427" on="0"/>
        <pt x="224" y="427" on="1"/>
        <pt x="215" y="427" on="1"/>
        <pt x="222" y="101" on="1"/>
        <pt x="235" y="101" on="1"/>
        <pt x="265" y="98" on="0"/>
        <pt x="265" y="71" on="1"/>
        <pt x="263" y="5" on="0"/>
        <pt x="225" y="5" on="1"/>
      </contour>
    </TTGlyph>
    <TTGlyph name="Iacute" xMin="8" yMin="0" xMax="316" yMax="1024">
      <contour>
        <pt x="156" y="792" on="1"/>
        <pt x="110" y="813" on="1"/>
        <pt x="109" y="868" on="1"/>
        <pt x="166" y="992" on="1"/>
        <pt x="208" y="1024" on="1"/>
        <pt x="316" y="964" on="1"/>
      </contour>
      <contour>
        <pt x="37" y="121" on="1"/>
        <pt x="73" y="121" on="1"/>
        <pt x="73" y="632" on="1"/>
        <pt x="43" y="632" on="1"/>
        <pt x="23" y="633" on="0"/>
        <pt x="16" y="645" on="1"/>
        <pt x="9" y="659" on="0"/>
        <pt x="9" y="696" on="1"/>
        <pt x="9" y="752" on="0"/>
        <pt x="42" y="752" on="1"/>
        <pt x="219" y="752" on="1"/>
        <pt x="263" y="752" on="0"/>
        <pt x="263" y="721" on="1"/>
        <pt x="263" y="632" on="0"/>
        <pt x="228" y="632" on="1"/>
        <pt x="203" y="632" on="1"/>
        <pt x="213" y="432" on="1"/>
        <pt x="214" y="121" on="1"/>
        <pt x="244" y="121" on="1"/>
        <pt x="279" y="120" on="0"/>
        <pt x="279" y="89" on="1"/>
        <pt x="277" y="0" on="0"/>
        <pt x="230" y="0" on="1"/>
        <pt x="41" y="0" on="1"/>
        <pt x="23" y="1" on="0"/>
        <pt x="16" y="13" on="1"/>
        <pt x="9" y="27" on="0"/>
        <pt x="9" y="65" on="1"/>
        <pt x="9" y="121" on="0"/>
      </contour>
    </TTGlyph>
    <TTGlyph name="Icircumflex" xMin="23" yMin="0" xMax="351" yMax="1024">
      <contour>
        <pt x="62" y="828" on="1"/>
        <pt x="23" y="860" on="1"/>
        <pt x="36" y="914" on="1"/>
        <pt x="138" y="1004" on="1"/>
        <pt x="187" y="1024" on="1"/>
        <pt x="236" y="1004" on="1"/>
        <pt x="338" y="914" on="1"/>
        <pt x="351" y="860" on="1"/>
        <pt x="312" y="828" on="1"/>
        <pt x="187" y="909" on="1"/>
      </contour>
      <contour>
        <pt x="86" y="121" on="1"/>
        <pt x="122" y="121" on="1"/>
        <pt x="122" y="632" on="1"/>
        <pt x="92" y="632" on="1"/>
        <pt x="72" y="633" on="0"/>
        <pt x="66" y="645" on="1"/>
        <pt x="58" y="659" on="0"/>
        <pt x="58" y="696" on="1"/>
        <pt x="58" y="752" on="0"/>
        <pt x="91" y="752" on="1"/>
        <pt x="268" y="752" on="1"/>
        <pt x="312" y="752" on="0"/>
        <pt x="312" y="721" on="1"/>
        <pt x="312" y="632" on="0"/>
        <pt x="277" y="632" on="1"/>
        <pt x="252" y="632" on="1"/>
        <pt x="262" y="432" on="1"/>
        <pt x="263" y="121" on="1"/>
        <pt x="293" y="121" on="1"/>
        <pt x="328" y="120" on="0"/>
        <pt x="328" y="89" on="1"/>
        <pt x="326" y="0" on="0"/>
        <pt x="279" y="0" on="1"/>
        <pt x="90" y="0" on="1"/>
        <pt x="72" y="1" on="0"/>
        <pt x="66" y="13" on="1"/>
        <pt x="58" y="27" on="0"/>
        <pt x="58" y="65" on="1"/>
        <pt x="58" y="121" on="0"/>
      </contour>
    </TTGlyph>
    <TTGlyph name="Idieresis" xMin="21" yMin="0" xMax="399" yMax="1024">
      <contour>
        <pt x="21" y="880" on="0"/>
        <pt x="21" y="1024" on="0"/>
        <pt x="165" y="1024" on="0"/>
        <pt x="165" y="880" on="0"/>
      </contour>
      <contour>
        <pt x="255" y="880" on="0"/>
        <pt x="255" y="1024" on="0"/>
        <pt x="399" y="1024" on="0"/>
        <pt x="399" y="880" on="0"/>
      </contour>
      <contour>
        <pt x="130" y="121" on="1"/>
        <pt x="166" y="121" on="1"/>
        <pt x="166" y="632" on="1"/>
        <pt x="136" y="632" on="1"/>
        <pt x="116" y="633" on="0"/>
        <pt x="110" y="645" on="1"/>
        <pt x="102" y="659" on="0"/>
        <pt x="102" y="696" on="1"/>
        <pt x="102" y="752" on="0"/>
        <pt x="135" y="752" on="1"/>
        <pt x="312" y="752" on="1"/>
        <pt x="356" y="752" on="0"/>
        <pt x="356" y="721" on="1"/>
        <pt x="356" y="632" on="0"/>
        <pt x="321" y="632" on="1"/>
        <pt x="296" y="632" on="1"/>
        <pt x="306" y="432" on="1"/>
        <pt x="307" y="121" on="1"/>
        <pt x="337" y="121" on="1"/>
        <pt x="372" y="120" on="0"/>
        <pt x="372" y="89" on="1"/>
        <pt x="370" y="0" on="0"/>
        <pt x="323" y="0" on="1"/>
        <pt x="134" y="0" on="1"/>
        <pt x="116" y="1" on="0"/>
        <pt x="110" y="13" on="1"/>
        <pt x="102" y="27" on="0"/>
        <pt x="102" y="65" on="1"/>
        <pt x="102" y="121" on="0"/>
      </contour>
    </TTGlyph>
    <TTGlyph name="Igrave" xMin="19" yMin="0" xMax="333" yMax="1024">
      <contour>
        <pt x="225" y="813" on="1"/>
        <pt x="179" y="792" on="1"/>
        <pt x="19" y="964" on="1"/>
        <pt x="127" y="1024" on="1"/>
        <pt x="169" y="992" on="1"/>
        <pt x="226" y="868" on="1"/>
      </contour>
      <contour>
        <pt x="91" y="121" on="1"/>
        <pt x="127" y="121" on="1"/>
        <pt x="127" y="632" on="1"/>
        <pt x="97" y="632" on="1"/>
        <pt x="77" y="633" on="0"/>
        <pt x="70" y="645" on="1"/>
        <pt x="63" y="659" on="0"/>
        <pt x="63" y="696" on="1"/>
        <pt x="63" y="752" on="0"/>
        <pt x="96" y="752" on="1"/>
        <pt x="273" y="752" on="1"/>
        <pt x="317" y="752" on="0"/>
        <pt x="317" y="721" on="1"/>
        <pt x="317" y="632" on="0"/>
        <pt x="282" y="632" on="1"/>
        <pt x="257" y="632" on="1"/>
        <pt x="267" y="432" on="1"/>
        <pt x="268" y="121" on="1"/>
        <pt x="298" y="121" on="1"/>
        <pt x="333" y="120" on="0"/>
        <pt x="333" y="89" on="1"/>
        <pt x="331" y="0" on="0"/>
        <pt x="284" y="0" on="1"/>
        <pt x="95" y="0" on="1"/>
        <pt x="77" y="1" on="0"/>
        <pt x="70" y="13" on="1"/>
        <pt x="63" y="27" on="0"/>
        <pt x="63" y="65" on="1"/>
        <pt x="63" y="121" on="0"/>
      </contour>
    </TTGlyph>
    <TTGlyph name="J" xMin="0" yMin="-224" xMax="247" yMax="768">
      <contour>
        <pt x="32" y="-113" on="1"/>
        <pt x="76" y="-113" on="0"/>
        <pt x="106" y="7" on="0"/>
        <pt x="106" y="163" on="1"/>
        <pt x="107" y="732" on="1"/>
        <pt x="107" y="754" on="0"/>
        <pt x="128" y="768" on="0"/>
        <pt x="158" y="768" on="1"/>
        <pt x="230" y="768" on="0"/>
        <pt x="231" y="731" on="1"/>
        <pt x="247" y="432" on="1"/>
        <pt x="247" y="165" on="1"/>
        <pt x="247" y="-4" on="0"/>
        <pt x="226" y="-90" on="1"/>
        <pt x="213" y="-140" on="0"/>
        <pt x="189" y="-167" on="1"/>
        <pt x="138" y="-224" on="0"/>
        <pt x="32" y="-224" on="1"/>
        <pt x="14" y="-223" on="0"/>
        <pt x="1" y="-198" on="0"/>
        <pt x="0" y="-137" on="0"/>
        <pt x="15" y="-113" on="0"/>
      </contour>
    </TTGlyph>
    <TTGlyph name="J_smcp" xMin="0" yMin="-144" xMax="182" yMax="531">
      <contour>
        <pt x="0" y="-124" on="0"/>
        <pt x="0" y="-74" on="0"/>
        <pt x="13" y="-54" on="0"/>
        <pt x="29" y="-54" on="1"/>
        <pt x="55" y="-54" on="0"/>
        <pt x="72" y="21" on="0"/>
        <pt x="72" y="122" on="1"/>
        <pt x="72" y="501" on="1"/>
        <pt x="72" y="519" on="0"/>
        <pt x="89" y="531" on="0"/>
        <pt x="113" y="531" on="1"/>
        <pt x="170" y="531" on="0"/>
        <pt x="171" y="500" on="1"/>
        <pt x="173" y="466" on="0"/>
        <pt x="181" y="333" on="0"/>
        <pt x="182" y="301" on="1"/>
        <pt x="182" y="123" on="1"/>
        <pt x="182" y="-28" on="0"/>
        <pt x="123" y="-144" on="0"/>
        <pt x="29" y="-144" on="1"/>
        <pt x="13" y="-143" on="0"/>
      </contour>
    </TTGlyph>
    <TTGlyph name="K" xMin="45" yMin="-16" xMax="556" yMax="768">
      <contour>
        <pt x="362" y="732" on="1"/>
        <pt x="377" y="768" on="0"/>
        <pt x="511" y="768" on="0"/>
        <pt x="511" y="743" on="1"/>
        <pt x="511" y="738" on="0"/>
        <pt x="508" y="732" on="1"/>
        <pt x="357" y="417" on="1"/>
        <pt x="548" y="21" on="1"/>
        <pt x="555" y="6" on="0"/>
        <pt x="555" y="-7" on="0"/>
        <pt x="548" y="-16" on="0"/>
        <pt x="477" y="-16" on="0"/>
        <pt x="396" y="1" on="0"/>
        <pt x="387" y="21" on="1"/>
        <pt x="212" y="386" on="1"/>
        <pt x="212" y="416" on="1"/>
      </contour>
      <contour>
        <pt x="45" y="20" on="1"/>
        <pt x="45" y="731" on="1"/>
        <pt x="45" y="753" on="0"/>
        <pt x="67" y="768" on="0"/>
        <pt x="97" y="768" on="1"/>
        <pt x="169" y="768" on="0"/>
        <pt x="170" y="730" on="1"/>
        <pt x="185" y="432" on="1"/>
        <pt x="186" y="22" on="1"/>
        <pt x="186" y="4" on="0"/>
        <pt x="184" y="-2" on="1"/>
        <pt x="181" y="-16" on="0"/>
        <pt x="146" y="-16" on="1"/>
        <pt x="45" y="-16" on="0"/>
      </contour>
    </TTGlyph>
    <TTGlyph name="K_smcp" xMin="32" yMin="-6" xMax="389" yMax="531">
      <contour>
        <pt x="388" y="11" on="1"/>
        <pt x="388" y="-6" on="0"/>
        <pt x="354" y="-6" on="1"/>
        <pt x="274" y="-6" on="0"/>
        <pt x="259" y="23" on="1"/>
        <pt x="144" y="265" on="1"/>
        <pt x="144" y="294" on="1"/>
        <pt x="244" y="505" on="1"/>
        <pt x="254" y="531" on="0"/>
        <pt x="305" y="531" on="1"/>
        <pt x="333" y="531" on="0"/>
        <pt x="363" y="516" on="0"/>
        <pt x="355" y="497" on="1"/>
        <pt x="256" y="290" on="1"/>
        <pt x="382" y="31" on="1"/>
        <pt x="388" y="19" on="0"/>
      </contour>
      <contour>
        <pt x="32" y="26" on="1"/>
        <pt x="32" y="500" on="1"/>
        <pt x="32" y="519" on="0"/>
        <pt x="49" y="531" on="0"/>
        <pt x="74" y="531" on="1"/>
        <pt x="131" y="531" on="0"/>
        <pt x="131" y="499" on="1"/>
        <pt x="141" y="301" on="1"/>
        <pt x="142" y="28" on="1"/>
        <pt x="142" y="6" on="0"/>
        <pt x="132" y="-6" on="0"/>
        <pt x="107" y="-6" on="1"/>
        <pt x="32" y="-6" on="0"/>
      </contour>
    </TTGlyph>
    <TTGlyph name="L" xMin="45" yMin="0" xMax="428" yMax="768">
      <contour>
        <pt x="45" y="731" on="1"/>
        <pt x="45" y="753" on="0"/>
        <pt x="66" y="768" on="0"/>
        <pt x="96" y="768" on="1"/>
        <pt x="168" y="768" on="0"/>
        <pt x="169" y="732" on="1"/>
        <pt x="184" y="432" on="1"/>
        <pt x="185" y="121" on="1"/>
        <pt x="379" y="121" on="1"/>
        <pt x="428" y="121" on="0"/>
        <pt x="428" y="85" on="1"/>
        <pt x="428" y="20" on="0"/>
        <pt x="409" y="7" on="1"/>
        <pt x="399" y="0" on="0"/>
        <pt x="383" y="0" on="1"/>
        <pt x="61" y="0" on="1"/>
        <pt x="45" y="16" on="1"/>
      </contour>
    </TTGlyph>
    <TTGlyph name="L_smcp" xMin="33" yMin="5" xMax="303" yMax="531">
      <contour>
        <pt x="33" y="500" on="1"/>
        <pt x="33" y="519" on="0"/>
        <pt x="48" y="531" on="0"/>
        <pt x="73" y="531" on="1"/>
        <pt x="130" y="531" on="0"/>
        <pt x="131" y="501" on="1"/>
        <pt x="139" y="301" on="1"/>
        <pt x="140" y="101" on="1"/>
        <pt x="262" y="101" on="1"/>
        <pt x="303" y="101" on="0"/>
        <pt x="303" y="69" on="1"/>
        <pt x="303" y="21" on="0"/>
        <pt x="286" y="10" on="1"/>
        <pt x="278" y="5" on="0"/>
        <pt x="264" y="5" on="1"/>
        <pt x="45" y="5" on="1"/>
        <pt x="33" y="21" on="1"/>
      </contour>
    </TTGlyph>
    <TTGlyph name="Lslash" xMin="18" yMin="0" xMax="529" yMax="768">
      <contour>
        <pt x="146" y="731" on="1"/>
        <pt x="146" y="753" on="0"/>
        <pt x="167" y="768" on="0"/>
        <pt x="197" y="768" on="1"/>
        <pt x="269" y="768" on="0"/>
        <pt x="270" y="732" on="1"/>
        <pt x="284" y="451" on="1"/>
        <pt x="375" y="476" on="1"/>
        <pt x="395" y="464" on="1"/>
        <pt x="418" y="376" on="1"/>
        <pt x="406" y="356" on="1"/>
        <pt x="285" y="323" on="1"/>
        <pt x="286" y="121" on="1"/>
        <pt x="480" y="121" on="1"/>
        <pt x="529" y="121" on="0"/>
        <pt x="529" y="85" on="1"/>
        <pt x="529" y="20" on="0"/>
        <pt x="510" y="7" on="1"/>
        <pt x="500" y="0" on="0"/>
        <pt x="484" y="0" on="1"/>
        <pt x="162" y="0" on="1"/>
        <pt x="146" y="16" on="1"/>
        <pt x="146" y="286" on="1"/>
        <pt x="50" y="260" on="1"/>
        <pt x="18" y="380" on="1"/>
        <pt x="146" y="414" on="1"/>
      </contour>
    </TTGlyph>
    <TTGlyph name="M" xMin="45" yMin="-16" xMax="553" yMax="768">
      <contour>
        <pt x="412" y="21" on="1"/>
        <pt x="412" y="475" on="1"/>
        <pt x="347" y="354" on="1"/>
        <pt x="246" y="354" on="1"/>
        <pt x="185" y="473" on="1"/>
        <pt x="185" y="22" on="1"/>
        <pt x="185" y="4" on="0"/>
        <pt x="184" y="-2" on="1"/>
        <pt x="180" y="-16" on="0"/>
        <pt x="145" y="-16" on="1"/>
        <pt x="45" y="-16" on="0"/>
        <pt x="45" y="21" on="1"/>
        <pt x="45" y="730" on="1"/>
        <pt x="45" y="768" on="0"/>
        <pt x="183" y="768" on="0"/>
        <pt x="197" y="731" on="1"/>
        <pt x="298" y="473" on="1"/>
        <pt x="404" y="732" on="1"/>
        <pt x="412" y="754" on="0"/>
        <pt x="435" y="768" on="0"/>
        <pt x="464" y="768" on="1"/>
        <pt x="536" y="768" on="0"/>
        <pt x="537" y="729" on="1"/>
        <pt x="553" y="431" on="1"/>
        <pt x="553" y="28" on="1"/>
        <pt x="553" y="-2" on="0"/>
        <pt x="542" y="-16" on="0"/>
        <pt x="481" y="-16" on="0"/>
        <pt x="443" y="-12" on="0"/>
        <pt x="412" y="5" on="0"/>
      </contour>
    </TTGlyph>
    <TTGlyph name="M_smcp" xMin="32" yMin="-6" xMax="386" yMax="531">
      <contour>
        <pt x="276" y="27" on="1"/>
        <pt x="276" y="297" on="1"/>
        <pt x="248" y="240" on="1"/>
        <pt x="167" y="240" on="1"/>
        <pt x="141" y="294" on="1"/>
        <pt x="141" y="28" on="1"/>
        <pt x="141" y="6" on="0"/>
        <pt x="131" y="-6" on="0"/>
        <pt x="106" y="-6" on="1"/>
        <pt x="32" y="-6" on="0"/>
        <pt x="32" y="27" on="1"/>
        <pt x="32" y="499" on="1"/>
        <pt x="32" y="531" on="0"/>
        <pt x="138" y="531" on="0"/>
        <pt x="150" y="502" on="1"/>
        <pt x="208" y="349" on="1"/>
        <pt x="270" y="505" on="1"/>
        <pt x="277" y="522" on="0"/>
        <pt x="294" y="531" on="0"/>
        <pt x="319" y="531" on="1"/>
        <pt x="374" y="531" on="0"/>
        <pt x="375" y="499" on="1"/>
        <pt x="377" y="465" on="0"/>
        <pt x="385" y="332" on="0"/>
        <pt x="386" y="300" on="1"/>
        <pt x="386" y="32" on="1"/>
        <pt x="386" y="7" on="0"/>
        <pt x="376" y="-6" on="0"/>
        <pt x="327" y="-6" on="0"/>
        <pt x="313" y="-4" on="1"/>
        <pt x="276" y="-1" on="0"/>
      </contour>
    </TTGlyph>
    <TTGlyph name="N" xMin="45" yMin="-16" xMax="499" yMax="768">
      <contour>
        <pt x="45" y="24" on="1"/>
        <pt x="45" y="731" on="1"/>
        <pt x="45" y="768" on="0"/>
        <pt x="117" y="768" on="1"/>
        <pt x="132" y="768" on="0"/>
        <pt x="149" y="766" on="0"/>
        <pt x="175" y="749" on="0"/>
        <pt x="185" y="733" on="1"/>
        <pt x="364" y="313" on="1"/>
        <pt x="358" y="732" on="1"/>
        <pt x="358" y="768" on="0"/>
        <pt x="430" y="768" on="1"/>
        <pt x="460" y="768" on="0"/>
        <pt x="482" y="754" on="0"/>
        <pt x="483" y="732" on="1"/>
        <pt x="499" y="431" on="1"/>
        <pt x="499" y="21" on="1"/>
        <pt x="499" y="4" on="0"/>
        <pt x="498" y="-2" on="1"/>
        <pt x="494" y="-16" on="0"/>
        <pt x="459" y="-16" on="1"/>
        <pt x="394" y="-16" on="0"/>
        <pt x="381" y="21" on="1"/>
        <pt x="184" y="436" on="1"/>
        <pt x="185" y="22" on="1"/>
        <pt x="185" y="4" on="0"/>
        <pt x="184" y="-2" on="1"/>
        <pt x="180" y="-16" on="0"/>
        <pt x="145" y="-16" on="1"/>
        <pt x="45" y="-16" on="0"/>
      </contour>
    </TTGlyph>
    <TTGlyph name="N_smcp" xMin="32" yMin="-6" xMax="349" yMax="531">
      <contour>
        <pt x="32" y="29" on="1"/>
        <pt x="32" y="500" on="1"/>
        <pt x="32" y="531" on="0"/>
        <pt x="87" y="531" on="1"/>
        <pt x="99" y="531" on="0"/>
        <pt x="112" y="529" on="0"/>
        <pt x="135" y="511" on="0"/>
        <pt x="145" y="494" on="1"/>
        <pt x="243" y="262" on="1"/>
        <pt x="239" y="501" on="1"/>
        <pt x="239" y="531" on="0"/>
        <pt x="296" y="531" on="1"/>
        <pt x="321" y="531" on="0"/>
        <pt x="337" y="520" on="0"/>
        <pt x="338" y="501" on="1"/>
        <pt x="349" y="300" on="1"/>
        <pt x="349" y="27" on="1"/>
        <pt x="349" y="-3" on="0"/>
        <pt x="336" y="-5" on="1"/>
        <pt x="329" y="-6" on="0"/>
        <pt x="316" y="-6" on="1"/>
        <pt x="267" y="-6" on="0"/>
        <pt x="255" y="24" on="1"/>
        <pt x="141" y="262" on="1"/>
        <pt x="141" y="28" on="1"/>
        <pt x="141" y="6" on="0"/>
        <pt x="131" y="-6" on="0"/>
        <pt x="106" y="-6" on="1"/>
        <pt x="32" y="-6" on="0"/>
      </contour>
    </TTGlyph>
    <TTGlyph name="Ntilde" xMin="37" yMin="-16" xMax="491" yMax="985">
      <contour>
        <pt x="433" y="884" on="1"/>
        <pt x="426" y="884" on="0"/>
        <pt x="349" y="884" on="0"/>
        <pt x="203" y="864" on="0"/>
        <pt x="103" y="864" on="0"/>
        <pt x="76" y="883" on="0"/>
        <pt x="76" y="916" on="1"/>
        <pt x="101" y="967" on="1"/>
        <pt x="176" y="967" on="0"/>
        <pt x="307" y="985" on="0"/>
        <pt x="413" y="985" on="0"/>
        <pt x="449" y="964" on="0"/>
        <pt x="449" y="929" on="1"/>
      </contour>
      <contour>
        <pt x="37" y="24" on="1"/>
        <pt x="37" y="731" on="1"/>
        <pt x="37" y="768" on="0"/>
        <pt x="109" y="768" on="1"/>
        <pt x="124" y="768" on="0"/>
        <pt x="141" y="766" on="0"/>
        <pt x="167" y="749" on="0"/>
        <pt x="177" y="733" on="1"/>
        <pt x="356" y="313" on="1"/>
        <pt x="350" y="732" on="1"/>
        <pt x="350" y="768" on="0"/>
        <pt x="422" y="768" on="1"/>
        <pt x="452" y="768" on="0"/>
        <pt x="474" y="754" on="0"/>
        <pt x="475" y="732" on="1"/>
        <pt x="491" y="431" on="1"/>
        <pt x="491" y="21" on="1"/>
        <pt x="491" y="4" on="0"/>
        <pt x="490" y="-2" on="1"/>
        <pt x="486" y="-16" on="0"/>
        <pt x="451" y="-16" on="1"/>
        <pt x="386" y="-16" on="0"/>
        <pt x="373" y="21" on="1"/>
        <pt x="176" y="436" on="1"/>
        <pt x="177" y="22" on="1"/>
        <pt x="177" y="4" on="0"/>
        <pt x="176" y="-2" on="1"/>
        <pt x="172" y="-16" on="0"/>
        <pt x="137" y="-16" on="1"/>
        <pt x="37" y="-16" on="0"/>
      </contour>
    </TTGlyph>
    <TTGlyph name="Ntilde_smcp" xMin="30" yMin="-6" xMax="346" yMax="677">
      <contour>
        <pt x="307" y="594" on="1"/>
        <pt x="295" y="595" on="0"/>
        <pt x="248" y="595" on="0"/>
        <pt x="139" y="580" on="0"/>
        <pt x="76" y="580" on="0"/>
        <pt x="54" y="597" on="0"/>
        <pt x="54" y="626" on="1"/>
        <pt x="73" y="664" on="1"/>
        <pt x="104" y="664" on="0"/>
        <pt x="230" y="677" on="0"/>
        <pt x="290" y="677" on="0"/>
        <pt x="320" y="658" on="0"/>
        <pt x="320" y="629" on="1"/>
      </contour>
      <contour>
        <pt x="30" y="29" on="1"/>
        <pt x="30" y="500" on="1"/>
        <pt x="30" y="531" on="0"/>
        <pt x="85" y="531" on="1"/>
        <pt x="96" y="531" on="0"/>
        <pt x="103" y="530" on="1"/>
        <pt x="123" y="527" on="0"/>
        <pt x="142" y="495" on="1"/>
        <pt x="241" y="262" on="1"/>
        <pt x="238" y="501" on="1"/>
        <pt x="238" y="531" on="0"/>
        <pt x="294" y="531" on="1"/>
        <pt x="319" y="531" on="0"/>
        <pt x="336" y="519" on="0"/>
        <pt x="336" y="501" on="1"/>
        <pt x="346" y="300" on="1"/>
        <pt x="346" y="27" on="1"/>
        <pt x="346" y="-3" on="0"/>
        <pt x="332" y="-5" on="1"/>
        <pt x="326" y="-6" on="0"/>
        <pt x="313" y="-6" on="1"/>
        <pt x="264" y="-6" on="0"/>
        <pt x="252" y="24" on="1"/>
        <pt x="138" y="262" on="1"/>
        <pt x="139" y="28" on="1"/>
        <pt x="139" y="6" on="0"/>
        <pt x="129" y="-6" on="0"/>
        <pt x="104" y="-6" on="1"/>
        <pt x="30" y="-6" on="0"/>
      </contour>
    </TTGlyph>
    <TTGlyph name="O" xMin="37" yMin="-16" xMax="560" yMax="768">
      <contour>
        <pt x="37" y="371" on="1"/>
        <pt x="37" y="530" on="0"/>
        <pt x="87" y="700" on="0"/>
        <pt x="196" y="768" on="0"/>
        <pt x="402" y="768" on="0"/>
        <pt x="511" y="700" on="0"/>
        <pt x="560" y="531" on="0"/>
        <pt x="560" y="371" on="1"/>
        <pt x="560" y="152" on="0"/>
        <pt x="448" y="-16" on="0"/>
        <pt x="150" y="-16" on="0"/>
        <pt x="37" y="152" on="0"/>
      </contour>
      <contour>
        <pt x="198" y="520" on="0"/>
        <pt x="196" y="443" on="0"/>
        <pt x="196" y="259" on="0"/>
        <pt x="208" y="135" on="0"/>
        <pt x="228" y="96" on="0"/>
        <pt x="245" y="96" on="1"/>
        <pt x="333" y="96" on="0"/>
        <pt x="360" y="114" on="1"/>
        <pt x="370" y="121" on="0"/>
        <pt x="389" y="153" on="0"/>
        <pt x="397" y="187" on="0"/>
        <pt x="400" y="220" on="1"/>
        <pt x="404" y="263" on="0"/>
        <pt x="404" y="486" on="0"/>
        <pt x="393" y="615" on="0"/>
        <pt x="372" y="662" on="0"/>
        <pt x="355" y="662" on="1"/>
        <pt x="315" y="662" on="0"/>
        <pt x="266" y="655" on="0"/>
        <pt x="228" y="628" on="0"/>
        <pt x="210" y="595" on="0"/>
      </contour>
    </TTGlyph>
    <TTGlyph name="OE" xMin="37" yMin="-16" xMax="830" yMax="752">
      <contour>
        <pt x="37" y="371" on="1"/>
        <pt x="37" y="530" on="0"/>
        <pt x="87" y="692" on="0"/>
        <pt x="195" y="752" on="0"/>
        <pt x="299" y="752" on="1"/>
        <pt x="772" y="752" on="1"/>
        <pt x="815" y="751" on="0"/>
        <pt x="815" y="720" on="1"/>
        <pt x="814" y="693" on="0"/>
        <pt x="810" y="662" on="0"/>
        <pt x="789" y="632" on="0"/>
        <pt x="769" y="632" on="1"/>
        <pt x="529" y="632" on="1"/>
        <pt x="552" y="570" on="0"/>
        <pt x="558" y="455" on="1"/>
        <pt x="750" y="455" on="1"/>
        <pt x="790" y="455" on="0"/>
        <pt x="790" y="419" on="1"/>
        <pt x="790" y="370" on="0"/>
        <pt x="778" y="334" on="0"/>
        <pt x="753" y="334" on="1"/>
        <pt x="559" y="334" on="1"/>
        <pt x="556" y="196" on="0"/>
        <pt x="530" y="121" on="1"/>
        <pt x="788" y="121" on="1"/>
        <pt x="812" y="120" on="0"/>
        <pt x="830" y="103" on="0"/>
        <pt x="830" y="86" on="1"/>
        <pt x="830" y="37" on="0"/>
        <pt x="812" y="0" on="0"/>
        <pt x="785" y="0" on="1"/>
        <pt x="433" y="0" on="1"/>
        <pt x="362" y="-16" on="0"/>
        <pt x="299" y="-16" on="1"/>
        <pt x="150" y="-16" on="0"/>
        <pt x="37" y="152" on="0"/>
      </contour>
      <contour>
        <pt x="198" y="520" on="0"/>
        <pt x="196" y="443" on="0"/>
        <pt x="196" y="259" on="0"/>
        <pt x="208" y="135" on="0"/>
        <pt x="228" y="96" on="0"/>
        <pt x="245" y="96" on="1"/>
        <pt x="333" y="96" on="0"/>
        <pt x="360" y="114" on="1"/>
        <pt x="370" y="121" on="0"/>
        <pt x="389" y="153" on="0"/>
        <pt x="397" y="187" on="0"/>
        <pt x="400" y="220" on="1"/>
        <pt x="404" y="263" on="0"/>
        <pt x="404" y="486" on="0"/>
        <pt x="393" y="615" on="0"/>
        <pt x="372" y="662" on="0"/>
        <pt x="355" y="662" on="1"/>
        <pt x="315" y="662" on="0"/>
        <pt x="266" y="655" on="0"/>
        <pt x="228" y="628" on="0"/>
        <pt x="210" y="595" on="0"/>
      </contour>
    </TTGlyph>
    <TTGlyph name="OE_smcp" xMin="34" yMin="-6" xMax="579" yMax="522">
      <contour>
        <pt x="34" y="259" on="1"/>
        <pt x="34" y="368" on="0"/>
        <pt x="69" y="479" on="0"/>
        <pt x="143" y="521" on="0"/>
        <pt x="216" y="521" on="1"/>
        <pt x="532" y="522" on="1"/>
        <pt x="569" y="521" on="0"/>
        <pt x="569" y="492" on="1"/>
        <pt x="569" y="472" on="0"/>
        <pt x="566" y="449" on="0"/>
        <pt x="547" y="427" on="0"/>
        <pt x="530" y="427" on="1"/>
        <pt x="390" y="427" on="1"/>
        <pt x="396" y="324" on="1"/>
        <pt x="517" y="324" on="1"/>
        <pt x="552" y="324" on="0"/>
        <pt x="552" y="292" on="1"/>
        <pt x="552" y="265" on="0"/>
        <pt x="550" y="244" on="0"/>
        <pt x="535" y="228" on="0"/>
        <pt x="519" y="228" on="1"/>
        <pt x="397" y="228" on="1"/>
        <pt x="396" y="101" on="1"/>
        <pt x="543" y="101" on="1"/>
        <pt x="563" y="100" on="0"/>
        <pt x="579" y="85" on="0"/>
        <pt x="579" y="33" on="0"/>
        <pt x="564" y="5" on="0"/>
        <pt x="541" y="5" on="1"/>
        <pt x="301" y="5" on="1"/>
        <pt x="300" y="6" on="1"/>
        <pt x="266" y="-6" on="0"/>
        <pt x="216" y="-6" on="1"/>
        <pt x="112" y="-6" on="0"/>
        <pt x="34" y="109" on="0"/>
      </contour>
      <contour>
        <pt x="186" y="445" on="0"/>
        <pt x="156" y="385" on="0"/>
        <pt x="156" y="187" on="0"/>
        <pt x="162" y="109" on="0"/>
        <pt x="171" y="84" on="0"/>
        <pt x="180" y="84" on="1"/>
        <pt x="217" y="84" on="0"/>
        <pt x="251" y="91" on="0"/>
        <pt x="274" y="132" on="0"/>
        <pt x="278" y="193" on="0"/>
        <pt x="278" y="260" on="1"/>
        <pt x="278" y="445" on="0"/>
        <pt x="254" y="445" on="1"/>
      </contour>
    </TTGlyph>
    <TTGlyph name="O_smcp" xMin="26" yMin="-6" xMax="390" yMax="531">
      <contour>
        <pt x="104" y="-6" on="0"/>
        <pt x="26" y="109" on="0"/>
        <pt x="26" y="419" on="0"/>
        <pt x="103" y="531" on="0"/>
        <pt x="313" y="531" on="0"/>
        <pt x="390" y="419" on="0"/>
        <pt x="390" y="109" on="0"/>
        <pt x="311" y="-6" on="0"/>
      </contour>
      <contour>
        <pt x="178" y="445" on="0"/>
        <pt x="148" y="385" on="0"/>
        <pt x="148" y="187" on="0"/>
        <pt x="154" y="109" on="0"/>
        <pt x="163" y="84" on="0"/>
        <pt x="172" y="84" on="1"/>
        <pt x="209" y="84" on="0"/>
        <pt x="243" y="91" on="0"/>
        <pt x="266" y="132" on="0"/>
        <pt x="270" y="193" on="0"/>
        <pt x="270" y="260" on="1"/>
        <pt x="270" y="445" on="0"/>
        <pt x="246" y="445" on="1"/>
      </contour>
    </TTGlyph>
    <TTGlyph name="O_smcpacute" xMin="26" yMin="-6" xMax="390" yMax="784">
      <contour>
        <pt x="205" y="552" on="1"/>
        <pt x="159" y="573" on="1"/>
        <pt x="158" y="628" on="1"/>
        <pt x="215" y="752" on="1"/>
        <pt x="257" y="784" on="1"/>
        <pt x="365" y="724" on="1"/>
      </contour>
      <contour>
        <pt x="104" y="-6" on="0"/>
        <pt x="26" y="109" on="0"/>
        <pt x="26" y="419" on="0"/>
        <pt x="103" y="531" on="0"/>
        <pt x="313" y="531" on="0"/>
        <pt x="390" y="419" on="0"/>
        <pt x="390" y="109" on="0"/>
        <pt x="311" y="-6" on="0"/>
      </contour>
      <contour>
        <pt x="178" y="445" on="0"/>
        <pt x="148" y="385" on="0"/>
        <pt x="148" y="187" on="0"/>
        <pt x="154" y="109" on="0"/>
        <pt x="163" y="84" on="0"/>
        <pt x="172" y="84" on="1"/>
        <pt x="209" y="84" on="0"/>
        <pt x="243" y="91" on="0"/>
        <pt x="266" y="132" on="0"/>
        <pt x="270" y="193" on="0"/>
        <pt x="270" y="260" on="1"/>
        <pt x="270" y="445" on="0"/>
        <pt x="246" y="445" on="1"/>
      </contour>
    </TTGlyph>
    <TTGlyph name="O_smcpcircunflex" xMin="38" yMin="-6" xMax="402" yMax="784">
      <contour>
        <pt x="96" y="588" on="1"/>
        <pt x="57" y="620" on="1"/>
        <pt x="70" y="674" on="1"/>
        <pt x="172" y="764" on="1"/>
        <pt x="221" y="784" on="1"/>
        <pt x="270" y="764" on="1"/>
        <pt x="372" y="674" on="1"/>
        <pt x="385" y="620" on="1"/>
        <pt x="346" y="588" on="1"/>
        <pt x="221" y="669" on="1"/>
      </contour>
      <contour>
        <pt x="116" y="-6" on="0"/>
        <pt x="38" y="109" on="0"/>
        <pt x="38" y="419" on="0"/>
        <pt x="115" y="531" on="0"/>
        <pt x="325" y="531" on="0"/>
        <pt x="402" y="419" on="0"/>
        <pt x="402" y="109" on="0"/>
        <pt x="323" y="-6" on="0"/>
      </contour>
      <contour>
        <pt x="190" y="445" on="0"/>
        <pt x="160" y="385" on="0"/>
        <pt x="160" y="187" on="0"/>
        <pt x="166" y="109" on="0"/>
        <pt x="175" y="84" on="0"/>
        <pt x="184" y="84" on="1"/>
        <pt x="221" y="84" on="0"/>
        <pt x="255" y="91" on="0"/>
        <pt x="278" y="132" on="0"/>
        <pt x="282" y="193" on="0"/>
        <pt x="282" y="260" on="1"/>
        <pt x="282" y="445" on="0"/>
        <pt x="258" y="445" on="1"/>
      </contour>
    </TTGlyph>
    <TTGlyph name="O_smcpdieresis" xMin="42" yMin="-6" xMax="420" yMax="784">
      <contour>
        <pt x="42" y="640" on="0"/>
        <pt x="42" y="784" on="0"/>
        <pt x="186" y="784" on="0"/>
        <pt x="186" y="640" on="0"/>
      </contour>
      <contour>
        <pt x="276" y="640" on="0"/>
        <pt x="276" y="784" on="0"/>
        <pt x="420" y="784" on="0"/>
        <pt x="420" y="640" on="0"/>
      </contour>
      <contour>
        <pt x="122" y="-6" on="0"/>
        <pt x="44" y="109" on="0"/>
        <pt x="44" y="419" on="0"/>
        <pt x="121" y="531" on="0"/>
        <pt x="331" y="531" on="0"/>
        <pt x="408" y="419" on="0"/>
        <pt x="408" y="109" on="0"/>
        <pt x="329" y="-6" on="0"/>
      </contour>
      <contour>
        <pt x="196" y="445" on="0"/>
        <pt x="166" y="385" on="0"/>
        <pt x="166" y="187" on="0"/>
        <pt x="172" y="109" on="0"/>
        <pt x="181" y="84" on="0"/>
        <pt x="190" y="84" on="1"/>
        <pt x="227" y="84" on="0"/>
        <pt x="261" y="91" on="0"/>
        <pt x="284" y="132" on="0"/>
        <pt x="288" y="193" on="0"/>
        <pt x="288" y="260" on="1"/>
        <pt x="288" y="445" on="0"/>
        <pt x="264" y="445" on="1"/>
      </contour>
    </TTGlyph>
    <TTGlyph name="O_smcpgrave" xMin="26" yMin="-6" xMax="390" yMax="784">
      <contour>
        <pt x="276" y="573" on="1"/>
        <pt x="230" y="552" on="1"/>
        <pt x="70" y="724" on="1"/>
        <pt x="178" y="784" on="1"/>
        <pt x="220" y="752" on="1"/>
        <pt x="277" y="628" on="1"/>
      </contour>
      <contour>
        <pt x="104" y="-6" on="0"/>
        <pt x="26" y="109" on="0"/>
        <pt x="26" y="419" on="0"/>
        <pt x="103" y="531" on="0"/>
        <pt x="313" y="531" on="0"/>
        <pt x="390" y="419" on="0"/>
        <pt x="390" y="109" on="0"/>
        <pt x="311" y="-6" on="0"/>
      </contour>
      <contour>
        <pt x="178" y="445" on="0"/>
        <pt x="148" y="385" on="0"/>
        <pt x="148" y="187" on="0"/>
        <pt x="154" y="109" on="0"/>
        <pt x="163" y="84" on="0"/>
        <pt x="172" y="84" on="1"/>
        <pt x="209" y="84" on="0"/>
        <pt x="243" y="91" on="0"/>
        <pt x="266" y="132" on="0"/>
        <pt x="270" y="193" on="0"/>
        <pt x="270" y="260" on="1"/>
        <pt x="270" y="445" on="0"/>
        <pt x="246" y="445" on="1"/>
      </contour>
    </TTGlyph>
    <TTGlyph name="O_smcptilde" xMin="33" yMin="-6" xMax="397" yMax="745">
      <contour>
        <pt x="369" y="644" on="1"/>
        <pt x="362" y="644" on="0"/>
        <pt x="287" y="644" on="0"/>
        <pt x="171" y="624" on="0"/>
        <pt x="71" y="624" on="0"/>
        <pt x="44" y="643" on="0"/>
        <pt x="44" y="676" on="1"/>
        <pt x="69" y="727" on="1"/>
        <pt x="144" y="727" on="0"/>
        <pt x="243" y="745" on="0"/>
        <pt x="349" y="745" on="0"/>
        <pt x="385" y="724" on="0"/>
        <pt x="385" y="689" on="1"/>
      </contour>
      <contour>
        <pt x="111" y="-6" on="0"/>
        <pt x="33" y="109" on="0"/>
        <pt x="33" y="419" on="0"/>
        <pt x="110" y="531" on="0"/>
        <pt x="320" y="531" on="0"/>
        <pt x="397" y="419" on="0"/>
        <pt x="397" y="109" on="0"/>
        <pt x="318" y="-6" on="0"/>
      </contour>
      <contour>
        <pt x="185" y="445" on="0"/>
        <pt x="155" y="385" on="0"/>
        <pt x="155" y="187" on="0"/>
        <pt x="161" y="109" on="0"/>
        <pt x="170" y="84" on="0"/>
        <pt x="179" y="84" on="1"/>
        <pt x="216" y="84" on="0"/>
        <pt x="250" y="91" on="0"/>
        <pt x="273" y="132" on="0"/>
        <pt x="277" y="193" on="0"/>
        <pt x="277" y="260" on="1"/>
        <pt x="277" y="445" on="0"/>
        <pt x="253" y="445" on="1"/>
      </contour>
    </TTGlyph>
    <TTGlyph name="Oacute" xMin="23" yMin="-16" xMax="546" yMax="1024">
      <contour>
        <pt x="23" y="371" on="1"/>
        <pt x="23" y="530" on="0"/>
        <pt x="73" y="700" on="0"/>
        <pt x="182" y="768" on="0"/>
        <pt x="388" y="768" on="0"/>
        <pt x="497" y="700" on="0"/>
        <pt x="546" y="531" on="0"/>
        <pt x="546" y="371" on="1"/>
        <pt x="546" y="152" on="0"/>
        <pt x="434" y="-16" on="0"/>
        <pt x="136" y="-16" on="0"/>
        <pt x="23" y="152" on="0"/>
      </contour>
      <contour>
        <pt x="184" y="520" on="0"/>
        <pt x="182" y="443" on="0"/>
        <pt x="182" y="259" on="0"/>
        <pt x="194" y="135" on="0"/>
        <pt x="214" y="96" on="0"/>
        <pt x="231" y="96" on="1"/>
        <pt x="319" y="96" on="0"/>
        <pt x="346" y="114" on="1"/>
        <pt x="356" y="121" on="0"/>
        <pt x="375" y="153" on="0"/>
        <pt x="383" y="187" on="0"/>
        <pt x="386" y="220" on="1"/>
        <pt x="390" y="263" on="0"/>
        <pt x="390" y="486" on="0"/>
        <pt x="379" y="615" on="0"/>
        <pt x="358" y="662" on="0"/>
        <pt x="341" y="662" on="1"/>
        <pt x="301" y="662" on="0"/>
        <pt x="252" y="655" on="0"/>
        <pt x="214" y="628" on="0"/>
        <pt x="196" y="595" on="0"/>
      </contour>
      <contour>
        <pt x="303" y="792" on="1"/>
        <pt x="257" y="813" on="1"/>
        <pt x="256" y="868" on="1"/>
        <pt x="313" y="992" on="1"/>
        <pt x="355" y="1024" on="1"/>
        <pt x="463" y="964" on="1"/>
      </contour>
    </TTGlyph>
    <TTGlyph name="Ocircumflex" xMin="30" yMin="-16" xMax="553" yMax="1024">
      <contour>
        <pt x="30" y="371" on="1"/>
        <pt x="30" y="530" on="0"/>
        <pt x="80" y="700" on="0"/>
        <pt x="189" y="768" on="0"/>
        <pt x="395" y="768" on="0"/>
        <pt x="504" y="700" on="0"/>
        <pt x="553" y="531" on="0"/>
        <pt x="553" y="371" on="1"/>
        <pt x="553" y="152" on="0"/>
        <pt x="441" y="-16" on="0"/>
        <pt x="143" y="-16" on="0"/>
        <pt x="30" y="152" on="0"/>
      </contour>
      <contour>
        <pt x="191" y="520" on="0"/>
        <pt x="189" y="443" on="0"/>
        <pt x="189" y="259" on="0"/>
        <pt x="201" y="135" on="0"/>
        <pt x="221" y="96" on="0"/>
        <pt x="238" y="96" on="1"/>
        <pt x="326" y="96" on="0"/>
        <pt x="354" y="114" on="1"/>
        <pt x="363" y="121" on="0"/>
        <pt x="382" y="153" on="0"/>
        <pt x="390" y="187" on="0"/>
        <pt x="393" y="220" on="1"/>
        <pt x="397" y="263" on="0"/>
        <pt x="397" y="486" on="0"/>
        <pt x="386" y="615" on="0"/>
        <pt x="365" y="662" on="0"/>
        <pt x="348" y="662" on="1"/>
        <pt x="308" y="662" on="0"/>
        <pt x="259" y="655" on="0"/>
        <pt x="221" y="628" on="0"/>
        <pt x="203" y="595" on="0"/>
      </contour>
      <contour>
        <pt x="166" y="828" on="1"/>
        <pt x="127" y="860" on="1"/>
        <pt x="140" y="914" on="1"/>
        <pt x="242" y="1004" on="1"/>
        <pt x="291" y="1024" on="1"/>
        <pt x="340" y="1004" on="1"/>
        <pt x="442" y="914" on="1"/>
        <pt x="455" y="860" on="1"/>
        <pt x="416" y="828" on="1"/>
        <pt x="291" y="909" on="1"/>
      </contour>
    </TTGlyph>
    <TTGlyph name="Odieresis" xMin="31" yMin="-16" xMax="554" yMax="1024">
      <contour>
        <pt x="31" y="371" on="1"/>
        <pt x="31" y="530" on="0"/>
        <pt x="81" y="700" on="0"/>
        <pt x="190" y="768" on="0"/>
        <pt x="396" y="768" on="0"/>
        <pt x="505" y="700" on="0"/>
        <pt x="554" y="531" on="0"/>
        <pt x="554" y="371" on="1"/>
        <pt x="554" y="152" on="0"/>
        <pt x="442" y="-16" on="0"/>
        <pt x="144" y="-16" on="0"/>
        <pt x="31" y="152" on="0"/>
      </contour>
      <contour>
        <pt x="192" y="520" on="0"/>
        <pt x="190" y="443" on="0"/>
        <pt x="190" y="259" on="0"/>
        <pt x="202" y="135" on="0"/>
        <pt x="222" y="96" on="0"/>
        <pt x="239" y="96" on="1"/>
        <pt x="327" y="96" on="0"/>
        <pt x="354" y="114" on="1"/>
        <pt x="364" y="121" on="0"/>
        <pt x="383" y="153" on="0"/>
        <pt x="391" y="187" on="0"/>
        <pt x="394" y="220" on="1"/>
        <pt x="398" y="263" on="0"/>
        <pt x="398" y="486" on="0"/>
        <pt x="387" y="615" on="0"/>
        <pt x="366" y="662" on="0"/>
        <pt x="349" y="662" on="1"/>
        <pt x="309" y="662" on="0"/>
        <pt x="260" y="655" on="0"/>
        <pt x="222" y="628" on="0"/>
        <pt x="204" y="595" on="0"/>
      </contour>
      <contour>
        <pt x="103" y="880" on="0"/>
        <pt x="103" y="1024" on="0"/>
        <pt x="247" y="1024" on="0"/>
        <pt x="247" y="880" on="0"/>
      </contour>
      <contour>
        <pt x="337" y="880" on="0"/>
        <pt x="337" y="1024" on="0"/>
        <pt x="481" y="1024" on="0"/>
        <pt x="481" y="880" on="0"/>
      </contour>
    </TTGlyph>
    <TTGlyph name="Ograve" xMin="31" yMin="-16" xMax="554" yMax="1024">
      <contour>
        <pt x="31" y="371" on="1"/>
        <pt x="31" y="530" on="0"/>
        <pt x="81" y="700" on="0"/>
        <pt x="190" y="768" on="0"/>
        <pt x="396" y="768" on="0"/>
        <pt x="505" y="700" on="0"/>
        <pt x="554" y="531" on="0"/>
        <pt x="554" y="371" on="1"/>
        <pt x="554" y="152" on="0"/>
        <pt x="442" y="-16" on="0"/>
        <pt x="144" y="-16" on="0"/>
        <pt x="31" y="152" on="0"/>
      </contour>
      <contour>
        <pt x="192" y="520" on="0"/>
        <pt x="190" y="443" on="0"/>
        <pt x="190" y="259" on="0"/>
        <pt x="202" y="135" on="0"/>
        <pt x="222" y="96" on="0"/>
        <pt x="239" y="96" on="1"/>
        <pt x="327" y="96" on="0"/>
        <pt x="354" y="114" on="1"/>
        <pt x="364" y="121" on="0"/>
        <pt x="383" y="153" on="0"/>
        <pt x="391" y="187" on="0"/>
        <pt x="394" y="220" on="1"/>
        <pt x="398" y="263" on="0"/>
        <pt x="398" y="486" on="0"/>
        <pt x="387" y="615" on="0"/>
        <pt x="366" y="662" on="0"/>
        <pt x="349" y="662" on="1"/>
        <pt x="309" y="662" on="0"/>
        <pt x="260" y="655" on="0"/>
        <pt x="222" y="628" on="0"/>
        <pt x="204" y="595" on="0"/>
      </contour>
      <contour>
        <pt x="313" y="813" on="1"/>
        <pt x="267" y="792" on="1"/>
        <pt x="107" y="964" on="1"/>
        <pt x="215" y="1024" on="1"/>
        <pt x="257" y="992" on="1"/>
        <pt x="314" y="868" on="1"/>
      </contour>
    </TTGlyph>
    <TTGlyph name="Oslash" xMin="27" yMin="-146" xMax="551" yMax="876">
      <contour>
        <pt x="289" y="756" on="1"/>
        <pt x="326" y="755" on="1"/>
        <pt x="356" y="876" on="1"/>
        <pt x="461" y="876" on="1"/>
        <pt x="461" y="769" on="1"/>
        <pt x="450" y="724" on="1"/>
        <pt x="506" y="690" on="0"/>
        <pt x="551" y="528" on="0"/>
        <pt x="551" y="371" on="1"/>
        <pt x="551" y="152" on="0"/>
        <pt x="439" y="-16" on="0"/>
        <pt x="289" y="-16" on="1"/>
        <pt x="275" y="-16" on="1"/>
        <pt x="245" y="-146" on="1"/>
        <pt x="109" y="-146" on="1"/>
        <pt x="109" y="-114" on="1"/>
        <pt x="141" y="14" on="1"/>
        <pt x="79" y="49" on="0"/>
        <pt x="27" y="217" on="0"/>
        <pt x="27" y="491" on="0"/>
        <pt x="51" y="638" on="0"/>
        <pt x="116" y="725" on="0"/>
        <pt x="211" y="756" on="0"/>
      </contour>
      <contour>
        <pt x="190" y="486" on="0"/>
        <pt x="189" y="424" on="0"/>
        <pt x="189" y="260" on="0"/>
        <pt x="200" y="138" on="0"/>
        <pt x="219" y="99" on="0"/>
        <pt x="235" y="99" on="1"/>
        <pt x="322" y="99" on="0"/>
        <pt x="350" y="118" on="1"/>
        <pt x="389" y="145" on="0"/>
        <pt x="392" y="286" on="1"/>
        <pt x="392" y="319" on="0"/>
        <pt x="392" y="484" on="0"/>
        <pt x="381" y="605" on="0"/>
        <pt x="362" y="646" on="0"/>
        <pt x="345" y="646" on="1"/>
        <pt x="283" y="646" on="0"/>
        <pt x="241" y="632" on="0"/>
        <pt x="221" y="618" on="0"/>
        <pt x="203" y="584" on="0"/>
        <pt x="196" y="551" on="0"/>
      </contour>
    </TTGlyph>
    <TTGlyph name="Otilde" xMin="30" yMin="-16" xMax="553" yMax="985">
      <contour>
        <pt x="30" y="371" on="1"/>
        <pt x="30" y="530" on="0"/>
        <pt x="80" y="700" on="0"/>
        <pt x="189" y="768" on="0"/>
        <pt x="395" y="768" on="0"/>
        <pt x="504" y="700" on="0"/>
        <pt x="553" y="531" on="0"/>
        <pt x="553" y="371" on="1"/>
        <pt x="553" y="152" on="0"/>
        <pt x="441" y="-16" on="0"/>
        <pt x="143" y="-16" on="0"/>
        <pt x="30" y="152" on="0"/>
      </contour>
      <contour>
        <pt x="191" y="520" on="0"/>
        <pt x="189" y="443" on="0"/>
        <pt x="189" y="259" on="0"/>
        <pt x="201" y="135" on="0"/>
        <pt x="221" y="96" on="0"/>
        <pt x="238" y="96" on="1"/>
        <pt x="326" y="96" on="0"/>
        <pt x="354" y="114" on="1"/>
        <pt x="363" y="121" on="0"/>
        <pt x="382" y="153" on="0"/>
        <pt x="390" y="187" on="0"/>
        <pt x="393" y="220" on="1"/>
        <pt x="397" y="263" on="0"/>
        <pt x="397" y="486" on="0"/>
        <pt x="386" y="615" on="0"/>
        <pt x="365" y="662" on="0"/>
        <pt x="348" y="662" on="1"/>
        <pt x="308" y="662" on="0"/>
        <pt x="259" y="655" on="0"/>
        <pt x="221" y="628" on="0"/>
        <pt x="203" y="595" on="0"/>
      </contour>
      <contour>
        <pt x="461" y="884" on="1"/>
        <pt x="454" y="884" on="0"/>
        <pt x="377" y="884" on="0"/>
        <pt x="231" y="864" on="0"/>
        <pt x="131" y="864" on="0"/>
        <pt x="104" y="883" on="0"/>
        <pt x="104" y="916" on="1"/>
        <pt x="129" y="967" on="1"/>
        <pt x="204" y="967" on="0"/>
        <pt x="335" y="985" on="0"/>
        <pt x="441" y="985" on="0"/>
        <pt x="477" y="964" on="0"/>
        <pt x="477" y="929" on="1"/>
      </contour>
    </TTGlyph>
    <TTGlyph name="P" xMin="45" yMin="-16" xMax="466" yMax="768">
      <contour>
        <pt x="45" y="22" on="1"/>
        <pt x="45" y="752" on="1"/>
        <pt x="146" y="768" on="0"/>
        <pt x="223" y="768" on="1"/>
        <pt x="359" y="768" on="0"/>
        <pt x="466" y="654" on="0"/>
        <pt x="466" y="532" on="1"/>
        <pt x="466" y="388" on="0"/>
        <pt x="394" y="335" on="1"/>
        <pt x="347" y="301" on="0"/>
        <pt x="302" y="293" on="1"/>
        <pt x="244" y="284" on="0"/>
        <pt x="170" y="284" on="1"/>
        <pt x="170" y="23" on="1"/>
        <pt x="170" y="4" on="0"/>
        <pt x="168" y="-2" on="1"/>
        <pt x="165" y="-16" on="0"/>
        <pt x="130" y="-16" on="1"/>
        <pt x="45" y="-16" on="0"/>
      </contour>
      <contour>
        <pt x="177" y="422" on="0"/>
        <pt x="182" y="421" on="0"/>
        <pt x="223" y="421" on="0"/>
        <pt x="257" y="423" on="0"/>
        <pt x="296" y="434" on="0"/>
        <pt x="304" y="446" on="1"/>
        <pt x="322" y="476" on="0"/>
        <pt x="322" y="582" on="0"/>
        <pt x="290" y="649" on="0"/>
        <pt x="272" y="649" on="1"/>
        <pt x="200" y="649" on="0"/>
        <pt x="170" y="643" on="0"/>
        <pt x="170" y="626" on="1"/>
        <pt x="170" y="436" on="1"/>
        <pt x="170" y="425" on="0"/>
      </contour>
    </TTGlyph>
    <TTGlyph name="P_smcp" xMin="33" yMin="-6" xMax="329" yMax="531">
      <contour>
        <pt x="33" y="28" on="1"/>
        <pt x="33" y="522" on="1"/>
        <pt x="99" y="531" on="0"/>
        <pt x="158" y="531" on="1"/>
        <pt x="254" y="531" on="0"/>
        <pt x="329" y="452" on="0"/>
        <pt x="329" y="367" on="1"/>
        <pt x="329" y="253" on="0"/>
        <pt x="264" y="220" on="1"/>
        <pt x="233" y="204" on="0"/>
        <pt x="175" y="194" on="0"/>
        <pt x="132" y="194" on="1"/>
        <pt x="132" y="28" on="1"/>
        <pt x="132" y="12" on="0"/>
        <pt x="130" y="6" on="1"/>
        <pt x="127" y="-6" on="0"/>
        <pt x="96" y="-6" on="1"/>
        <pt x="33" y="-6" on="0"/>
      </contour>
      <contour>
        <pt x="132" y="303" on="1"/>
        <pt x="132" y="301" on="0"/>
        <pt x="162" y="301" on="0"/>
        <pt x="185" y="303" on="0"/>
        <pt x="209" y="316" on="0"/>
        <pt x="217" y="343" on="0"/>
        <pt x="217" y="397" on="0"/>
        <pt x="200" y="436" on="0"/>
        <pt x="191" y="436" on="1"/>
        <pt x="150" y="436" on="0"/>
        <pt x="132" y="434" on="0"/>
        <pt x="132" y="430" on="1"/>
      </contour>
    </TTGlyph>
    <TTGlyph name="Q" xMin="32" yMin="-187" xMax="555" yMax="768">
      <contour>
        <pt x="32" y="371" on="1"/>
        <pt x="32" y="530" on="0"/>
        <pt x="82" y="700" on="0"/>
        <pt x="191" y="768" on="0"/>
        <pt x="397" y="768" on="0"/>
        <pt x="506" y="700" on="0"/>
        <pt x="555" y="531" on="0"/>
        <pt x="555" y="371" on="1"/>
        <pt x="555" y="152" on="0"/>
        <pt x="443" y="-16" on="0"/>
        <pt x="145" y="-16" on="0"/>
        <pt x="32" y="152" on="0"/>
      </contour>
      <contour>
        <pt x="193" y="520" on="0"/>
        <pt x="191" y="443" on="0"/>
        <pt x="191" y="259" on="0"/>
        <pt x="203" y="135" on="0"/>
        <pt x="223" y="96" on="0"/>
        <pt x="240" y="96" on="1"/>
        <pt x="328" y="96" on="0"/>
        <pt x="356" y="114" on="1"/>
        <pt x="365" y="121" on="0"/>
        <pt x="384" y="153" on="0"/>
        <pt x="392" y="187" on="0"/>
        <pt x="395" y="220" on="1"/>
        <pt x="399" y="263" on="0"/>
        <pt x="399" y="486" on="0"/>
        <pt x="388" y="615" on="0"/>
        <pt x="367" y="662" on="0"/>
        <pt x="350" y="662" on="1"/>
        <pt x="310" y="662" on="0"/>
        <pt x="261" y="655" on="0"/>
        <pt x="223" y="628" on="0"/>
        <pt x="205" y="595" on="0"/>
      </contour>
      <contour>
        <pt x="513" y="-165" on="0"/>
        <pt x="484" y="-187" on="0"/>
        <pt x="394" y="-187" on="0"/>
        <pt x="183" y="-165" on="0"/>
        <pt x="127" y="-165" on="1"/>
        <pt x="111" y="-116" on="1"/>
        <pt x="112" y="-81" on="0"/>
        <pt x="148" y="-56" on="0"/>
        <pt x="231" y="-56" on="0"/>
        <pt x="434" y="-76" on="0"/>
        <pt x="489" y="-76" on="1"/>
        <pt x="514" y="-133" on="1"/>
      </contour>
    </TTGlyph>
    <TTGlyph name="Q_smcp" xMin="23" yMin="-136" xMax="387" yMax="531">
      <contour>
        <pt x="101" y="-6" on="0"/>
        <pt x="23" y="109" on="0"/>
        <pt x="23" y="419" on="0"/>
        <pt x="100" y="531" on="0"/>
        <pt x="310" y="531" on="0"/>
        <pt x="387" y="419" on="0"/>
        <pt x="387" y="109" on="0"/>
        <pt x="308" y="-6" on="0"/>
      </contour>
      <contour>
        <pt x="175" y="445" on="0"/>
        <pt x="145" y="384" on="0"/>
        <pt x="145" y="187" on="0"/>
        <pt x="151" y="109" on="0"/>
        <pt x="160" y="84" on="0"/>
        <pt x="169" y="84" on="1"/>
        <pt x="206" y="84" on="0"/>
        <pt x="240" y="91" on="0"/>
        <pt x="263" y="132" on="0"/>
        <pt x="267" y="193" on="0"/>
        <pt x="267" y="260" on="1"/>
        <pt x="267" y="445" on="0"/>
        <pt x="243" y="445" on="1"/>
      </contour>
      <contour>
        <pt x="358" y="-117" on="0"/>
        <pt x="336" y="-136" on="0"/>
        <pt x="271" y="-136" on="0"/>
        <pt x="127" y="-121" on="0"/>
        <pt x="88" y="-121" on="1"/>
        <pt x="75" y="-82" on="1"/>
        <pt x="76" y="-33" on="0"/>
        <pt x="130" y="-33" on="1"/>
        <pt x="164" y="-33" on="0"/>
        <pt x="304" y="-47" on="0"/>
        <pt x="342" y="-47" on="1"/>
        <pt x="359" y="-90" on="1"/>
      </contour>
    </TTGlyph>
    <TTGlyph name="R" xMin="45" yMin="-16" xMax="510" yMax="768">
      <contour>
        <pt x="45" y="24" on="1"/>
        <pt x="45" y="752" on="1"/>
        <pt x="147" y="768" on="0"/>
        <pt x="222" y="768" on="1"/>
        <pt x="361" y="768" on="0"/>
        <pt x="467" y="664" on="0"/>
        <pt x="467" y="544" on="1"/>
        <pt x="467" y="376" on="0"/>
        <pt x="373" y="320" on="1"/>
        <pt x="499" y="35" on="1"/>
        <pt x="510" y="10" on="0"/>
        <pt x="510" y="-5" on="0"/>
        <pt x="508" y="-7" on="1"/>
        <pt x="504" y="-16" on="0"/>
        <pt x="474" y="-16" on="1"/>
        <pt x="377" y="-16" on="0"/>
        <pt x="360" y="22" on="1"/>
        <pt x="246" y="286" on="1"/>
        <pt x="221" y="284" on="0"/>
        <pt x="171" y="284" on="1"/>
        <pt x="171" y="26" on="1"/>
        <pt x="171" y="-2" on="0"/>
        <pt x="160" y="-16" on="0"/>
        <pt x="131" y="-16" on="1"/>
        <pt x="45" y="-16" on="0"/>
      </contour>
      <contour>
        <pt x="187" y="421" on="1"/>
        <pt x="267" y="421" on="0"/>
        <pt x="323" y="466" on="0"/>
        <pt x="323" y="545" on="1"/>
        <pt x="323" y="593" on="0"/>
        <pt x="292" y="649" on="0"/>
        <pt x="273" y="649" on="1"/>
        <pt x="202" y="649" on="0"/>
        <pt x="171" y="643" on="0"/>
        <pt x="171" y="626" on="1"/>
        <pt x="171" y="436" on="1"/>
        <pt x="171" y="423" on="0"/>
        <pt x="181" y="421" on="0"/>
      </contour>
    </TTGlyph>
    <TTGlyph name="R_smcp" xMin="32" yMin="-6" xMax="358" yMax="531">
      <contour>
        <pt x="32" y="29" on="1"/>
        <pt x="32" y="522" on="1"/>
        <pt x="100" y="531" on="0"/>
        <pt x="157" y="531" on="1"/>
        <pt x="254" y="531" on="0"/>
        <pt x="329" y="459" on="0"/>
        <pt x="329" y="375" on="1"/>
        <pt x="329" y="269" on="0"/>
        <pt x="267" y="224" on="1"/>
        <pt x="358" y="20" on="0"/>
        <pt x="358" y="11" on="1"/>
        <pt x="358" y="-6" on="0"/>
        <pt x="326" y="-6" on="1"/>
        <pt x="254" y="-6" on="0"/>
        <pt x="241" y="24" on="1"/>
        <pt x="167" y="195" on="1"/>
        <pt x="154" y="194" on="0"/>
        <pt x="132" y="194" on="1"/>
        <pt x="132" y="30" on="1"/>
        <pt x="132" y="6" on="0"/>
        <pt x="122" y="-6" on="0"/>
        <pt x="97" y="-6" on="1"/>
        <pt x="32" y="-6" on="0"/>
      </contour>
      <contour>
        <pt x="135" y="301" on="1"/>
        <pt x="183" y="301" on="0"/>
        <pt x="217" y="328" on="0"/>
        <pt x="217" y="403" on="0"/>
        <pt x="200" y="436" on="0"/>
        <pt x="191" y="436" on="1"/>
        <pt x="150" y="436" on="0"/>
        <pt x="132" y="434" on="0"/>
        <pt x="132" y="430" on="1"/>
        <pt x="132" y="303" on="1"/>
        <pt x="132" y="301" on="0"/>
      </contour>
    </TTGlyph>
    <TTGlyph name="S" xMin="27" yMin="-16" xMax="493" yMax="768">
      <contour>
        <pt x="27" y="99" on="0"/>
        <pt x="27" y="126" on="0"/>
        <pt x="74" y="173" on="0"/>
        <pt x="89" y="177" on="0"/>
        <pt x="103" y="177" on="0"/>
        <pt x="119" y="168" on="1"/>
        <pt x="193" y="110" on="0"/>
        <pt x="305" y="110" on="0"/>
        <pt x="339" y="162" on="0"/>
        <pt x="339" y="246" on="0"/>
        <pt x="279" y="298" on="0"/>
        <pt x="142" y="372" on="0"/>
        <pt x="40" y="490" on="0"/>
        <pt x="40" y="553" on="1"/>
        <pt x="40" y="665" on="0"/>
        <pt x="157" y="768" on="0"/>
        <pt x="270" y="768" on="1"/>
        <pt x="339" y="768" on="0"/>
        <pt x="405" y="735" on="1"/>
        <pt x="440" y="721" on="0"/>
        <pt x="438" y="706" on="1"/>
        <pt x="437" y="700" on="0"/>
        <pt x="436" y="688" on="1"/>
        <pt x="417" y="634" on="0"/>
        <pt x="407" y="626" on="1"/>
        <pt x="404" y="624" on="0"/>
        <pt x="383" y="624" on="0"/>
        <pt x="293" y="657" on="0"/>
        <pt x="230" y="657" on="0"/>
        <pt x="188" y="613" on="0"/>
        <pt x="188" y="533" on="0"/>
        <pt x="260" y="468" on="0"/>
        <pt x="335" y="433" on="1"/>
        <pt x="414" y="392" on="0"/>
        <pt x="493" y="304" on="0"/>
        <pt x="493" y="230" on="1"/>
        <pt x="493" y="-16" on="0"/>
        <pt x="285" y="-16" on="1"/>
        <pt x="130" y="-16" on="0"/>
        <pt x="48" y="73" on="1"/>
      </contour>
    </TTGlyph>
    <TTGlyph name="S_smcp" xMin="18" yMin="-6" xMax="343" yMax="531">
      <contour>
        <pt x="18" y="87" on="1"/>
        <pt x="18" y="101" on="0"/>
        <pt x="50" y="139" on="0"/>
        <pt x="75" y="141" on="0"/>
        <pt x="90" y="131" on="1"/>
        <pt x="139" y="94" on="0"/>
        <pt x="206" y="94" on="0"/>
        <pt x="226" y="125" on="0"/>
        <pt x="226" y="173" on="0"/>
        <pt x="186" y="206" on="0"/>
        <pt x="97" y="252" on="0"/>
        <pt x="27" y="337" on="0"/>
        <pt x="27" y="381" on="1"/>
        <pt x="27" y="460" on="0"/>
        <pt x="107" y="531" on="0"/>
        <pt x="187" y="531" on="1"/>
        <pt x="223" y="531" on="0"/>
        <pt x="254" y="522" on="1"/>
        <pt x="307" y="507" on="0"/>
        <pt x="307" y="477" on="1"/>
        <pt x="307" y="473" on="0"/>
        <pt x="306" y="469" on="1"/>
        <pt x="293" y="433" on="0"/>
        <pt x="280" y="426" on="1"/>
        <pt x="275" y="422" on="0"/>
        <pt x="256" y="422" on="0"/>
        <pt x="197" y="442" on="0"/>
        <pt x="163" y="442" on="0"/>
        <pt x="140" y="418" on="0"/>
        <pt x="140" y="370" on="0"/>
        <pt x="186" y="332" on="0"/>
        <pt x="234" y="309" on="1"/>
        <pt x="289" y="279" on="0"/>
        <pt x="343" y="218" on="0"/>
        <pt x="343" y="165" on="1"/>
        <pt x="343" y="-6" on="0"/>
        <pt x="197" y="-6" on="1"/>
        <pt x="116" y="-6" on="0"/>
        <pt x="53" y="34" on="1"/>
        <pt x="18" y="57" on="0"/>
      </contour>
    </TTGlyph>
    <TTGlyph name="Scaron" xMin="27" yMin="-16" xMax="493" yMax="1033">
      <contour>
        <pt x="93" y="1001" on="1"/>
        <pt x="132" y="1033" on="1"/>
        <pt x="257" y="951" on="1"/>
        <pt x="382" y="1033" on="1"/>
        <pt x="421" y="1001" on="1"/>
        <pt x="408" y="947" on="1"/>
        <pt x="306" y="857" on="1"/>
        <pt x="257" y="837" on="1"/>
        <pt x="208" y="857" on="1"/>
        <pt x="106" y="947" on="1"/>
      </contour>
      <contour>
        <pt x="27" y="99" on="0"/>
        <pt x="27" y="126" on="0"/>
        <pt x="74" y="173" on="0"/>
        <pt x="89" y="177" on="0"/>
        <pt x="103" y="177" on="0"/>
        <pt x="119" y="168" on="1"/>
        <pt x="193" y="110" on="0"/>
        <pt x="305" y="110" on="0"/>
        <pt x="339" y="162" on="0"/>
        <pt x="339" y="246" on="0"/>
        <pt x="279" y="298" on="0"/>
        <pt x="142" y="372" on="0"/>
        <pt x="40" y="490" on="0"/>
        <pt x="40" y="553" on="1"/>
        <pt x="40" y="665" on="0"/>
        <pt x="157" y="768" on="0"/>
        <pt x="270" y="768" on="1"/>
        <pt x="339" y="768" on="0"/>
        <pt x="405" y="735" on="1"/>
        <pt x="440" y="721" on="0"/>
        <pt x="438" y="706" on="1"/>
        <pt x="437" y="700" on="0"/>
        <pt x="436" y="688" on="1"/>
        <pt x="417" y="634" on="0"/>
        <pt x="407" y="626" on="1"/>
        <pt x="404" y="624" on="0"/>
        <pt x="383" y="624" on="0"/>
        <pt x="293" y="657" on="0"/>
        <pt x="230" y="657" on="0"/>
        <pt x="188" y="613" on="0"/>
        <pt x="188" y="533" on="0"/>
        <pt x="260" y="468" on="0"/>
        <pt x="335" y="433" on="1"/>
        <pt x="414" y="392" on="0"/>
        <pt x="493" y="304" on="0"/>
        <pt x="493" y="230" on="1"/>
        <pt x="493" y="-16" on="0"/>
        <pt x="285" y="-16" on="1"/>
        <pt x="130" y="-16" on="0"/>
        <pt x="48" y="73" on="1"/>
      </contour>
    </TTGlyph>
    <TTGlyph name="T" xMin="6" yMin="-16" xMax="463" yMax="752">
      <contour>
        <pt x="172" y="21" on="1"/>
        <pt x="172" y="632" on="1"/>
        <pt x="47" y="632" on="1"/>
        <pt x="23" y="633" on="0"/>
        <pt x="16" y="645" on="1"/>
        <pt x="7" y="659" on="0"/>
        <pt x="7" y="695" on="1"/>
        <pt x="7" y="752" on="0"/>
        <pt x="41" y="752" on="1"/>
        <pt x="405" y="752" on="1"/>
        <pt x="463" y="752" on="0"/>
        <pt x="463" y="721" on="1"/>
        <pt x="463" y="632" on="0"/>
        <pt x="415" y="632" on="1"/>
        <pt x="303" y="633" on="1"/>
        <pt x="312" y="430" on="1"/>
        <pt x="313" y="23" on="1"/>
        <pt x="313" y="4" on="0"/>
        <pt x="312" y="-2" on="1"/>
        <pt x="308" y="-16" on="0"/>
        <pt x="273" y="-16" on="1"/>
        <pt x="172" y="-16" on="0"/>
      </contour>
    </TTGlyph>
    <TTGlyph name="T_i" xMin="10" yMin="-16" xMax="592" yMax="752">
      <contour>
        <pt x="176" y="21" on="1"/>
        <pt x="176" y="632" on="1"/>
        <pt x="51" y="632" on="1"/>
        <pt x="27" y="633" on="0"/>
        <pt x="20" y="645" on="1"/>
        <pt x="11" y="659" on="0"/>
        <pt x="11" y="695" on="1"/>
        <pt x="11" y="752" on="0"/>
        <pt x="45" y="752" on="1"/>
        <pt x="534" y="752" on="1"/>
        <pt x="592" y="752" on="0"/>
        <pt x="592" y="721" on="1"/>
        <pt x="592" y="632" on="0"/>
        <pt x="544" y="632" on="1"/>
        <pt x="307" y="633" on="1"/>
        <pt x="316" y="430" on="1"/>
        <pt x="317" y="23" on="1"/>
        <pt x="317" y="4" on="0"/>
        <pt x="316" y="-2" on="1"/>
        <pt x="312" y="-16" on="0"/>
        <pt x="277" y="-16" on="1"/>
        <pt x="176" y="-16" on="0"/>
      </contour>
      <contour>
        <pt x="433" y="0" on="1"/>
        <pt x="433" y="496" on="1"/>
        <pt x="433" y="512" on="0"/>
        <pt x="505" y="512" on="0"/>
        <pt x="569" y="502" on="0"/>
        <pt x="569" y="496" on="1"/>
        <pt x="569" y="0" on="1"/>
        <pt x="569" y="-6" on="0"/>
        <pt x="568" y="-8" on="1"/>
        <pt x="563" y="-16" on="0"/>
        <pt x="497" y="-16" on="0"/>
        <pt x="433" y="-6" on="0"/>
      </contour>
    </TTGlyph>
    <TTGlyph name="T_iacute" xMin="10" yMin="-16" xMax="671" yMax="752">
      <contour>
        <pt x="176" y="21" on="1"/>
        <pt x="176" y="632" on="1"/>
        <pt x="51" y="632" on="1"/>
        <pt x="27" y="633" on="0"/>
        <pt x="20" y="645" on="1"/>
        <pt x="11" y="659" on="0"/>
        <pt x="11" y="695" on="1"/>
        <pt x="11" y="752" on="0"/>
        <pt x="45" y="752" on="1"/>
        <pt x="534" y="752" on="1"/>
        <pt x="554" y="752" on="0"/>
        <pt x="601" y="732" on="0"/>
        <pt x="671" y="692" on="1"/>
        <pt x="528" y="533" on="1"/>
        <pt x="482" y="554" on="1"/>
        <pt x="481" y="609" on="1"/>
        <pt x="491" y="632" on="1"/>
        <pt x="307" y="633" on="1"/>
        <pt x="316" y="430" on="1"/>
        <pt x="317" y="23" on="1"/>
        <pt x="317" y="4" on="0"/>
        <pt x="316" y="-2" on="1"/>
        <pt x="312" y="-16" on="0"/>
        <pt x="277" y="-16" on="1"/>
        <pt x="176" y="-16" on="0"/>
      </contour>
      <contour>
        <pt x="433" y="0" on="1"/>
        <pt x="433" y="496" on="1"/>
        <pt x="433" y="512" on="0"/>
        <pt x="505" y="512" on="0"/>
        <pt x="569" y="502" on="0"/>
        <pt x="569" y="496" on="1"/>
        <pt x="569" y="0" on="1"/>
        <pt x="569" y="-6" on="0"/>
        <pt x="568" y="-8" on="1"/>
        <pt x="563" y="-16" on="0"/>
        <pt x="497" y="-16" on="0"/>
        <pt x="433" y="-6" on="0"/>
      </contour>
    </TTGlyph>
    <TTGlyph name="T_igrave" xMin="10" yMin="-16" xMax="567" yMax="752">
      <contour>
        <pt x="176" y="21" on="1"/>
        <pt x="176" y="632" on="1"/>
        <pt x="51" y="632" on="1"/>
        <pt x="27" y="633" on="0"/>
        <pt x="20" y="645" on="1"/>
        <pt x="11" y="659" on="0"/>
        <pt x="11" y="695" on="1"/>
        <pt x="11" y="752" on="0"/>
        <pt x="45" y="752" on="1"/>
        <pt x="399" y="752" on="1"/>
        <pt x="431" y="752" on="0"/>
        <pt x="469" y="705" on="0"/>
        <pt x="511" y="609" on="1"/>
        <pt x="510" y="554" on="1"/>
        <pt x="464" y="533" on="1"/>
        <pt x="372" y="632" on="1"/>
        <pt x="307" y="633" on="1"/>
        <pt x="316" y="430" on="1"/>
        <pt x="317" y="23" on="1"/>
        <pt x="317" y="4" on="0"/>
        <pt x="316" y="-2" on="1"/>
        <pt x="312" y="-16" on="0"/>
        <pt x="277" y="-16" on="1"/>
        <pt x="176" y="-16" on="0"/>
      </contour>
      <contour>
        <pt x="431" y="0" on="1"/>
        <pt x="431" y="496" on="1"/>
        <pt x="431" y="512" on="0"/>
        <pt x="503" y="512" on="0"/>
        <pt x="567" y="502" on="0"/>
        <pt x="567" y="496" on="1"/>
        <pt x="567" y="0" on="1"/>
        <pt x="567" y="-6" on="0"/>
        <pt x="566" y="-8" on="1"/>
        <pt x="561" y="-16" on="0"/>
        <pt x="495" y="-16" on="0"/>
        <pt x="431" y="-6" on="0"/>
      </contour>
    </TTGlyph>
    <TTGlyph name="T_smcp" xMin="4" yMin="-6" xMax="323" yMax="522">
      <contour>
        <pt x="115" y="27" on="1"/>
        <pt x="115" y="427" on="1"/>
        <pt x="38" y="427" on="1"/>
        <pt x="19" y="427" on="0"/>
        <pt x="12" y="436" on="1"/>
        <pt x="5" y="447" on="0"/>
        <pt x="5" y="477" on="1"/>
        <pt x="5" y="522" on="0"/>
        <pt x="34" y="522" on="1"/>
        <pt x="278" y="522" on="1"/>
        <pt x="323" y="522" on="0"/>
        <pt x="323" y="493" on="1"/>
        <pt x="323" y="427" on="0"/>
        <pt x="285" y="427" on="1"/>
        <pt x="218" y="427" on="1"/>
        <pt x="225" y="299" on="1"/>
        <pt x="225" y="28" on="1"/>
        <pt x="225" y="6" on="0"/>
        <pt x="215" y="-6" on="0"/>
        <pt x="190" y="-6" on="1"/>
        <pt x="115" y="-6" on="0"/>
      </contour>
    </TTGlyph>
    <TTGlyph name="Thorn" xMin="46" yMin="-16" xMax="435" yMax="771">
      <contour>
        <pt x="170" y="-14" on="1"/>
        <pt x="155" y="-16" on="1"/>
        <pt x="143" y="-16" on="1"/>
        <pt x="110" y="-16" on="0"/>
        <pt x="46" y="-6" on="0"/>
        <pt x="46" y="0" on="1"/>
        <pt x="46" y="755" on="1"/>
        <pt x="46" y="771" on="0"/>
        <pt x="118" y="771" on="0"/>
        <pt x="179" y="761" on="0"/>
        <pt x="179" y="755" on="1"/>
        <pt x="179" y="627" on="1"/>
        <pt x="227" y="627" on="1"/>
        <pt x="348" y="627" on="0"/>
        <pt x="435" y="520" on="0"/>
        <pt x="435" y="220" on="0"/>
        <pt x="366" y="99" on="0"/>
        <pt x="292" y="99" on="1"/>
        <pt x="264" y="99" on="0"/>
        <pt x="179" y="110" on="1"/>
        <pt x="179" y="-6" on="1"/>
        <pt x="179" y="-10" on="0"/>
        <pt x="176" y="-11" on="0"/>
        <pt x="173" y="-14" on="0"/>
      </contour>
      <contour>
        <pt x="179" y="531" on="1"/>
        <pt x="179" y="195" on="1"/>
        <pt x="275" y="195" on="1"/>
        <pt x="286" y="195" on="0"/>
        <pt x="291" y="280" on="0"/>
        <pt x="291" y="470" on="0"/>
        <pt x="264" y="531" on="0"/>
        <pt x="227" y="531" on="1"/>
      </contour>
    </TTGlyph>
    <TTGlyph name="U" xMin="41" yMin="-16" xMax="510" yMax="768">
      <contour>
        <pt x="367" y="722" on="1"/>
        <pt x="367" y="750" on="0"/>
        <pt x="391" y="768" on="0"/>
        <pt x="467" y="768" on="0"/>
        <pt x="496" y="744" on="0"/>
        <pt x="497" y="698" on="1"/>
        <pt x="509" y="429" on="1"/>
        <pt x="509" y="414" on="0"/>
        <pt x="509" y="399" on="1"/>
        <pt x="509" y="244" on="0"/>
        <pt x="468" y="62" on="0"/>
        <pt x="369" y="-16" on="0"/>
        <pt x="277" y="-16" on="1"/>
        <pt x="143" y="-16" on="0"/>
        <pt x="41" y="152" on="0"/>
        <pt x="41" y="370" on="1"/>
        <pt x="41" y="700" on="1"/>
        <pt x="41" y="743" on="0"/>
        <pt x="66" y="768" on="0"/>
        <pt x="144" y="768" on="0"/>
        <pt x="172" y="741" on="0"/>
        <pt x="174" y="690" on="1"/>
        <pt x="188" y="431" on="1"/>
        <pt x="188" y="178" on="0"/>
        <pt x="208" y="130" on="1"/>
        <pt x="216" y="109" on="0"/>
        <pt x="231" y="109" on="1"/>
        <pt x="266" y="109" on="0"/>
        <pt x="304" y="112" on="0"/>
        <pt x="340" y="133" on="0"/>
        <pt x="354" y="161" on="0"/>
        <pt x="360" y="194" on="1"/>
        <pt x="367" y="240" on="0"/>
        <pt x="367" y="370" on="1"/>
      </contour>
    </TTGlyph>
    <TTGlyph name="U_smcp" xMin="29" yMin="-6" xMax="356" yMax="531">
      <contour>
        <pt x="245" y="494" on="1"/>
        <pt x="245" y="517" on="0"/>
        <pt x="264" y="531" on="0"/>
        <pt x="326" y="531" on="0"/>
        <pt x="346" y="514" on="0"/>
        <pt x="347" y="477" on="1"/>
        <pt x="355" y="299" on="1"/>
        <pt x="355" y="294" on="0"/>
        <pt x="355" y="289" on="1"/>
        <pt x="355" y="118" on="0"/>
        <pt x="289" y="-6" on="0"/>
        <pt x="100" y="-6" on="0"/>
        <pt x="29" y="108" on="0"/>
        <pt x="29" y="258" on="1"/>
        <pt x="29" y="479" on="1"/>
        <pt x="29" y="513" on="0"/>
        <pt x="48" y="531" on="0"/>
        <pt x="110" y="531" on="0"/>
        <pt x="132" y="512" on="0"/>
        <pt x="133" y="472" on="1"/>
        <pt x="143" y="300" on="1"/>
        <pt x="143" y="134" on="0"/>
        <pt x="155" y="93" on="0"/>
        <pt x="162" y="93" on="1"/>
        <pt x="194" y="93" on="0"/>
        <pt x="222" y="99" on="0"/>
        <pt x="242" y="138" on="0"/>
        <pt x="245" y="195" on="0"/>
        <pt x="245" y="258" on="1"/>
      </contour>
    </TTGlyph>
    <TTGlyph name="U_smcpacute" xMin="26" yMin="-6" xMax="353" yMax="784">
      <contour>
        <pt x="189" y="552" on="1"/>
        <pt x="143" y="573" on="1"/>
        <pt x="142" y="628" on="1"/>
        <pt x="199" y="752" on="1"/>
        <pt x="241" y="784" on="1"/>
        <pt x="349" y="724" on="1"/>
      </contour>
      <contour>
        <pt x="242" y="494" on="1"/>
        <pt x="242" y="517" on="0"/>
        <pt x="261" y="531" on="0"/>
        <pt x="323" y="531" on="0"/>
        <pt x="343" y="514" on="0"/>
        <pt x="344" y="477" on="1"/>
        <pt x="352" y="299" on="1"/>
        <pt x="352" y="294" on="0"/>
        <pt x="352" y="289" on="1"/>
        <pt x="352" y="118" on="0"/>
        <pt x="286" y="-6" on="0"/>
        <pt x="97" y="-6" on="0"/>
        <pt x="26" y="108" on="0"/>
        <pt x="26" y="258" on="1"/>
        <pt x="26" y="479" on="1"/>
        <pt x="26" y="513" on="0"/>
        <pt x="45" y="531" on="0"/>
        <pt x="107" y="531" on="0"/>
        <pt x="129" y="512" on="0"/>
        <pt x="130" y="472" on="1"/>
        <pt x="140" y="300" on="1"/>
        <pt x="140" y="134" on="0"/>
        <pt x="152" y="93" on="0"/>
        <pt x="159" y="93" on="1"/>
        <pt x="191" y="93" on="0"/>
        <pt x="219" y="99" on="0"/>
        <pt x="239" y="138" on="0"/>
        <pt x="242" y="195" on="0"/>
        <pt x="242" y="258" on="1"/>
      </contour>
    </TTGlyph>
    <TTGlyph name="U_smcpcircunflex" xMin="41" yMin="-6" xMax="369" yMax="784">
      <contour>
        <pt x="80" y="588" on="1"/>
        <pt x="41" y="620" on="1"/>
        <pt x="54" y="674" on="1"/>
        <pt x="156" y="764" on="1"/>
        <pt x="205" y="784" on="1"/>
        <pt x="254" y="764" on="1"/>
        <pt x="356" y="674" on="1"/>
        <pt x="369" y="620" on="1"/>
        <pt x="330" y="588" on="1"/>
        <pt x="205" y="669" on="1"/>
      </contour>
      <contour>
        <pt x="258" y="494" on="1"/>
        <pt x="258" y="517" on="0"/>
        <pt x="277" y="531" on="0"/>
        <pt x="339" y="531" on="0"/>
        <pt x="359" y="514" on="0"/>
        <pt x="360" y="477" on="1"/>
        <pt x="368" y="299" on="1"/>
        <pt x="368" y="294" on="0"/>
        <pt x="368" y="289" on="1"/>
        <pt x="368" y="118" on="0"/>
        <pt x="302" y="-6" on="0"/>
        <pt x="113" y="-6" on="0"/>
        <pt x="42" y="108" on="0"/>
        <pt x="42" y="258" on="1"/>
        <pt x="42" y="479" on="1"/>
        <pt x="42" y="513" on="0"/>
        <pt x="61" y="531" on="0"/>
        <pt x="123" y="531" on="0"/>
        <pt x="145" y="512" on="0"/>
        <pt x="146" y="472" on="1"/>
        <pt x="156" y="300" on="1"/>
        <pt x="156" y="134" on="0"/>
        <pt x="168" y="93" on="0"/>
        <pt x="175" y="93" on="1"/>
        <pt x="207" y="93" on="0"/>
        <pt x="235" y="99" on="0"/>
        <pt x="255" y="138" on="0"/>
        <pt x="258" y="195" on="0"/>
        <pt x="258" y="258" on="1"/>
      </contour>
    </TTGlyph>
    <TTGlyph name="U_smcpdieresis" xMin="34" yMin="-6" xMax="412" yMax="784">
      <contour>
        <pt x="34" y="640" on="0"/>
        <pt x="34" y="784" on="0"/>
        <pt x="178" y="784" on="0"/>
        <pt x="178" y="640" on="0"/>
      </contour>
      <contour>
        <pt x="268" y="640" on="0"/>
        <pt x="268" y="784" on="0"/>
        <pt x="412" y="784" on="0"/>
        <pt x="412" y="640" on="0"/>
      </contour>
      <contour>
        <pt x="282" y="494" on="1"/>
        <pt x="282" y="517" on="0"/>
        <pt x="301" y="531" on="0"/>
        <pt x="363" y="531" on="0"/>
        <pt x="383" y="514" on="0"/>
        <pt x="384" y="477" on="1"/>
        <pt x="392" y="299" on="1"/>
        <pt x="392" y="294" on="0"/>
        <pt x="392" y="289" on="1"/>
        <pt x="392" y="118" on="0"/>
        <pt x="326" y="-6" on="0"/>
        <pt x="137" y="-6" on="0"/>
        <pt x="66" y="108" on="0"/>
        <pt x="66" y="258" on="1"/>
        <pt x="66" y="479" on="1"/>
        <pt x="66" y="513" on="0"/>
        <pt x="85" y="531" on="0"/>
        <pt x="147" y="531" on="0"/>
        <pt x="169" y="512" on="0"/>
        <pt x="170" y="472" on="1"/>
        <pt x="180" y="300" on="1"/>
        <pt x="180" y="134" on="0"/>
        <pt x="192" y="93" on="0"/>
        <pt x="199" y="93" on="1"/>
        <pt x="231" y="93" on="0"/>
        <pt x="259" y="99" on="0"/>
        <pt x="279" y="138" on="0"/>
        <pt x="282" y="195" on="0"/>
        <pt x="282" y="258" on="1"/>
      </contour>
    </TTGlyph>
    <TTGlyph name="U_smcpgrave" xMin="36" yMin="-6" xMax="363" yMax="784">
      <contour>
        <pt x="242" y="573" on="1"/>
        <pt x="196" y="552" on="1"/>
        <pt x="36" y="724" on="1"/>
        <pt x="144" y="784" on="1"/>
        <pt x="186" y="752" on="1"/>
        <pt x="243" y="628" on="1"/>
      </contour>
      <contour>
        <pt x="252" y="494" on="1"/>
        <pt x="252" y="517" on="0"/>
        <pt x="271" y="531" on="0"/>
        <pt x="333" y="531" on="0"/>
        <pt x="353" y="514" on="0"/>
        <pt x="354" y="477" on="1"/>
        <pt x="362" y="299" on="1"/>
        <pt x="362" y="294" on="0"/>
        <pt x="362" y="289" on="1"/>
        <pt x="362" y="118" on="0"/>
        <pt x="296" y="-6" on="0"/>
        <pt x="107" y="-6" on="0"/>
        <pt x="36" y="108" on="0"/>
        <pt x="36" y="258" on="1"/>
        <pt x="36" y="479" on="1"/>
        <pt x="36" y="513" on="0"/>
        <pt x="55" y="531" on="0"/>
        <pt x="117" y="531" on="0"/>
        <pt x="139" y="512" on="0"/>
        <pt x="140" y="472" on="1"/>
        <pt x="150" y="300" on="1"/>
        <pt x="150" y="134" on="0"/>
        <pt x="162" y="93" on="0"/>
        <pt x="169" y="93" on="1"/>
        <pt x="201" y="93" on="0"/>
        <pt x="229" y="99" on="0"/>
        <pt x="249" y="138" on="0"/>
        <pt x="252" y="195" on="0"/>
        <pt x="252" y="258" on="1"/>
      </contour>
    </TTGlyph>
    <TTGlyph name="Uacute" xMin="26" yMin="-16" xMax="495" yMax="1024">
      <contour>
        <pt x="278" y="792" on="1"/>
        <pt x="232" y="813" on="1"/>
        <pt x="231" y="868" on="1"/>
        <pt x="288" y="992" on="1"/>
        <pt x="330" y="1024" on="1"/>
        <pt x="438" y="964" on="1"/>
      </contour>
      <contour>
        <pt x="352" y="722" on="1"/>
        <pt x="352" y="750" on="0"/>
        <pt x="376" y="768" on="0"/>
        <pt x="452" y="768" on="0"/>
        <pt x="481" y="744" on="0"/>
        <pt x="482" y="698" on="1"/>
        <pt x="494" y="429" on="1"/>
        <pt x="494" y="414" on="0"/>
        <pt x="494" y="399" on="1"/>
        <pt x="494" y="244" on="0"/>
        <pt x="453" y="62" on="0"/>
        <pt x="354" y="-16" on="0"/>
        <pt x="262" y="-16" on="1"/>
        <pt x="128" y="-16" on="0"/>
        <pt x="26" y="152" on="0"/>
        <pt x="26" y="370" on="1"/>
        <pt x="26" y="700" on="1"/>
        <pt x="26" y="743" on="0"/>
        <pt x="51" y="768" on="0"/>
        <pt x="129" y="768" on="0"/>
        <pt x="157" y="741" on="0"/>
        <pt x="159" y="690" on="1"/>
        <pt x="173" y="431" on="1"/>
        <pt x="173" y="178" on="0"/>
        <pt x="192" y="130" on="1"/>
        <pt x="201" y="109" on="0"/>
        <pt x="216" y="109" on="1"/>
        <pt x="251" y="109" on="0"/>
        <pt x="289" y="112" on="0"/>
        <pt x="325" y="133" on="0"/>
        <pt x="339" y="161" on="0"/>
        <pt x="344" y="194" on="1"/>
        <pt x="352" y="240" on="0"/>
        <pt x="352" y="370" on="1"/>
      </contour>
    </TTGlyph>
    <TTGlyph name="Ucircumflex" xMin="32" yMin="-16" xMax="501" yMax="1024">
      <contour>
        <pt x="142" y="828" on="1"/>
        <pt x="103" y="860" on="1"/>
        <pt x="116" y="914" on="1"/>
        <pt x="218" y="1004" on="1"/>
        <pt x="267" y="1024" on="1"/>
        <pt x="316" y="1004" on="1"/>
        <pt x="418" y="914" on="1"/>
        <pt x="431" y="860" on="1"/>
        <pt x="392" y="828" on="1"/>
        <pt x="267" y="909" on="1"/>
      </contour>
      <contour>
        <pt x="358" y="722" on="1"/>
        <pt x="358" y="750" on="0"/>
        <pt x="382" y="768" on="0"/>
        <pt x="458" y="768" on="0"/>
        <pt x="487" y="744" on="0"/>
        <pt x="488" y="698" on="1"/>
        <pt x="500" y="429" on="1"/>
        <pt x="500" y="414" on="0"/>
        <pt x="500" y="399" on="1"/>
        <pt x="500" y="244" on="0"/>
        <pt x="459" y="62" on="0"/>
        <pt x="360" y="-16" on="0"/>
        <pt x="268" y="-16" on="1"/>
        <pt x="134" y="-16" on="0"/>
        <pt x="32" y="152" on="0"/>
        <pt x="32" y="370" on="1"/>
        <pt x="32" y="700" on="1"/>
        <pt x="32" y="743" on="0"/>
        <pt x="57" y="768" on="0"/>
        <pt x="135" y="768" on="0"/>
        <pt x="163" y="741" on="0"/>
        <pt x="165" y="690" on="1"/>
        <pt x="179" y="431" on="1"/>
        <pt x="179" y="178" on="0"/>
        <pt x="198" y="130" on="1"/>
        <pt x="207" y="109" on="0"/>
        <pt x="222" y="109" on="1"/>
        <pt x="257" y="109" on="0"/>
        <pt x="295" y="112" on="0"/>
        <pt x="331" y="133" on="0"/>
        <pt x="345" y="161" on="0"/>
        <pt x="350" y="194" on="1"/>
        <pt x="358" y="240" on="0"/>
        <pt x="358" y="370" on="1"/>
      </contour>
    </TTGlyph>
    <TTGlyph name="Udieresis" xMin="32" yMin="-16" xMax="501" yMax="1024">
      <contour>
        <pt x="80" y="880" on="0"/>
        <pt x="80" y="1024" on="0"/>
        <pt x="224" y="1024" on="0"/>
        <pt x="224" y="880" on="0"/>
      </contour>
      <contour>
        <pt x="314" y="880" on="0"/>
        <pt x="314" y="1024" on="0"/>
        <pt x="458" y="1024" on="0"/>
        <pt x="458" y="880" on="0"/>
      </contour>
      <contour>
        <pt x="358" y="722" on="1"/>
        <pt x="358" y="750" on="0"/>
        <pt x="382" y="768" on="0"/>
        <pt x="458" y="768" on="0"/>
        <pt x="487" y="744" on="0"/>
        <pt x="488" y="698" on="1"/>
        <pt x="500" y="429" on="1"/>
        <pt x="500" y="414" on="0"/>
        <pt x="500" y="399" on="1"/>
        <pt x="500" y="244" on="0"/>
        <pt x="459" y="62" on="0"/>
        <pt x="360" y="-16" on="0"/>
        <pt x="268" y="-16" on="1"/>
        <pt x="134" y="-16" on="0"/>
        <pt x="32" y="152" on="0"/>
        <pt x="32" y="370" on="1"/>
        <pt x="32" y="700" on="1"/>
        <pt x="32" y="743" on="0"/>
        <pt x="57" y="768" on="0"/>
        <pt x="135" y="768" on="0"/>
        <pt x="163" y="741" on="0"/>
        <pt x="165" y="690" on="1"/>
        <pt x="179" y="431" on="1"/>
        <pt x="179" y="178" on="0"/>
        <pt x="198" y="130" on="1"/>
        <pt x="207" y="109" on="0"/>
        <pt x="222" y="109" on="1"/>
        <pt x="257" y="109" on="0"/>
        <pt x="295" y="112" on="0"/>
        <pt x="331" y="133" on="0"/>
        <pt x="345" y="161" on="0"/>
        <pt x="350" y="194" on="1"/>
        <pt x="358" y="240" on="0"/>
        <pt x="358" y="370" on="1"/>
      </contour>
    </TTGlyph>
    <TTGlyph name="Ugrave" xMin="32" yMin="-16" xMax="501" yMax="1024">
      <contour>
        <pt x="297" y="813" on="1"/>
        <pt x="251" y="792" on="1"/>
        <pt x="91" y="964" on="1"/>
        <pt x="199" y="1024" on="1"/>
        <pt x="241" y="992" on="1"/>
        <pt x="298" y="868" on="1"/>
      </contour>
      <contour>
        <pt x="358" y="722" on="1"/>
        <pt x="358" y="750" on="0"/>
        <pt x="382" y="768" on="0"/>
        <pt x="458" y="768" on="0"/>
        <pt x="487" y="744" on="0"/>
        <pt x="488" y="698" on="1"/>
        <pt x="500" y="429" on="1"/>
        <pt x="500" y="414" on="0"/>
        <pt x="500" y="399" on="1"/>
        <pt x="500" y="244" on="0"/>
        <pt x="459" y="62" on="0"/>
        <pt x="360" y="-16" on="0"/>
        <pt x="268" y="-16" on="1"/>
        <pt x="134" y="-16" on="0"/>
        <pt x="32" y="152" on="0"/>
        <pt x="32" y="370" on="1"/>
        <pt x="32" y="700" on="1"/>
        <pt x="32" y="743" on="0"/>
        <pt x="57" y="768" on="0"/>
        <pt x="135" y="768" on="0"/>
        <pt x="163" y="741" on="0"/>
        <pt x="165" y="690" on="1"/>
        <pt x="179" y="431" on="1"/>
        <pt x="179" y="178" on="0"/>
        <pt x="198" y="130" on="1"/>
        <pt x="207" y="109" on="0"/>
        <pt x="222" y="109" on="1"/>
        <pt x="257" y="109" on="0"/>
        <pt x="295" y="112" on="0"/>
        <pt x="331" y="133" on="0"/>
        <pt x="345" y="161" on="0"/>
        <pt x="350" y="194" on="1"/>
        <pt x="358" y="240" on="0"/>
        <pt x="358" y="370" on="1"/>
      </contour>
    </TTGlyph>
    <TTGlyph name="V" xMin="23" yMin="-16" xMax="553" yMax="768">
      <contour>
        <pt x="485" y="768" on="1"/>
        <pt x="552" y="768" on="0"/>
        <pt x="552" y="739" on="1"/>
        <pt x="552" y="734" on="0"/>
        <pt x="551" y="729" on="1"/>
        <pt x="383" y="21" on="1"/>
        <pt x="378" y="-2" on="0"/>
        <pt x="362" y="-16" on="0"/>
        <pt x="322" y="-16" on="1"/>
        <pt x="229" y="-16" on="0"/>
        <pt x="219" y="22" on="1"/>
        <pt x="25" y="731" on="1"/>
        <pt x="24" y="735" on="0"/>
        <pt x="24" y="739" on="1"/>
        <pt x="24" y="768" on="0"/>
        <pt x="92" y="768" on="1"/>
        <pt x="125" y="768" on="0"/>
        <pt x="162" y="751" on="0"/>
        <pt x="168" y="727" on="1"/>
        <pt x="304" y="194" on="1"/>
        <pt x="424" y="732" on="1"/>
        <pt x="428" y="753" on="0"/>
        <pt x="454" y="768" on="0"/>
      </contour>
    </TTGlyph>
    <TTGlyph name="V_i" xMin="23" yMin="-16" xMax="687" yMax="768">
      <contour>
        <pt x="24" y="739" on="1"/>
        <pt x="24" y="768" on="0"/>
        <pt x="92" y="768" on="1"/>
        <pt x="125" y="768" on="0"/>
        <pt x="162" y="751" on="0"/>
        <pt x="168" y="727" on="1"/>
        <pt x="304" y="194" on="1"/>
        <pt x="420" y="713" on="1"/>
        <pt x="424" y="734" on="0"/>
        <pt x="450" y="749" on="0"/>
        <pt x="481" y="749" on="1"/>
        <pt x="627" y="749" on="1"/>
        <pt x="685" y="749" on="0"/>
        <pt x="685" y="718" on="1"/>
        <pt x="685" y="629" on="0"/>
        <pt x="637" y="629" on="1"/>
        <pt x="528" y="630" on="1"/>
        <pt x="383" y="21" on="1"/>
        <pt x="378" y="-2" on="0"/>
        <pt x="362" y="-16" on="0"/>
        <pt x="322" y="-16" on="1"/>
        <pt x="229" y="-16" on="0"/>
        <pt x="219" y="22" on="1"/>
        <pt x="25" y="731" on="1"/>
        <pt x="24" y="735" on="0"/>
      </contour>
      <contour>
        <pt x="551" y="0" on="1"/>
        <pt x="551" y="496" on="1"/>
        <pt x="551" y="512" on="0"/>
        <pt x="623" y="512" on="0"/>
        <pt x="687" y="502" on="0"/>
        <pt x="687" y="496" on="1"/>
        <pt x="687" y="0" on="1"/>
        <pt x="687" y="-6" on="0"/>
        <pt x="686" y="-8" on="1"/>
        <pt x="681" y="-16" on="0"/>
        <pt x="615" y="-16" on="0"/>
        <pt x="551" y="-6" on="0"/>
      </contour>
    </TTGlyph>
    <TTGlyph name="V_iacute" xMin="23" yMin="-16" xMax="794" yMax="768">
      <contour>
        <pt x="24" y="739" on="1"/>
        <pt x="24" y="768" on="0"/>
        <pt x="92" y="768" on="1"/>
        <pt x="125" y="768" on="0"/>
        <pt x="162" y="751" on="0"/>
        <pt x="168" y="727" on="1"/>
        <pt x="304" y="194" on="1"/>
        <pt x="420" y="713" on="1"/>
        <pt x="424" y="734" on="0"/>
        <pt x="450" y="749" on="0"/>
        <pt x="481" y="749" on="1"/>
        <pt x="627" y="749" on="1"/>
        <pt x="644" y="749" on="0"/>
        <pt x="699" y="731" on="0"/>
        <pt x="794" y="692" on="1"/>
        <pt x="646" y="533" on="1"/>
        <pt x="600" y="554" on="1"/>
        <pt x="599" y="609" on="1"/>
        <pt x="607" y="628" on="1"/>
        <pt x="607" y="629" on="1"/>
        <pt x="528" y="630" on="1"/>
        <pt x="383" y="21" on="1"/>
        <pt x="378" y="-2" on="0"/>
        <pt x="362" y="-16" on="0"/>
        <pt x="322" y="-16" on="1"/>
        <pt x="229" y="-16" on="0"/>
        <pt x="219" y="22" on="1"/>
        <pt x="25" y="731" on="1"/>
        <pt x="24" y="735" on="0"/>
      </contour>
      <contour>
        <pt x="553" y="0" on="1"/>
        <pt x="553" y="496" on="1"/>
        <pt x="553" y="512" on="0"/>
        <pt x="625" y="512" on="0"/>
        <pt x="689" y="502" on="0"/>
        <pt x="689" y="496" on="1"/>
        <pt x="689" y="0" on="1"/>
        <pt x="689" y="-6" on="0"/>
        <pt x="688" y="-8" on="1"/>
        <pt x="683" y="-16" on="0"/>
        <pt x="617" y="-16" on="0"/>
        <pt x="553" y="-6" on="0"/>
      </contour>
    </TTGlyph>
    <TTGlyph name="V_igrave" xMin="23" yMin="-16" xMax="686" yMax="768">
      <contour>
        <pt x="24" y="739" on="1"/>
        <pt x="24" y="768" on="0"/>
        <pt x="92" y="768" on="1"/>
        <pt x="125" y="768" on="0"/>
        <pt x="162" y="751" on="0"/>
        <pt x="168" y="727" on="1"/>
        <pt x="304" y="194" on="1"/>
        <pt x="420" y="713" on="1"/>
        <pt x="424" y="734" on="0"/>
        <pt x="450" y="749" on="0"/>
        <pt x="481" y="749" on="1"/>
        <pt x="519" y="749" on="1"/>
        <pt x="551" y="749" on="0"/>
        <pt x="588" y="703" on="0"/>
        <pt x="630" y="609" on="1"/>
        <pt x="629" y="554" on="1"/>
        <pt x="583" y="533" on="1"/>
        <pt x="523" y="597" on="1"/>
        <pt x="521" y="600" on="1"/>
        <pt x="383" y="21" on="1"/>
        <pt x="378" y="-2" on="0"/>
        <pt x="362" y="-16" on="0"/>
        <pt x="322" y="-16" on="1"/>
        <pt x="229" y="-16" on="0"/>
        <pt x="219" y="22" on="1"/>
        <pt x="25" y="731" on="1"/>
        <pt x="24" y="735" on="0"/>
      </contour>
      <contour>
        <pt x="550" y="0" on="1"/>
        <pt x="550" y="496" on="1"/>
        <pt x="550" y="512" on="0"/>
        <pt x="622" y="512" on="0"/>
        <pt x="686" y="502" on="0"/>
        <pt x="686" y="496" on="1"/>
        <pt x="686" y="0" on="1"/>
        <pt x="686" y="-6" on="0"/>
        <pt x="684" y="-8" on="1"/>
        <pt x="680" y="-16" on="0"/>
        <pt x="614" y="-16" on="0"/>
        <pt x="550" y="-6" on="0"/>
      </contour>
    </TTGlyph>
    <TTGlyph name="V_smcp" xMin="18" yMin="-6" xMax="387" yMax="531">
      <contour>
        <pt x="285" y="503" on="1"/>
        <pt x="293" y="531" on="0"/>
        <pt x="387" y="531" on="0"/>
        <pt x="387" y="503" on="1"/>
        <pt x="387" y="500" on="0"/>
        <pt x="386" y="497" on="1"/>
        <pt x="273" y="25" on="1"/>
        <pt x="268" y="7" on="0"/>
        <pt x="255" y="-6" on="0"/>
        <pt x="237" y="-6" on="1"/>
        <pt x="158" y="-6" on="0"/>
        <pt x="149" y="26" on="1"/>
        <pt x="20" y="498" on="1"/>
        <pt x="19" y="503" on="0"/>
        <pt x="19" y="507" on="1"/>
        <pt x="19" y="531" on="0"/>
        <pt x="121" y="531" on="0"/>
        <pt x="131" y="499" on="1"/>
        <pt x="214" y="177" on="1"/>
      </contour>
    </TTGlyph>
    <TTGlyph name="W" xMin="32" yMin="-16" xMax="916" yMax="768">
      <contour>
        <pt x="32" y="740" on="1"/>
        <pt x="32" y="768" on="0"/>
        <pt x="167" y="768" on="0"/>
        <pt x="176" y="731" on="1"/>
        <pt x="311" y="194" on="1"/>
        <pt x="407" y="632" on="1"/>
        <pt x="411" y="652" on="0"/>
        <pt x="437" y="666" on="0"/>
        <pt x="468" y="666" on="1"/>
        <pt x="548" y="666" on="0"/>
        <pt x="559" y="623" on="1"/>
        <pt x="667" y="194" on="1"/>
        <pt x="786" y="731" on="1"/>
        <pt x="791" y="753" on="0"/>
        <pt x="817" y="768" on="0"/>
        <pt x="893" y="768" on="0"/>
        <pt x="916" y="758" on="0"/>
        <pt x="916" y="740" on="1"/>
        <pt x="916" y="736" on="0"/>
        <pt x="915" y="731" on="1"/>
        <pt x="748" y="20" on="1"/>
        <pt x="743" y="-1" on="0"/>
        <pt x="724" y="-16" on="0"/>
        <pt x="703" y="-16" on="1"/>
        <pt x="596" y="-16" on="0"/>
        <pt x="586" y="20" on="1"/>
        <pt x="480" y="375" on="1"/>
        <pt x="390" y="22" on="1"/>
        <pt x="385" y="0" on="0"/>
        <pt x="365" y="-16" on="0"/>
        <pt x="345" y="-16" on="1"/>
        <pt x="238" y="-16" on="0"/>
        <pt x="229" y="20" on="1"/>
        <pt x="33" y="734" on="1"/>
        <pt x="32" y="737" on="0"/>
      </contour>
    </TTGlyph>
    <TTGlyph name="W_i" xMin="32" yMin="-16" xMax="1049" yMax="768">
      <contour>
        <pt x="32" y="740" on="1"/>
        <pt x="32" y="768" on="0"/>
        <pt x="167" y="768" on="0"/>
        <pt x="176" y="731" on="1"/>
        <pt x="311" y="194" on="1"/>
        <pt x="407" y="632" on="1"/>
        <pt x="411" y="652" on="0"/>
        <pt x="437" y="666" on="0"/>
        <pt x="468" y="666" on="1"/>
        <pt x="548" y="666" on="0"/>
        <pt x="559" y="623" on="1"/>
        <pt x="667" y="194" on="1"/>
        <pt x="784" y="713" on="1"/>
        <pt x="788" y="734" on="0"/>
        <pt x="814" y="749" on="0"/>
        <pt x="845" y="749" on="1"/>
        <pt x="991" y="749" on="1"/>
        <pt x="1049" y="749" on="0"/>
        <pt x="1049" y="718" on="1"/>
        <pt x="1049" y="629" on="0"/>
        <pt x="1001" y="629" on="1"/>
        <pt x="893" y="629" on="1"/>
        <pt x="748" y="20" on="1"/>
        <pt x="743" y="-1" on="0"/>
        <pt x="724" y="-16" on="0"/>
        <pt x="703" y="-16" on="1"/>
        <pt x="596" y="-16" on="0"/>
        <pt x="586" y="20" on="1"/>
        <pt x="480" y="375" on="1"/>
        <pt x="390" y="22" on="1"/>
        <pt x="385" y="0" on="0"/>
        <pt x="365" y="-16" on="0"/>
        <pt x="345" y="-16" on="1"/>
        <pt x="238" y="-16" on="0"/>
        <pt x="229" y="20" on="1"/>
        <pt x="33" y="734" on="1"/>
        <pt x="32" y="737" on="0"/>
      </contour>
      <contour>
        <pt x="911" y="0" on="1"/>
        <pt x="911" y="496" on="1"/>
        <pt x="911" y="512" on="0"/>
        <pt x="983" y="512" on="0"/>
        <pt x="1047" y="502" on="0"/>
        <pt x="1047" y="496" on="1"/>
        <pt x="1047" y="0" on="1"/>
        <pt x="1047" y="-6" on="0"/>
        <pt x="1046" y="-8" on="1"/>
        <pt x="1041" y="-16" on="0"/>
        <pt x="975" y="-16" on="0"/>
        <pt x="911" y="-6" on="0"/>
      </contour>
    </TTGlyph>
    <TTGlyph name="W_iacute" xMin="32" yMin="-16" xMax="1152" yMax="768">
      <contour>
        <pt x="32" y="740" on="1"/>
        <pt x="32" y="768" on="0"/>
        <pt x="167" y="768" on="0"/>
        <pt x="176" y="731" on="1"/>
        <pt x="311" y="194" on="1"/>
        <pt x="407" y="632" on="1"/>
        <pt x="411" y="652" on="0"/>
        <pt x="437" y="666" on="0"/>
        <pt x="468" y="666" on="1"/>
        <pt x="548" y="666" on="0"/>
        <pt x="559" y="623" on="1"/>
        <pt x="667" y="194" on="1"/>
        <pt x="784" y="713" on="1"/>
        <pt x="788" y="734" on="0"/>
        <pt x="814" y="749" on="0"/>
        <pt x="845" y="749" on="1"/>
        <pt x="991" y="749" on="1"/>
        <pt x="1010" y="749" on="0"/>
        <pt x="1063" y="731" on="0"/>
        <pt x="1152" y="692" on="1"/>
        <pt x="1008" y="533" on="1"/>
        <pt x="962" y="554" on="1"/>
        <pt x="961" y="609" on="1"/>
        <pt x="969" y="628" on="1"/>
        <pt x="969" y="629" on="1"/>
        <pt x="893" y="629" on="1"/>
        <pt x="748" y="20" on="1"/>
        <pt x="743" y="-1" on="0"/>
        <pt x="724" y="-16" on="0"/>
        <pt x="703" y="-16" on="1"/>
        <pt x="596" y="-16" on="0"/>
        <pt x="586" y="20" on="1"/>
        <pt x="480" y="375" on="1"/>
        <pt x="390" y="22" on="1"/>
        <pt x="385" y="0" on="0"/>
        <pt x="365" y="-16" on="0"/>
        <pt x="345" y="-16" on="1"/>
        <pt x="238" y="-16" on="0"/>
        <pt x="229" y="20" on="1"/>
        <pt x="33" y="734" on="1"/>
        <pt x="32" y="737" on="0"/>
      </contour>
      <contour>
        <pt x="914" y="0" on="1"/>
        <pt x="914" y="496" on="1"/>
        <pt x="914" y="512" on="0"/>
        <pt x="986" y="512" on="0"/>
        <pt x="1050" y="502" on="0"/>
        <pt x="1050" y="496" on="1"/>
        <pt x="1050" y="0" on="1"/>
        <pt x="1050" y="-6" on="0"/>
        <pt x="1048" y="-8" on="1"/>
        <pt x="1044" y="-16" on="0"/>
        <pt x="978" y="-16" on="0"/>
        <pt x="914" y="-6" on="0"/>
      </contour>
    </TTGlyph>
    <TTGlyph name="W_igrave" xMin="32" yMin="-16" xMax="1047" yMax="768">
      <contour>
        <pt x="32" y="740" on="1"/>
        <pt x="32" y="768" on="0"/>
        <pt x="167" y="768" on="0"/>
        <pt x="176" y="731" on="1"/>
        <pt x="311" y="194" on="1"/>
        <pt x="407" y="632" on="1"/>
        <pt x="411" y="652" on="0"/>
        <pt x="437" y="666" on="0"/>
        <pt x="468" y="666" on="1"/>
        <pt x="548" y="666" on="0"/>
        <pt x="559" y="623" on="1"/>
        <pt x="667" y="194" on="1"/>
        <pt x="784" y="713" on="1"/>
        <pt x="788" y="734" on="0"/>
        <pt x="814" y="749" on="0"/>
        <pt x="845" y="749" on="1"/>
        <pt x="882" y="749" on="1"/>
        <pt x="913" y="749" on="0"/>
        <pt x="950" y="703" on="0"/>
        <pt x="992" y="609" on="1"/>
        <pt x="991" y="554" on="1"/>
        <pt x="945" y="533" on="1"/>
        <pt x="885" y="596" on="1"/>
        <pt x="748" y="20" on="1"/>
        <pt x="743" y="-1" on="0"/>
        <pt x="724" y="-16" on="0"/>
        <pt x="703" y="-16" on="1"/>
        <pt x="596" y="-16" on="0"/>
        <pt x="586" y="20" on="1"/>
        <pt x="480" y="375" on="1"/>
        <pt x="390" y="22" on="1"/>
        <pt x="385" y="0" on="0"/>
        <pt x="365" y="-16" on="0"/>
        <pt x="345" y="-16" on="1"/>
        <pt x="238" y="-16" on="0"/>
        <pt x="229" y="20" on="1"/>
        <pt x="33" y="734" on="1"/>
        <pt x="32" y="737" on="0"/>
      </contour>
      <contour>
        <pt x="911" y="0" on="1"/>
        <pt x="911" y="496" on="1"/>
        <pt x="911" y="512" on="0"/>
        <pt x="983" y="512" on="0"/>
        <pt x="1047" y="502" on="0"/>
        <pt x="1047" y="496" on="1"/>
        <pt x="1047" y="0" on="1"/>
        <pt x="1047" y="-6" on="0"/>
        <pt x="1046" y="-8" on="1"/>
        <pt x="1041" y="-16" on="0"/>
        <pt x="975" y="-16" on="0"/>
        <pt x="911" y="-6" on="0"/>
      </contour>
    </TTGlyph>
    <TTGlyph name="W_smcp" xMin="24" yMin="-6" xMax="631" yMax="531">
      <contour>
        <pt x="24" y="506" on="1"/>
        <pt x="24" y="531" on="0"/>
        <pt x="127" y="531" on="0"/>
        <pt x="136" y="502" on="1"/>
        <pt x="218" y="179" on="1"/>
        <pt x="275" y="435" on="1"/>
        <pt x="282" y="464" on="0"/>
        <pt x="323" y="464" on="1"/>
        <pt x="381" y="464" on="0"/>
        <pt x="393" y="430" on="1"/>
        <pt x="456" y="180" on="1"/>
        <pt x="527" y="502" on="1"/>
        <pt x="532" y="520" on="0"/>
        <pt x="553" y="531" on="0"/>
        <pt x="613" y="531" on="0"/>
        <pt x="630" y="522" on="0"/>
        <pt x="630" y="504" on="0"/>
        <pt x="629" y="497" on="1"/>
        <pt x="517" y="24" on="1"/>
        <pt x="508" y="-6" on="0"/>
        <pt x="453" y="-6" on="0"/>
        <pt x="400" y="9" on="0"/>
        <pt x="395" y="24" on="1"/>
        <pt x="332" y="233" on="1"/>
        <pt x="280" y="26" on="1"/>
        <pt x="276" y="8" on="0"/>
        <pt x="258" y="-6" on="0"/>
        <pt x="215" y="-6" on="0"/>
        <pt x="162" y="9" on="0"/>
        <pt x="156" y="24" on="1"/>
        <pt x="25" y="500" on="1"/>
        <pt x="24" y="503" on="0"/>
      </contour>
    </TTGlyph>
    <TTGlyph name="X" xMin="35" yMin="-16" xMax="570" yMax="768">
      <contour>
        <pt x="378" y="731" on="1"/>
        <pt x="390" y="768" on="0"/>
        <pt x="525" y="768" on="0"/>
        <pt x="525" y="742" on="1"/>
        <pt x="525" y="736" on="0"/>
        <pt x="521" y="727" on="1"/>
        <pt x="372" y="414" on="1"/>
        <pt x="562" y="21" on="1"/>
        <pt x="569" y="6" on="0"/>
        <pt x="569" y="-7" on="0"/>
        <pt x="562" y="-16" on="0"/>
        <pt x="491" y="-16" on="0"/>
        <pt x="410" y="1" on="0"/>
        <pt x="402" y="22" on="1"/>
        <pt x="299" y="282" on="1"/>
        <pt x="195" y="22" on="1"/>
        <pt x="186" y="-1" on="0"/>
        <pt x="167" y="-16" on="0"/>
        <pt x="129" y="-16" on="0"/>
        <pt x="110" y="-14" on="1"/>
        <pt x="35" y="-8" on="0"/>
        <pt x="35" y="14" on="1"/>
        <pt x="35" y="17" on="0"/>
        <pt x="37" y="21" on="1"/>
        <pt x="226" y="415" on="1"/>
        <pt x="77" y="731" on="1"/>
        <pt x="75" y="737" on="0"/>
        <pt x="75" y="742" on="1"/>
        <pt x="75" y="768" on="0"/>
        <pt x="208" y="768" on="0"/>
        <pt x="220" y="731" on="1"/>
        <pt x="299" y="522" on="1"/>
      </contour>
    </TTGlyph>
    <TTGlyph name="X_smcp" xMin="27" yMin="-6" xMax="401" yMax="531">
      <contour>
        <pt x="400" y="11" on="1"/>
        <pt x="400" y="-6" on="0"/>
        <pt x="339" y="-6" on="0"/>
        <pt x="279" y="9" on="0"/>
        <pt x="272" y="25" on="1"/>
        <pt x="212" y="178" on="1"/>
        <pt x="151" y="26" on="1"/>
        <pt x="144" y="7" on="0"/>
        <pt x="127" y="-6" on="0"/>
        <pt x="96" y="-6" on="0"/>
        <pt x="82" y="-4" on="1"/>
        <pt x="27" y="1" on="0"/>
        <pt x="27" y="23" on="1"/>
        <pt x="27" y="27" on="0"/>
        <pt x="29" y="31" on="1"/>
        <pt x="153" y="289" on="1"/>
        <pt x="56" y="496" on="1"/>
        <pt x="56" y="497" on="1"/>
        <pt x="48" y="517" on="0"/>
        <pt x="75" y="531" on="0"/>
        <pt x="105" y="531" on="1"/>
        <pt x="154" y="531" on="0"/>
        <pt x="166" y="502" on="1"/>
        <pt x="211" y="383" on="1"/>
        <pt x="257" y="506" on="1"/>
        <pt x="269" y="531" on="0"/>
        <pt x="371" y="531" on="0"/>
        <pt x="371" y="510" on="1"/>
        <pt x="371" y="503" on="0"/>
        <pt x="367" y="493" on="1"/>
        <pt x="269" y="288" on="1"/>
        <pt x="394" y="31" on="1"/>
        <pt x="400" y="19" on="0"/>
      </contour>
    </TTGlyph>
    <TTGlyph name="Y" xMin="20" yMin="-16" xMax="558" yMax="768">
      <contour>
        <pt x="21" y="745" on="1"/>
        <pt x="21" y="768" on="0"/>
        <pt x="153" y="768" on="0"/>
        <pt x="168" y="731" on="1"/>
        <pt x="305" y="492" on="1"/>
        <pt x="424" y="734" on="1"/>
        <pt x="432" y="754" on="0"/>
        <pt x="460" y="768" on="0"/>
        <pt x="490" y="768" on="1"/>
        <pt x="558" y="768" on="0"/>
        <pt x="558" y="743" on="1"/>
        <pt x="558" y="737" on="0"/>
        <pt x="555" y="731" on="1"/>
        <pt x="360" y="349" on="1"/>
        <pt x="360" y="21" on="1"/>
        <pt x="360" y="4" on="0"/>
        <pt x="358" y="-2" on="1"/>
        <pt x="355" y="-16" on="0"/>
        <pt x="320" y="-16" on="1"/>
        <pt x="243" y="-16" on="0"/>
        <pt x="243" y="22" on="1"/>
        <pt x="243" y="349" on="1"/>
        <pt x="25" y="732" on="1"/>
        <pt x="21" y="739" on="0"/>
      </contour>
    </TTGlyph>
    <TTGlyph name="Y_i" xMin="20" yMin="-16" xMax="695" yMax="768">
      <contour>
        <pt x="21" y="745" on="1"/>
        <pt x="21" y="768" on="0"/>
        <pt x="153" y="768" on="0"/>
        <pt x="168" y="731" on="1"/>
        <pt x="305" y="492" on="1"/>
        <pt x="419" y="718" on="1"/>
        <pt x="427" y="738" on="0"/>
        <pt x="455" y="752" on="0"/>
        <pt x="485" y="752" on="1"/>
        <pt x="636" y="752" on="1"/>
        <pt x="694" y="752" on="0"/>
        <pt x="694" y="721" on="1"/>
        <pt x="694" y="632" on="0"/>
        <pt x="646" y="632" on="1"/>
        <pt x="507" y="632" on="1"/>
        <pt x="360" y="349" on="1"/>
        <pt x="360" y="21" on="1"/>
        <pt x="360" y="4" on="0"/>
        <pt x="358" y="-2" on="1"/>
        <pt x="355" y="-16" on="0"/>
        <pt x="320" y="-16" on="1"/>
        <pt x="243" y="-16" on="0"/>
        <pt x="243" y="22" on="1"/>
        <pt x="243" y="349" on="1"/>
        <pt x="25" y="732" on="1"/>
        <pt x="21" y="739" on="0"/>
      </contour>
      <contour>
        <pt x="559" y="0" on="1"/>
        <pt x="559" y="496" on="1"/>
        <pt x="559" y="512" on="0"/>
        <pt x="631" y="512" on="0"/>
        <pt x="695" y="502" on="0"/>
        <pt x="695" y="496" on="1"/>
        <pt x="695" y="0" on="1"/>
        <pt x="695" y="-6" on="0"/>
        <pt x="694" y="-8" on="1"/>
        <pt x="689" y="-16" on="0"/>
        <pt x="623" y="-16" on="0"/>
        <pt x="559" y="-6" on="0"/>
      </contour>
    </TTGlyph>
    <TTGlyph name="Y_iacute" xMin="20" yMin="-16" xMax="796" yMax="768">
      <contour>
        <pt x="21" y="745" on="1"/>
        <pt x="21" y="768" on="0"/>
        <pt x="153" y="768" on="0"/>
        <pt x="168" y="731" on="1"/>
        <pt x="305" y="492" on="1"/>
        <pt x="419" y="718" on="1"/>
        <pt x="427" y="738" on="0"/>
        <pt x="455" y="752" on="0"/>
        <pt x="485" y="752" on="1"/>
        <pt x="636" y="752" on="1"/>
        <pt x="653" y="752" on="0"/>
        <pt x="706" y="733" on="0"/>
        <pt x="796" y="692" on="1"/>
        <pt x="653" y="533" on="1"/>
        <pt x="607" y="554" on="1"/>
        <pt x="606" y="609" on="1"/>
        <pt x="617" y="628" on="1"/>
        <pt x="619" y="632" on="1"/>
        <pt x="507" y="632" on="1"/>
        <pt x="360" y="349" on="1"/>
        <pt x="360" y="21" on="1"/>
        <pt x="360" y="4" on="0"/>
        <pt x="358" y="-2" on="1"/>
        <pt x="355" y="-16" on="0"/>
        <pt x="320" y="-16" on="1"/>
        <pt x="243" y="-16" on="0"/>
        <pt x="243" y="22" on="1"/>
        <pt x="243" y="349" on="1"/>
        <pt x="25" y="732" on="1"/>
        <pt x="21" y="739" on="0"/>
      </contour>
      <contour>
        <pt x="559" y="0" on="1"/>
        <pt x="559" y="496" on="1"/>
        <pt x="559" y="512" on="0"/>
        <pt x="631" y="512" on="0"/>
        <pt x="695" y="502" on="0"/>
        <pt x="695" y="496" on="1"/>
        <pt x="695" y="0" on="1"/>
        <pt x="695" y="-6" on="0"/>
        <pt x="694" y="-8" on="1"/>
        <pt x="689" y="-16" on="0"/>
        <pt x="623" y="-16" on="0"/>
        <pt x="559" y="-6" on="0"/>
      </contour>
    </TTGlyph>
    <TTGlyph name="Y_igrave" xMin="20" yMin="-16" xMax="693" yMax="768">
      <contour>
        <pt x="21" y="745" on="1"/>
        <pt x="21" y="768" on="0"/>
        <pt x="153" y="768" on="0"/>
        <pt x="168" y="731" on="1"/>
        <pt x="305" y="492" on="1"/>
        <pt x="419" y="718" on="1"/>
        <pt x="427" y="738" on="0"/>
        <pt x="455" y="752" on="0"/>
        <pt x="485" y="752" on="1"/>
        <pt x="525" y="752" on="1"/>
        <pt x="557" y="752" on="0"/>
        <pt x="594" y="705" on="0"/>
        <pt x="636" y="609" on="1"/>
        <pt x="635" y="554" on="1"/>
        <pt x="589" y="533" on="1"/>
        <pt x="503" y="624" on="1"/>
        <pt x="360" y="349" on="1"/>
        <pt x="360" y="21" on="1"/>
        <pt x="360" y="4" on="0"/>
        <pt x="358" y="-2" on="1"/>
        <pt x="355" y="-16" on="0"/>
        <pt x="320" y="-16" on="1"/>
        <pt x="243" y="-16" on="0"/>
        <pt x="243" y="22" on="1"/>
        <pt x="243" y="349" on="1"/>
        <pt x="25" y="732" on="1"/>
        <pt x="21" y="739" on="0"/>
      </contour>
      <contour>
        <pt x="557" y="0" on="1"/>
        <pt x="557" y="496" on="1"/>
        <pt x="557" y="512" on="0"/>
        <pt x="629" y="512" on="0"/>
        <pt x="693" y="502" on="0"/>
        <pt x="693" y="496" on="1"/>
        <pt x="693" y="0" on="1"/>
        <pt x="693" y="-6" on="0"/>
        <pt x="692" y="-8" on="1"/>
        <pt x="687" y="-16" on="0"/>
        <pt x="621" y="-16" on="0"/>
        <pt x="557" y="-6" on="0"/>
      </contour>
    </TTGlyph>
    <TTGlyph name="Y_smcp" xMin="19" yMin="-6" xMax="395" yMax="531">
      <contour>
        <pt x="340" y="531" on="1"/>
        <pt x="394" y="531" on="0"/>
        <pt x="394" y="509" on="1"/>
        <pt x="394" y="503" on="0"/>
        <pt x="391" y="496" on="1"/>
        <pt x="260" y="240" on="1"/>
        <pt x="260" y="27" on="1"/>
        <pt x="260" y="-3" on="0"/>
        <pt x="246" y="-5" on="1"/>
        <pt x="240" y="-6" on="0"/>
        <pt x="227" y="-6" on="1"/>
        <pt x="166" y="-6" on="0"/>
        <pt x="166" y="28" on="1"/>
        <pt x="166" y="244" on="1"/>
        <pt x="23" y="497" on="1"/>
        <pt x="19" y="504" on="0"/>
        <pt x="19" y="510" on="1"/>
        <pt x="19" y="531" on="0"/>
        <pt x="120" y="531" on="0"/>
        <pt x="132" y="503" on="1"/>
        <pt x="215" y="357" on="1"/>
        <pt x="288" y="504" on="1"/>
        <pt x="295" y="520" on="0"/>
        <pt x="316" y="531" on="0"/>
      </contour>
    </TTGlyph>
    <TTGlyph name="Y_smcpacute" xMin="19" yMin="-6" xMax="395" yMax="784">
      <contour>
        <pt x="206" y="552" on="1"/>
        <pt x="160" y="573" on="1"/>
        <pt x="159" y="628" on="1"/>
        <pt x="216" y="752" on="1"/>
        <pt x="258" y="784" on="1"/>
        <pt x="366" y="724" on="1"/>
      </contour>
      <contour>
        <pt x="340" y="531" on="1"/>
        <pt x="394" y="531" on="0"/>
        <pt x="394" y="509" on="1"/>
        <pt x="394" y="503" on="0"/>
        <pt x="391" y="496" on="1"/>
        <pt x="260" y="240" on="1"/>
        <pt x="260" y="27" on="1"/>
        <pt x="260" y="-3" on="0"/>
        <pt x="246" y="-5" on="1"/>
        <pt x="240" y="-6" on="0"/>
        <pt x="227" y="-6" on="1"/>
        <pt x="166" y="-6" on="0"/>
        <pt x="166" y="28" on="1"/>
        <pt x="166" y="244" on="1"/>
        <pt x="23" y="497" on="1"/>
        <pt x="19" y="504" on="0"/>
        <pt x="19" y="510" on="1"/>
        <pt x="19" y="531" on="0"/>
        <pt x="120" y="531" on="0"/>
        <pt x="132" y="503" on="1"/>
        <pt x="215" y="357" on="1"/>
        <pt x="288" y="504" on="1"/>
        <pt x="295" y="520" on="0"/>
        <pt x="316" y="531" on="0"/>
      </contour>
    </TTGlyph>
    <TTGlyph name="Y_smcpdieresis" xMin="31" yMin="-6" xMax="409" yMax="784">
      <contour>
        <pt x="31" y="640" on="0"/>
        <pt x="31" y="784" on="0"/>
        <pt x="175" y="784" on="0"/>
        <pt x="175" y="640" on="0"/>
      </contour>
      <contour>
        <pt x="265" y="640" on="0"/>
        <pt x="265" y="784" on="0"/>
        <pt x="409" y="784" on="0"/>
        <pt x="409" y="640" on="0"/>
      </contour>
      <contour>
        <pt x="353" y="531" on="1"/>
        <pt x="407" y="531" on="0"/>
        <pt x="407" y="509" on="1"/>
        <pt x="407" y="503" on="0"/>
        <pt x="404" y="496" on="1"/>
        <pt x="273" y="240" on="1"/>
        <pt x="273" y="27" on="1"/>
        <pt x="273" y="-3" on="0"/>
        <pt x="260" y="-5" on="1"/>
        <pt x="253" y="-6" on="0"/>
        <pt x="240" y="-6" on="1"/>
        <pt x="179" y="-6" on="0"/>
        <pt x="179" y="28" on="1"/>
        <pt x="179" y="244" on="1"/>
        <pt x="36" y="497" on="1"/>
        <pt x="32" y="504" on="0"/>
        <pt x="32" y="510" on="1"/>
        <pt x="32" y="531" on="0"/>
        <pt x="133" y="531" on="0"/>
        <pt x="145" y="503" on="1"/>
        <pt x="228" y="357" on="1"/>
        <pt x="301" y="504" on="1"/>
        <pt x="308" y="520" on="0"/>
        <pt x="329" y="531" on="0"/>
      </contour>
    </TTGlyph>
    <TTGlyph name="Yacute" xMin="13" yMin="-16" xMax="551" yMax="1024">
      <contour>
        <pt x="297" y="792" on="1"/>
        <pt x="251" y="813" on="1"/>
        <pt x="250" y="868" on="1"/>
        <pt x="307" y="992" on="1"/>
        <pt x="349" y="1024" on="1"/>
        <pt x="457" y="964" on="1"/>
      </contour>
      <contour>
        <pt x="14" y="745" on="1"/>
        <pt x="14" y="768" on="0"/>
        <pt x="146" y="768" on="0"/>
        <pt x="161" y="731" on="1"/>
        <pt x="298" y="492" on="1"/>
        <pt x="417" y="734" on="1"/>
        <pt x="425" y="754" on="0"/>
        <pt x="453" y="768" on="0"/>
        <pt x="483" y="768" on="1"/>
        <pt x="551" y="768" on="0"/>
        <pt x="551" y="743" on="1"/>
        <pt x="551" y="737" on="0"/>
        <pt x="548" y="731" on="1"/>
        <pt x="353" y="349" on="1"/>
        <pt x="353" y="21" on="1"/>
        <pt x="353" y="4" on="0"/>
        <pt x="352" y="-2" on="1"/>
        <pt x="348" y="-16" on="0"/>
        <pt x="313" y="-16" on="1"/>
        <pt x="236" y="-16" on="0"/>
        <pt x="236" y="22" on="1"/>
        <pt x="236" y="349" on="1"/>
        <pt x="18" y="732" on="1"/>
        <pt x="14" y="739" on="0"/>
      </contour>
    </TTGlyph>
    <TTGlyph name="Ydieresis" xMin="13" yMin="-16" xMax="551" yMax="1024">
      <contour>
        <pt x="104" y="880" on="0"/>
        <pt x="104" y="1024" on="0"/>
        <pt x="248" y="1024" on="0"/>
        <pt x="248" y="880" on="0"/>
      </contour>
      <contour>
        <pt x="338" y="880" on="0"/>
        <pt x="338" y="1024" on="0"/>
        <pt x="482" y="1024" on="0"/>
        <pt x="482" y="880" on="0"/>
      </contour>
      <contour>
        <pt x="14" y="745" on="1"/>
        <pt x="14" y="768" on="0"/>
        <pt x="146" y="768" on="0"/>
        <pt x="161" y="731" on="1"/>
        <pt x="298" y="492" on="1"/>
        <pt x="417" y="734" on="1"/>
        <pt x="425" y="754" on="0"/>
        <pt x="453" y="768" on="0"/>
        <pt x="483" y="768" on="1"/>
        <pt x="551" y="768" on="0"/>
        <pt x="551" y="743" on="1"/>
        <pt x="551" y="737" on="0"/>
        <pt x="548" y="731" on="1"/>
        <pt x="353" y="349" on="1"/>
        <pt x="353" y="21" on="1"/>
        <pt x="353" y="4" on="0"/>
        <pt x="352" y="-2" on="1"/>
        <pt x="348" y="-16" on="0"/>
        <pt x="313" y="-16" on="1"/>
        <pt x="236" y="-16" on="0"/>
        <pt x="236" y="22" on="1"/>
        <pt x="236" y="349" on="1"/>
        <pt x="18" y="732" on="1"/>
        <pt x="14" y="739" on="0"/>
      </contour>
    </TTGlyph>
    <TTGlyph name="Z" xMin="29" yMin="0" xMax="501" yMax="752">
      <contour>
        <pt x="450" y="0" on="1"/>
        <pt x="60" y="0" on="1"/>
        <pt x="44" y="16" on="1"/>
        <pt x="44" y="122" on="1"/>
        <pt x="328" y="632" on="1"/>
        <pt x="72" y="632" on="1"/>
        <pt x="46" y="633" on="0"/>
        <pt x="38" y="644" on="1"/>
        <pt x="30" y="658" on="0"/>
        <pt x="30" y="723" on="0"/>
        <pt x="44" y="752" on="0"/>
        <pt x="67" y="752" on="1"/>
        <pt x="469" y="752" on="1"/>
        <pt x="485" y="736" on="1"/>
        <pt x="485" y="648" on="1"/>
        <pt x="208" y="121" on="1"/>
        <pt x="445" y="121" on="1"/>
        <pt x="478" y="120" on="0"/>
        <pt x="501" y="105" on="0"/>
        <pt x="501" y="89" on="1"/>
        <pt x="499" y="0" on="0"/>
      </contour>
    </TTGlyph>
    <TTGlyph name="Z_smcp" xMin="22" yMin="5" xMax="351" yMax="522">
      <contour>
        <pt x="310" y="5" on="1"/>
        <pt x="45" y="5" on="1"/>
        <pt x="32" y="20" on="1"/>
        <pt x="32" y="96" on="1"/>
        <pt x="215" y="427" on="1"/>
        <pt x="57" y="427" on="1"/>
        <pt x="35" y="427" on="0"/>
        <pt x="23" y="444" on="0"/>
        <pt x="22" y="471" on="1"/>
        <pt x="22" y="498" on="0"/>
        <pt x="35" y="522" on="0"/>
        <pt x="54" y="522" on="1"/>
        <pt x="327" y="522" on="1"/>
        <pt x="340" y="507" on="1"/>
        <pt x="340" y="439" on="1"/>
        <pt x="161" y="101" on="1"/>
        <pt x="307" y="101" on="1"/>
        <pt x="351" y="100" on="0"/>
        <pt x="351" y="71" on="1"/>
        <pt x="349" y="5" on="0"/>
      </contour>
    </TTGlyph>
    <TTGlyph name="Zcaron" xMin="21" yMin="0" xMax="493" yMax="1024">
      <contour>
        <pt x="91" y="992" on="1"/>
        <pt x="130" y="1024" on="1"/>
        <pt x="255" y="943" on="1"/>
        <pt x="380" y="1024" on="1"/>
        <pt x="419" y="992" on="1"/>
        <pt x="406" y="938" on="1"/>
        <pt x="304" y="848" on="1"/>
        <pt x="255" y="828" on="1"/>
        <pt x="206" y="848" on="1"/>
        <pt x="104" y="938" on="1"/>
      </contour>
      <contour>
        <pt x="442" y="0" on="1"/>
        <pt x="52" y="0" on="1"/>
        <pt x="36" y="16" on="1"/>
        <pt x="36" y="122" on="1"/>
        <pt x="320" y="632" on="1"/>
        <pt x="64" y="632" on="1"/>
        <pt x="38" y="633" on="0"/>
        <pt x="30" y="644" on="1"/>
        <pt x="22" y="658" on="0"/>
        <pt x="22" y="723" on="0"/>
        <pt x="36" y="752" on="0"/>
        <pt x="59" y="752" on="1"/>
        <pt x="461" y="752" on="1"/>
        <pt x="477" y="736" on="1"/>
        <pt x="477" y="648" on="1"/>
        <pt x="200" y="121" on="1"/>
        <pt x="437" y="121" on="1"/>
        <pt x="470" y="120" on="0"/>
        <pt x="493" y="105" on="0"/>
        <pt x="493" y="89" on="1"/>
        <pt x="491" y="0" on="0"/>
      </contour>
    </TTGlyph>
    <TTGlyph name="a" xMin="35" yMin="-16" xMax="394" yMax="512">
      <contour>
        <pt x="274" y="31" on="1"/>
        <pt x="222" y="-16" on="0"/>
        <pt x="141" y="-16" on="0"/>
        <pt x="91" y="-5" on="0"/>
        <pt x="51" y="32" on="0"/>
        <pt x="35" y="102" on="0"/>
        <pt x="35" y="160" on="1"/>
        <pt x="35" y="241" on="0"/>
        <pt x="114" y="271" on="1"/>
        <pt x="257" y="308" on="1"/>
        <pt x="256" y="373" on="0"/>
        <pt x="232" y="411" on="0"/>
        <pt x="152" y="411" on="0"/>
        <pt x="123" y="398" on="1"/>
        <pt x="88" y="384" on="1"/>
        <pt x="87" y="384" on="1"/>
        <pt x="78" y="379" on="0"/>
        <pt x="71" y="392" on="1"/>
        <pt x="53" y="430" on="0"/>
        <pt x="53" y="473" on="0"/>
        <pt x="60" y="478" on="0"/>
        <pt x="60" y="479" on="1"/>
        <pt x="110" y="512" on="0"/>
        <pt x="269" y="512" on="0"/>
        <pt x="355" y="470" on="0"/>
        <pt x="394" y="359" on="0"/>
        <pt x="394" y="250" on="1"/>
        <pt x="392" y="0" on="1"/>
        <pt x="392" y="-6" on="0"/>
        <pt x="390" y="-8" on="1"/>
        <pt x="386" y="-16" on="0"/>
        <pt x="352" y="-16" on="1"/>
        <pt x="290" y="-16" on="0"/>
        <pt x="290" y="0" on="1"/>
      </contour>
      <contour>
        <pt x="146" y="158" on="1"/>
        <pt x="146" y="86" on="0"/>
        <pt x="188" y="82" on="1"/>
        <pt x="217" y="82" on="0"/>
        <pt x="230" y="92" on="1"/>
        <pt x="258" y="111" on="0"/>
        <pt x="258" y="234" on="1"/>
        <pt x="206" y="227" on="0"/>
        <pt x="146" y="184" on="0"/>
      </contour>
    </TTGlyph>
    <TTGlyph name="aacute" xMin="35" yMin="-16" xMax="394" yMax="768">
      <contour>
        <pt x="274" y="31" on="1"/>
        <pt x="222" y="-16" on="0"/>
        <pt x="141" y="-16" on="0"/>
        <pt x="91" y="-5" on="0"/>
        <pt x="51" y="32" on="0"/>
        <pt x="35" y="102" on="0"/>
        <pt x="35" y="160" on="1"/>
        <pt x="35" y="241" on="0"/>
        <pt x="114" y="271" on="1"/>
        <pt x="257" y="308" on="1"/>
        <pt x="256" y="373" on="0"/>
        <pt x="232" y="411" on="0"/>
        <pt x="152" y="411" on="0"/>
        <pt x="123" y="398" on="1"/>
        <pt x="88" y="384" on="1"/>
        <pt x="87" y="384" on="1"/>
        <pt x="78" y="379" on="0"/>
        <pt x="71" y="392" on="1"/>
        <pt x="53" y="430" on="0"/>
        <pt x="53" y="473" on="0"/>
        <pt x="60" y="478" on="0"/>
        <pt x="60" y="479" on="1"/>
        <pt x="110" y="512" on="0"/>
        <pt x="269" y="512" on="0"/>
        <pt x="355" y="470" on="0"/>
        <pt x="394" y="359" on="0"/>
        <pt x="394" y="250" on="1"/>
        <pt x="392" y="0" on="1"/>
        <pt x="392" y="-6" on="0"/>
        <pt x="390" y="-8" on="1"/>
        <pt x="386" y="-16" on="0"/>
        <pt x="352" y="-16" on="1"/>
        <pt x="290" y="-16" on="0"/>
        <pt x="290" y="0" on="1"/>
      </contour>
      <contour>
        <pt x="146" y="158" on="1"/>
        <pt x="146" y="86" on="0"/>
        <pt x="188" y="82" on="1"/>
        <pt x="217" y="82" on="0"/>
        <pt x="230" y="92" on="1"/>
        <pt x="258" y="111" on="0"/>
        <pt x="258" y="234" on="1"/>
        <pt x="206" y="227" on="0"/>
        <pt x="146" y="184" on="0"/>
      </contour>
      <contour>
        <pt x="220" y="536" on="1"/>
        <pt x="174" y="557" on="1"/>
        <pt x="173" y="612" on="1"/>
        <pt x="230" y="736" on="1"/>
        <pt x="272" y="768" on="1"/>
        <pt x="380" y="708" on="1"/>
      </contour>
    </TTGlyph>
    <TTGlyph name="acircumflex" xMin="35" yMin="-16" xMax="394" yMax="768">
      <contour>
        <pt x="274" y="31" on="1"/>
        <pt x="222" y="-16" on="0"/>
        <pt x="141" y="-16" on="0"/>
        <pt x="91" y="-5" on="0"/>
        <pt x="51" y="32" on="0"/>
        <pt x="35" y="102" on="0"/>
        <pt x="35" y="160" on="1"/>
        <pt x="35" y="241" on="0"/>
        <pt x="114" y="271" on="1"/>
        <pt x="257" y="308" on="1"/>
        <pt x="256" y="373" on="0"/>
        <pt x="232" y="411" on="0"/>
        <pt x="152" y="411" on="0"/>
        <pt x="123" y="398" on="1"/>
        <pt x="88" y="384" on="1"/>
        <pt x="87" y="384" on="1"/>
        <pt x="78" y="379" on="0"/>
        <pt x="71" y="392" on="1"/>
        <pt x="53" y="430" on="0"/>
        <pt x="53" y="473" on="0"/>
        <pt x="60" y="478" on="0"/>
        <pt x="60" y="479" on="1"/>
        <pt x="110" y="512" on="0"/>
        <pt x="269" y="512" on="0"/>
        <pt x="355" y="470" on="0"/>
        <pt x="394" y="359" on="0"/>
        <pt x="394" y="250" on="1"/>
        <pt x="392" y="0" on="1"/>
        <pt x="392" y="-6" on="0"/>
        <pt x="390" y="-8" on="1"/>
        <pt x="386" y="-16" on="0"/>
        <pt x="352" y="-16" on="1"/>
        <pt x="290" y="-16" on="0"/>
        <pt x="290" y="0" on="1"/>
      </contour>
      <contour>
        <pt x="146" y="158" on="1"/>
        <pt x="146" y="86" on="0"/>
        <pt x="188" y="82" on="1"/>
        <pt x="217" y="82" on="0"/>
        <pt x="230" y="92" on="1"/>
        <pt x="258" y="111" on="0"/>
        <pt x="258" y="234" on="1"/>
        <pt x="206" y="227" on="0"/>
        <pt x="146" y="184" on="0"/>
      </contour>
      <contour>
        <pt x="92" y="572" on="1"/>
        <pt x="53" y="604" on="1"/>
        <pt x="66" y="658" on="1"/>
        <pt x="168" y="748" on="1"/>
        <pt x="217" y="768" on="1"/>
        <pt x="266" y="748" on="1"/>
        <pt x="368" y="658" on="1"/>
        <pt x="381" y="604" on="1"/>
        <pt x="342" y="572" on="1"/>
        <pt x="217" y="653" on="1"/>
      </contour>
    </TTGlyph>
    <TTGlyph name="acute" xMin="27" yMin="536" xMax="234" yMax="768">
      <contour>
        <pt x="74" y="536" on="1"/>
        <pt x="28" y="557" on="1"/>
        <pt x="27" y="612" on="1"/>
        <pt x="84" y="736" on="1"/>
        <pt x="126" y="768" on="1"/>
        <pt x="234" y="708" on="1"/>
      </contour>
    </TTGlyph>
    <TTGlyph name="adieresis" xMin="29" yMin="-16" xMax="407" yMax="768">
      <contour>
        <pt x="274" y="31" on="1"/>
        <pt x="222" y="-16" on="0"/>
        <pt x="141" y="-16" on="0"/>
        <pt x="91" y="-5" on="0"/>
        <pt x="51" y="32" on="0"/>
        <pt x="35" y="102" on="0"/>
        <pt x="35" y="160" on="1"/>
        <pt x="35" y="241" on="0"/>
        <pt x="114" y="271" on="1"/>
        <pt x="257" y="308" on="1"/>
        <pt x="256" y="373" on="0"/>
        <pt x="232" y="411" on="0"/>
        <pt x="152" y="411" on="0"/>
        <pt x="123" y="398" on="1"/>
        <pt x="88" y="384" on="1"/>
        <pt x="87" y="384" on="1"/>
        <pt x="78" y="379" on="0"/>
        <pt x="71" y="392" on="1"/>
        <pt x="53" y="430" on="0"/>
        <pt x="53" y="473" on="0"/>
        <pt x="60" y="478" on="0"/>
        <pt x="60" y="479" on="1"/>
        <pt x="110" y="512" on="0"/>
        <pt x="269" y="512" on="0"/>
        <pt x="355" y="470" on="0"/>
        <pt x="394" y="359" on="0"/>
        <pt x="394" y="250" on="1"/>
        <pt x="392" y="0" on="1"/>
        <pt x="392" y="-6" on="0"/>
        <pt x="390" y="-8" on="1"/>
        <pt x="386" y="-16" on="0"/>
        <pt x="352" y="-16" on="1"/>
        <pt x="290" y="-16" on="0"/>
        <pt x="290" y="0" on="1"/>
      </contour>
      <contour>
        <pt x="146" y="158" on="1"/>
        <pt x="146" y="86" on="0"/>
        <pt x="188" y="82" on="1"/>
        <pt x="217" y="82" on="0"/>
        <pt x="230" y="92" on="1"/>
        <pt x="258" y="111" on="0"/>
        <pt x="258" y="234" on="1"/>
        <pt x="206" y="227" on="0"/>
        <pt x="146" y="184" on="0"/>
      </contour>
      <contour>
        <pt x="29" y="624" on="0"/>
        <pt x="29" y="768" on="0"/>
        <pt x="173" y="768" on="0"/>
        <pt x="173" y="624" on="0"/>
      </contour>
      <contour>
        <pt x="263" y="624" on="0"/>
        <pt x="263" y="768" on="0"/>
        <pt x="407" y="768" on="0"/>
        <pt x="407" y="624" on="0"/>
      </contour>
    </TTGlyph>
    <TTGlyph name="ae" xMin="39" yMin="-17" xMax="651" yMax="512">
      <contour>
        <pt x="452" y="-16" on="1"/>
        <pt x="339" y="-16" on="0"/>
        <pt x="299" y="49" on="1"/>
        <pt x="269" y="19" on="0"/>
        <pt x="258" y="10" on="1"/>
        <pt x="228" y="-16" on="0"/>
        <pt x="145" y="-16" on="0"/>
        <pt x="95" y="-5" on="0"/>
        <pt x="55" y="32" on="0"/>
        <pt x="39" y="102" on="0"/>
        <pt x="39" y="160" on="1"/>
        <pt x="39" y="241" on="0"/>
        <pt x="118" y="271" on="1"/>
        <pt x="261" y="308" on="1"/>
        <pt x="260" y="373" on="0"/>
        <pt x="236" y="411" on="0"/>
        <pt x="156" y="411" on="0"/>
        <pt x="127" y="398" on="1"/>
        <pt x="87" y="398" on="1"/>
        <pt x="63" y="478" on="1"/>
        <pt x="108" y="512" on="0"/>
        <pt x="284" y="512" on="0"/>
        <pt x="327" y="484" on="1"/>
        <pt x="366" y="512" on="0"/>
        <pt x="527" y="512" on="0"/>
        <pt x="604" y="470" on="0"/>
        <pt x="640" y="356" on="0"/>
        <pt x="640" y="251" on="1"/>
        <pt x="640" y="245" on="0"/>
        <pt x="640" y="233" on="0"/>
        <pt x="593" y="223" on="0"/>
        <pt x="560" y="223" on="1"/>
        <pt x="406" y="223" on="1"/>
        <pt x="408" y="106" on="0"/>
        <pt x="424" y="90" on="1"/>
        <pt x="432" y="82" on="0"/>
        <pt x="452" y="82" on="1"/>
        <pt x="603" y="82" on="0"/>
        <pt x="634" y="96" on="1"/>
        <pt x="641" y="98" on="0"/>
        <pt x="650" y="78" on="0"/>
        <pt x="650" y="4" on="0"/>
        <pt x="634" y="0" on="1"/>
        <pt x="593" y="-16" on="0"/>
      </contour>
      <contour>
        <pt x="150" y="158" on="1"/>
        <pt x="150" y="86" on="0"/>
        <pt x="192" y="82" on="1"/>
        <pt x="221" y="82" on="0"/>
        <pt x="234" y="92" on="1"/>
        <pt x="262" y="111" on="0"/>
        <pt x="262" y="234" on="1"/>
        <pt x="210" y="227" on="0"/>
        <pt x="150" y="184" on="0"/>
      </contour>
      <contour>
        <pt x="406" y="381" on="1"/>
        <pt x="406" y="303" on="1"/>
        <pt x="507" y="303" on="1"/>
        <pt x="503" y="419" on="0"/>
        <pt x="484" y="419" on="1"/>
        <pt x="450" y="419" on="0"/>
        <pt x="406" y="399" on="0"/>
      </contour>
    </TTGlyph>
    <TTGlyph name="agrave" xMin="31" yMin="-16" xMax="394" yMax="768">
      <contour>
        <pt x="274" y="31" on="1"/>
        <pt x="222" y="-16" on="0"/>
        <pt x="141" y="-16" on="0"/>
        <pt x="91" y="-5" on="0"/>
        <pt x="51" y="32" on="0"/>
        <pt x="35" y="102" on="0"/>
        <pt x="35" y="160" on="1"/>
        <pt x="35" y="241" on="0"/>
        <pt x="114" y="271" on="1"/>
        <pt x="257" y="308" on="1"/>
        <pt x="256" y="373" on="0"/>
        <pt x="232" y="411" on="0"/>
        <pt x="152" y="411" on="0"/>
        <pt x="123" y="398" on="1"/>
        <pt x="88" y="384" on="1"/>
        <pt x="87" y="384" on="1"/>
        <pt x="78" y="379" on="0"/>
        <pt x="71" y="392" on="1"/>
        <pt x="53" y="430" on="0"/>
        <pt x="53" y="473" on="0"/>
        <pt x="60" y="478" on="0"/>
        <pt x="60" y="479" on="1"/>
        <pt x="110" y="512" on="0"/>
        <pt x="269" y="512" on="0"/>
        <pt x="355" y="470" on="0"/>
        <pt x="394" y="359" on="0"/>
        <pt x="394" y="250" on="1"/>
        <pt x="392" y="0" on="1"/>
        <pt x="392" y="-6" on="0"/>
        <pt x="390" y="-8" on="1"/>
        <pt x="386" y="-16" on="0"/>
        <pt x="352" y="-16" on="1"/>
        <pt x="290" y="-16" on="0"/>
        <pt x="290" y="0" on="1"/>
      </contour>
      <contour>
        <pt x="146" y="158" on="1"/>
        <pt x="146" y="86" on="0"/>
        <pt x="188" y="82" on="1"/>
        <pt x="217" y="82" on="0"/>
        <pt x="230" y="92" on="1"/>
        <pt x="258" y="111" on="0"/>
        <pt x="258" y="234" on="1"/>
        <pt x="206" y="227" on="0"/>
        <pt x="146" y="184" on="0"/>
      </contour>
      <contour>
        <pt x="237" y="557" on="1"/>
        <pt x="191" y="536" on="1"/>
        <pt x="31" y="708" on="1"/>
        <pt x="139" y="768" on="1"/>
        <pt x="181" y="736" on="1"/>
        <pt x="238" y="612" on="1"/>
      </contour>
    </TTGlyph>
    <TTGlyph name="ampersand" xMin="22" yMin="-240" xMax="759" yMax="512">
      <contour>
        <pt x="711" y="411" on="1"/>
        <pt x="583" y="411" on="1"/>
        <pt x="584" y="-223" on="1"/>
        <pt x="584" y="-224" on="1"/>
        <pt x="584" y="-230" on="0"/>
        <pt x="582" y="-232" on="1"/>
        <pt x="578" y="-240" on="0"/>
        <pt x="511" y="-240" on="0"/>
        <pt x="440" y="-230" on="0"/>
        <pt x="440" y="-224" on="1"/>
        <pt x="440" y="-208" on="1"/>
        <pt x="441" y="411" on="1"/>
        <pt x="220" y="411" on="1"/>
        <pt x="188" y="411" on="0"/>
        <pt x="161" y="364" on="0"/>
        <pt x="159" y="307" on="1"/>
        <pt x="304" y="307" on="1"/>
        <pt x="321" y="307" on="0"/>
        <pt x="328" y="289" on="0"/>
        <pt x="328" y="278" on="1"/>
        <pt x="328" y="206" on="0"/>
        <pt x="307" y="206" on="1"/>
        <pt x="158" y="206" on="1"/>
        <pt x="161" y="132" on="0"/>
        <pt x="191" y="82" on="0"/>
        <pt x="256" y="82" on="0"/>
        <pt x="341" y="95" on="0"/>
        <pt x="344" y="94" on="1"/>
        <pt x="354" y="91" on="0"/>
        <pt x="354" y="28" on="0"/>
        <pt x="348" y="1" on="0"/>
        <pt x="339" y="-2" on="1"/>
        <pt x="291" y="-16" on="0"/>
        <pt x="232" y="-16" on="1"/>
        <pt x="111" y="-16" on="0"/>
        <pt x="22" y="97" on="0"/>
        <pt x="22" y="248" on="1"/>
        <pt x="22" y="330" on="0"/>
        <pt x="41" y="430" on="0"/>
        <pt x="91" y="490" on="0"/>
        <pt x="167" y="512" on="0"/>
        <pt x="230" y="512" on="1"/>
        <pt x="711" y="512" on="1"/>
        <pt x="759" y="512" on="0"/>
        <pt x="759" y="481" on="1"/>
        <pt x="759" y="447" on="0"/>
        <pt x="739" y="411" on="0"/>
      </contour>
    </TTGlyph>
    <TTGlyph name="aring" xMin="35" yMin="-16" xMax="394" yMax="752">
      <contour>
        <pt x="274" y="31" on="1"/>
        <pt x="222" y="-16" on="0"/>
        <pt x="141" y="-16" on="0"/>
        <pt x="91" y="-5" on="0"/>
        <pt x="51" y="32" on="0"/>
        <pt x="35" y="102" on="0"/>
        <pt x="35" y="160" on="1"/>
        <pt x="35" y="241" on="0"/>
        <pt x="114" y="271" on="1"/>
        <pt x="257" y="308" on="1"/>
        <pt x="256" y="373" on="0"/>
        <pt x="232" y="411" on="0"/>
        <pt x="152" y="411" on="0"/>
        <pt x="123" y="398" on="1"/>
        <pt x="88" y="384" on="1"/>
        <pt x="87" y="384" on="1"/>
        <pt x="78" y="379" on="0"/>
        <pt x="71" y="392" on="1"/>
        <pt x="53" y="430" on="0"/>
        <pt x="53" y="473" on="0"/>
        <pt x="60" y="478" on="0"/>
        <pt x="60" y="479" on="1"/>
        <pt x="110" y="512" on="0"/>
        <pt x="269" y="512" on="0"/>
        <pt x="355" y="470" on="0"/>
        <pt x="394" y="359" on="0"/>
        <pt x="394" y="250" on="1"/>
        <pt x="392" y="0" on="1"/>
        <pt x="392" y="-6" on="0"/>
        <pt x="390" y="-8" on="1"/>
        <pt x="386" y="-16" on="0"/>
        <pt x="352" y="-16" on="1"/>
        <pt x="290" y="-16" on="0"/>
        <pt x="290" y="0" on="1"/>
      </contour>
      <contour>
        <pt x="146" y="158" on="1"/>
        <pt x="146" y="86" on="0"/>
        <pt x="188" y="82" on="1"/>
        <pt x="217" y="82" on="0"/>
        <pt x="230" y="92" on="1"/>
        <pt x="258" y="111" on="0"/>
        <pt x="258" y="234" on="1"/>
        <pt x="206" y="227" on="0"/>
        <pt x="146" y="184" on="0"/>
      </contour>
      <contour>
        <pt x="121" y="560" on="0"/>
        <pt x="121" y="752" on="0"/>
        <pt x="313" y="752" on="0"/>
        <pt x="313" y="560" on="0"/>
      </contour>
      <contour>
        <pt x="182" y="691" on="0"/>
        <pt x="182" y="621" on="0"/>
        <pt x="252" y="621" on="0"/>
        <pt x="252" y="691" on="0"/>
      </contour>
    </TTGlyph>
    <TTGlyph name="asciicircum" xMin="25" yMin="524" xMax="353" yMax="752">
      <contour>
        <pt x="353" y="556" on="1"/>
        <pt x="314" y="524" on="1"/>
        <pt x="189" y="637" on="1"/>
        <pt x="64" y="524" on="1"/>
        <pt x="25" y="556" on="1"/>
        <pt x="38" y="610" on="1"/>
        <pt x="140" y="732" on="1"/>
        <pt x="189" y="752" on="1"/>
        <pt x="238" y="732" on="1"/>
        <pt x="340" y="610" on="1"/>
      </contour>
    </TTGlyph>
</ttFont>
